<?xml version="1.0" encoding="UTF-8"?>
<svg id="Layer_2" data-name="Layer 2" xmlns="http://www.w3.org/2000/svg" viewBox="0 0 24.17 22.66">
  <defs>
    <style>
      .cls-1 {
        fill: #050505;
      }

      .cls-2 {
        fill: #bea278;
      }

      .cls-3 {
        fill: #625241;
      }

      .cls-4 {
        fill: #f6cd96;
      }
    </style>
  </defs>
  <g id="Réteg_1" data-name="Réteg 1">
    <g>
      <path class="cls-1" d="M.79,16.8c.64.74,1.61.99,2.4,1.51,1.22.77,2.48,1.54,3.49,2.58.57.57,1.31.93,1.91,1.47.41.39,1.06.33,1.55.13,1.44-.61,2.58-1.7,3.91-2.5,1.22-.73,2.32-1.62,3.55-2.32,1.16-.66,2.04-1.69,3.14-2.45,1.16-.77,2.23-1.67,3.26-2.59.26-.24.19-.63.03-.9-.61-1.24-1.52-2.29-2.27-3.44-.87-1.18-1.5-2.52-1.97-3.91-.23-.77-.4-1.57-.78-2.28,0-.45.05-.94-.27-1.3-.02-.36.02-.97-.52-.78-.24.59-.11,1.26-.21,1.89-1.31.95-2.77,1.65-4.1,2.57-1.2.82-2.53,1.39-3.77,2.13-.49.09-.92.36-1.3.68-.96.49-1.83,1.12-2.73,1.69-.01-.54.03-1.09-.04-1.63-.02-.32-.48-.31-.65-.11-.12.6-.04,1.22-.06,1.84-.68.99-1.14,2.1-1.74,3.13-.6.93-1.17,1.89-1.92,2.71C1.18,15.53.54,16.01,0,16.59c.05.45.49.23.79.22Z"/>
      <path class="cls-1" d="M18.22.04c.54-.19.5.42.52.78.32.36.27.85.27,1.3.38.71.55,1.51.78,2.28.47,1.39,1.1,2.73,1.97,3.91.74,1.15,1.66,2.2,2.27,3.44.16.27.23.66-.03.9-1.04.92-2.1,1.82-3.26,2.59-1.09.76-1.98,1.78-3.14,2.45-1.23.7-2.34,1.59-3.55,2.32-1.32.8-2.47,1.89-3.91,2.5-.49.2-1.14.25-1.55-.13-.6-.54-1.33-.91-1.91-1.47-1.02-1.04-2.27-1.81-3.49-2.58-.79-.52-1.76-.78-2.4-1.51-.29.01-.74.23-.79-.22.54-.57,1.18-1.06,1.69-1.66.75-.82,1.32-1.78,1.92-2.71.61-1.03,1.07-2.14,1.74-3.13.02-.61-.06-1.23.06-1.84.17-.19.63-.2.65.11.07.54.03,1.08.04,1.63.91-.57,1.78-1.2,2.73-1.69.44-.22.88-.43,1.3-.68,1.24-.74,2.58-1.32,3.77-2.13,1.33-.92,2.79-1.62,4.1-2.57.1-.63-.03-1.3.21-1.89ZM15.11,4.61c-2.85,1.94-6.1,3.21-8.91,5.22.37,1.12.64,2.27,1.02,3.38.54,1.95,1.35,3.8,1.98,5.72.22.7.84,1.35.57,2.13.09.17.18.34.28.51,1.11-.44,2.01-1.24,3-1.89.89-.6,1.82-1.14,2.67-1.79,1.02-.7,2.15-1.26,3.03-2.15.92-.94,2.05-1.63,3.02-2.51.48-.44.98-.84,1.49-1.24-1.47-2.21-3.32-4.25-4.07-6.85-.21-.84-.51-1.66-.75-2.5-1.11.65-2.22,1.31-3.32,1.97ZM1.38,16.34c.75-.25,1.58-.26,2.25-.71.46-.28.95-.59,1.23-1.07.53-1.18.51-2.5.43-3.77-1.09,1.98-2.2,4.02-3.91,5.54ZM6.18,12.73c-.15,2.23.05,4.46.03,6.7.95.73,1.78,1.66,2.92,2.11-.18-.34-.35-.67-.52-1.01.37-.33-.01-.73-.12-1.09-.59-1.67-1.16-3.36-1.74-5.04-.17-.56-.27-1.15-.57-1.67ZM2.45,17.03c.98.48,1.87,1.11,2.8,1.67-.03-1.11.1-2.21.05-3.31-.8.77-1.73,1.45-2.85,1.64Z"/>
      <path class="cls-1" d="M17.43,6.93c-.25-.32.24-.45.34-.16.06.17.1.34.13.52-.2-.06-.43-.11-.47-.35Z"/>
      <path class="cls-1" d="M14.67,7.04c.38-.25.66.28.77.58-.16.66-.86-.17-.77-.58Z"/>
      <path class="cls-1" d="M12.26,8.56c.08-.26.43.03.6-.01-.08.29-.68.44-.6.01Z"/>
      <path class="cls-1" d="M8.52,10.35c.46-.11.6.47.45.81-.41.17-.73-.51-.45-.81Z"/>
      <path class="cls-1" d="M20.27,11.61c.24-.19.47.23.28.4-.24.2-.5-.23-.28-.4Z"/>
      <path class="cls-1" d="M18.78,11.98c.42.21.62.73.51,1.18-.28-.3-.87-.74-.51-1.18Z"/>
      <path class="cls-1" d="M7.66,12.72c-.04-.2.01-.36.15-.48.26.03.25.25.26.45-.1,0-.31.02-.41.03Z"/>
      <path class="cls-1" d="M17.15,12.95c-.09-.25-.16-.74.26-.63.38.47.66,1.07.65,1.68-.53-.1-.74-.61-.91-1.06Z"/>
      <path class="cls-1" d="M15.84,13c.22-.33.47.11.57.29.22.51.72,1.01.57,1.6-.39-.02-.55-.43-.73-.71-.2-.37-.47-.74-.41-1.18Z"/>
      <path class="cls-1" d="M13.36,14.15c.09.02.26.05.35.07.08.31.54.9-.02.98-.28-.28-.38-.66-.33-1.04Z"/>
      <path class="cls-1" d="M14.97,15.56c.37-.16.82.19.59.58-.39.17-.68-.22-.59-.58Z"/>
      <path class="cls-1" d="M9.69,15.72c.69.38.84,1.22,1.2,1.86.26.63.81,1.08,1.11,1.69.1.29-.36.36-.48.18-.48-.58-.72-1.3-1.08-1.95-.3-.57-.68-1.12-.75-1.78Z"/>
      <path class="cls-1" d="M12.02,15.97c.59.16.61.9.9,1.36.21.25.23.95-.24.59-.36-.58-.71-1.24-.66-1.94Z"/>
      <path class="cls-1" d="M6.69,17.59c.64,0,.6,1.07.12,1.24-.26-.37-.16-.82-.12-1.24Z"/>
      <path class="cls-1" d="M7.65,19.1c.45-.27.51.64.16.79-.21-.21-.2-.52-.16-.79Z"/>
      <path class="cls-3" d="M2.45,17.03c1.12-.18,2.05-.87,2.85-1.64.05,1.11-.08,2.21-.05,3.31-.93-.57-1.82-1.19-2.8-1.67Z"/>
      <path class="cls-4" d="M15.11,4.61c1.11-.66,2.21-1.32,3.32-1.97.24.84.54,1.65.75,2.5.75,2.6,2.6,4.64,4.07,6.85-.51.4-1.01.8-1.49,1.24-.97.88-2.1,1.57-3.02,2.51-.87.89-2.01,1.45-3.03,2.15-.85.65-1.78,1.19-2.67,1.79-.99.65-1.89,1.45-3,1.89-.09-.17-.19-.34-.28-.51.27-.77-.35-1.43-.57-2.13-.63-1.92-1.45-3.77-1.98-5.72-.38-1.11-.65-2.26-1.02-3.38,2.81-2.01,6.06-3.28,8.91-5.22ZM17.43,6.93c.04.24.27.3.47.35-.03-.18-.07-.35-.13-.52-.11-.29-.6-.15-.34.16ZM14.67,7.04c-.08.4.62,1.24.77.58-.11-.3-.4-.83-.77-.58ZM12.26,8.56c-.08.43.52.27.6-.01-.17.04-.52-.25-.6.01ZM8.52,10.35c-.28.3.04.98.45.81.15-.33.01-.92-.45-.81ZM20.27,11.61c-.22.17.04.6.28.4.19-.17-.04-.59-.28-.4ZM18.78,11.98c-.37.44.22.88.51,1.18.11-.44-.09-.97-.51-1.18ZM7.66,12.72c.1,0,.31-.02.41-.03-.01-.2,0-.42-.26-.45-.14.12-.18.28-.15.48ZM17.15,12.95c.17.44.38.96.91,1.06.01-.62-.27-1.22-.65-1.68-.42-.11-.35.37-.26.63ZM15.84,13c-.05.44.22.81.41,1.18.19.28.34.69.73.71.15-.59-.35-1.09-.57-1.6-.1-.19-.35-.62-.57-.29ZM13.36,14.15c-.05.38.05.77.33,1.04.56-.07.1-.67.02-.98-.09-.02-.26-.05-.35-.07ZM14.97,15.56c-.09.36.2.75.59.58.23-.4-.22-.74-.59-.58ZM9.69,15.72c.07.66.45,1.21.75,1.78.36.65.6,1.37,1.08,1.95.12.18.58.11.48-.18-.3-.6-.85-1.06-1.11-1.69-.36-.64-.51-1.48-1.2-1.86ZM12.02,15.97c-.05.7.29,1.36.66,1.94.47.36.45-.34.24-.59-.29-.45-.31-1.19-.9-1.36Z"/>
      <path class="cls-2" d="M8.84,7.31c.38-.32.81-.59,1.3-.68-.42.25-.86.46-1.3.68Z"/>
      <path class="cls-2" d="M1.38,16.34c1.71-1.52,2.82-3.56,3.91-5.54.08,1.27.1,2.58-.43,3.77-.28.48-.77.79-1.23,1.07-.67.45-1.5.46-2.25.71Z"/>
      <path class="cls-2" d="M6.18,12.73c.3.51.4,1.11.57,1.67.58,1.68,1.15,3.36,1.74,5.04.11.36.48.76.12,1.09.17.34.34.67.52,1.01-1.14-.45-1.97-1.37-2.92-2.11.02-2.23-.18-4.46-.03-6.7ZM6.69,17.59c-.03.41-.13.87.12,1.24.47-.17.52-1.24-.12-1.24ZM7.65,19.1c-.04.27-.05.57.16.79.35-.15.29-1.06-.16-.79Z"/>
    </g>
  </g>
</svg>