<?xml version="1.0" encoding="UTF-8"?>
<svg id="Layer_2" data-name="Layer 2" xmlns="http://www.w3.org/2000/svg" viewBox="0 0 22.43 25.06">
  <defs>
    <style>
      .cls-1 {
        fill: #bfa179;
      }

      .cls-2 {
        fill: #010101;
      }

      .cls-3 {
        fill: #68523b;
      }

      .cls-4 {
        fill: #fff;
      }

      .cls-5 {
        fill: #c9d0d0;
      }

      .cls-6 {
        fill: #cc6526;
      }
    </style>
  </defs>
  <g id="Réteg_1" data-name="Réteg 1">
    <g>
      <path class="cls-2" d="M3.66,1.93c-.1,1.62,0,3.26.04,4.88l-.05.12c-1.25,1.08-2.59,2.09-3.6,3.41-.2.43.28.62.63.57-.07,2.49-.04,4.98-.06,7.48.02.34-.13.75.14,1.03.52.58,1.25.9,1.93,1.25,1.02.48,2.01,1.04,3.02,1.54,1.57.78,3.02,1.76,4.46,2.76.21.18.48.01.7-.08.27,0,.55-.04.75-.23,2.83-2.18,6.02-3.81,9.01-5.75.5-.36,1.07-.67,1.44-1.19.08-1.8,0-3.6.04-5.39.03-.79-.18-1.57-.11-2.36,0-.34.48-.46.43-.81-.08-1.27-1.05-2.18-1.71-3.18-1.33-1.98-2.92-3.77-4.48-5.57C15.89.31,15.59.05,15.23,0c-.8.39-1.5.96-2.3,1.34-1.76,1-3.65,1.72-5.39,2.75-.04-.73-.09-1.46.19-2.14-.28-.63-.88-1.11-1.46-1.47-.82-.18-1.5.49-2.05,1.01-.21.11-.58.12-.57.44Z"/>
      <path class="cls-2" d="M12.93,1.34c.81-.38,1.51-.95,2.3-1.34.36.05.65.31,1.01.42,1.56,1.8,3.15,3.59,4.48,5.57.65,1,1.63,1.92,1.71,3.18.04.35-.43.47-.43.81-.07.79.14,1.57.11,2.36-.04,1.8.05,3.6-.04,5.39-.37.51-.94.82-1.44,1.19-2.99,1.94-6.19,3.57-9.01,5.75-.21.2-.48.23-.75.23-.21.09-.48.26-.7.08-1.43-1-2.89-1.99-4.46-2.76-1.01-.5-2-1.06-3.02-1.54-.68-.36-1.4-.68-1.93-1.25-.27-.28-.12-.69-.14-1.03.02-2.49,0-4.98.06-7.48-.35.05-.83-.14-.63-.57,1-1.33,2.34-2.34,3.6-3.41l.05-.12c-.03-1.63-.14-3.26-.04-4.88-.01-.32.35-.33.57-.44.55-.52,1.23-1.19,2.05-1.01.58.36,1.17.83,1.46,1.47-.29.68-.24,1.42-.19,2.14,1.74-1.03,3.64-1.75,5.39-2.75ZM13.48,1.99s-.05.02-.06.03c-.8.34-1.54.79-2.33,1.15-1.02.47-2.05.93-3.02,1.5-.27.15-.49.37-.7.59,1.06,2.08,1.84,4.28,2.86,6.39.56,1.1.95,2.28,1.48,3.39,1.35-.79,2.74-1.52,4.09-2.31,1.48-.97,2.99-1.91,4.45-2.93.46-.32,1-.56,1.39-.98-.47-1.16-1.39-2.07-2.09-3.09,0-.01-.02-.03-.03-.04-1.15-1.79-2.74-3.24-3.99-4.95-.71.36-1.31.89-2.03,1.25ZM4.95,1.84c.35.22.67.5,1.03.7.44.14.77-.27.99-.59-.31-.28-.6-.61-.99-.77-.4.11-.79.32-1.03.66ZM4.45,2.55c-.02.46-.02.92.01,1.38.27-.19.28-.57.46-.83-.02.49-.27.91-.47,1.34-.06.6-.03,1.21-.03,1.81,1.02-.48,1.64-1.73,1.32-2.82-.19.59-.35,1.21-.73,1.71-.04-.66.23-1.28.43-1.9-.28-.29-.6-.55-.99-.69ZM6.44,3.16c0,.41,0,.82-.01,1.24.09,0,.26,0,.34.01-.02-.42-.03-.85-.02-1.27-.08,0-.23.02-.31.03ZM1.45,9.97c.29.04.64.16.87-.11.86-.71,1.78-1.34,2.57-2.14.5-.49,1.06-.96,1.31-1.64.07,0,.22,0,.29,0,.48,1.02.67,2.15,1.07,3.21.5,1.58,1.41,2.97,2.03,4.5.34.26.73.46,1.1.7-.32-.78-.64-1.56-1.01-2.31-1.11-2.19-1.92-4.52-3.04-6.7-1.62,1.62-3.57,2.86-5.17,4.5ZM4.52,8.67c.05.26.07.51.08.78h-.24c0-.16,0-.47,0-.62-.22.15-.44.31-.66.46.04.46.05.92.04,1.38.2.09.41.19.61.28.01-.1.04-.3.05-.4.33-.11.22.37.31.57.3.13.59.27.89.41.03-1.19,0-2.44.31-3.59-.07,1.22-.19,2.44-.15,3.67,1.13.51,2.16,1.2,3.21,1.87-.2-.67-.59-1.26-.85-1.9-.08.07-.23.2-.31.26.07-.08.2-.24.26-.32-.72-1.38-1.14-2.88-1.66-4.33-.72.33-1.26,1.01-1.89,1.49ZM2.48,10.24c.41.12.81.26,1.22.4,0-.43-.02-.85-.04-1.28-.4.29-.78.59-1.18.88ZM16.67,13.13c-1.23.79-2.55,1.43-3.81,2.17-.53.28-1.05.69-1.69.61,0,2.69,0,5.37.01,8.06.73-.59,1.53-1.09,2.32-1.59.04-1.73-.01-3.45.04-5.18.24-.76,1.03-1.1,1.65-1.5.42-.34.89.25.87.66.02,1.46,0,2.92.01,4.38,1.76-1.03,3.51-2.08,5.21-3.19,0-2.44,0-4.88,0-7.33-1.59.9-3.08,1.95-4.62,2.91ZM1.46,10.51c0,.21.01.42.02.63,1.6.57,3.13,1.32,4.68,2.01,1.37.83,2.74,1.7,4.24,2.3-.02-.09-.06-.28-.08-.37-1.38-.72-2.66-1.61-4-2.4-1.58-.81-3.16-1.62-4.85-2.16ZM1.46,11.53c0,2.45.06,4.91.02,7.36,1,.8,2.25,1.17,3.34,1.82,1.94.93,3.8,2.02,5.54,3.3,0-2.66.03-5.32,0-7.98-2.06-.88-3.77-2.4-5.84-3.24-1.01-.45-1.96-1.06-3.06-1.27ZM14.14,17.05c.09,1.6.03,3.2.09,4.79.41-.25.82-.49,1.24-.73-.11-1.59-.02-3.19-.06-4.78-.42.25-.84.5-1.27.72Z"/>
      <path class="cls-2" d="M12.37,3.64c.11.01.32.03.43.04.33.37.68.82.6,1.35-.51-.29-.88-.83-1.03-1.39Z"/>
      <path class="cls-2" d="M16.07,3.76c.46.48.75,1.09.99,1.7-.36-.54-.89-1.04-.99-1.7Z"/>
      <path class="cls-2" d="M9.9,6.2c.29-.02.48.46.4.71-.26-.03-.52-.46-.4-.71Z"/>
      <path class="cls-2" d="M14.57,6.47c.45.31.63.85.79,1.34-.4-.34-.72-.81-.79-1.34Z"/>
      <path class="cls-2" d="M9.51,7.11c.33.12.55.4.57.76-.32-.13-.6-.39-.57-.76Z"/>
      <path class="cls-2" d="M19.08,7.45c.47.22.8.75.9,1.23l-.09.12c-.4-.34-.75-.81-.8-1.35Z"/>
      <path class="cls-2" d="M12.75,7.84c.52.09.59.75.66,1.18-.38-.28-.61-.72-.66-1.18Z"/>
      <path class="cls-2" d="M17.16,8.08c.46.2.67.69.94,1.08.28.48.66.89.89,1.4-.51-.09-.71-.62-.98-.99-.27-.5-.71-.92-.84-1.48Z"/>
      <path class="cls-2" d="M14.21,8.3c.31.07.4.41.51.66.19.5.38,1.02.74,1.43.18.26.49.48.46.83-.43-.14-.64-.57-.87-.92-.36-.63-.71-1.29-.85-2.02Z"/>
      <path class="cls-2" d="M6.42,8.51c.21.15.15.42.2.65.05.81.18,1.65.02,2.45-.07.02-.2.05-.26.06.11-1.05.08-2.11.05-3.16Z"/>
      <path class="cls-2" d="M16.26,9.18c.6.54,1.24,1.16,1.46,1.97-.2-.04-.43-.07-.53-.28-.38-.52-.68-1.1-.94-1.69Z"/>
      <path class="cls-2" d="M7.14,10.15c.38.01.29.43.36.67.05.49.05.98.02,1.46-.09,0-.26-.02-.34-.03-.06-.7-.05-1.41-.03-2.11Z"/>
      <path class="cls-2" d="M11.24,10.52c.35.14.37.59.52.9.17.61.62,1.09.86,1.68.13.17-.1.46-.28.31-.32-.33-.41-.8-.51-1.23-.11-.58-.43-1.1-.6-1.66Z"/>
      <path class="cls-2" d="M14.19,10.58c.47.1.72.66.67,1.11-.49-.13-.61-.68-.67-1.11Z"/>
      <path class="cls-2" d="M12.94,11.2c.5-.04.49.62.6.96-.59.13-.54-.59-.6-.96Z"/>
      <path class="cls-2" d="M1.87,12.57c.47.05.29.64.16.94-.14-.29-.43-.64-.16-.94Z"/>
      <path class="cls-2" d="M19.08,12.88c.31-.18.77-.39,1.06-.04.14,1.12.31,2.3-.01,3.4-.14.56-.72.77-1.18,1.01-.43.2-.9.42-1.38.31-.36-.2-.23-.69-.31-1.03-.14-.66-.06-1.34-.15-2,.49-.72,1.24-1.21,1.98-1.65ZM19.47,13.39c-.62.35-1.28.73-1.69,1.33.05.78.1,1.55.15,2.33.54-.2,1.1-.41,1.55-.79.41-.9.18-1.91.16-2.86-.04,0-.13,0-.17-.01Z"/>
      <path class="cls-2" d="M3.32,15.53c.06-.43-.17-1.03.28-1.31.42.55,1.11.72,1.7,1.02.47.22.89.53,1.35.77.23.14.71-.28.76.21.03.78-.09,1.55-.11,2.33-.07.37-.04.86-.32,1.15-.49.3-.85-.35-1.3-.28-.1.25-.03.57-.21.79-.39-.19-.06-.75-.12-1.09-.62-.21-1.24-.44-1.82-.75-.07.31.05.83-.38.89,0-.38-.02-.79.27-1.08-.1-.08-.3-.23-.4-.3,0-.79.37-1.55.31-2.35ZM3.84,15.06c-.04.9.28,1.92-.25,2.72.98.47,2.04.74,2.98,1.28.04-.77.1-1.54.13-2.31-.9-.65-1.9-1.13-2.87-1.68Z"/>
      <path class="cls-2" d="M8.52,17.24c-.1-.32-.19-.66-.02-.97.35.21.25.71.02.97Z"/>
      <path class="cls-2" d="M11.92,17.21c.32.36.2.88.2,1.32-.25-.39-.18-.88-.2-1.32Z"/>
      <path class="cls-2" d="M7.71,18.92c.4.33.23.99.09,1.43-.06.01-.18.04-.24.05.04-.49.06-.99.14-1.48Z"/>
      <path class="cls-2" d="M9.54,19.88c.5.07.23.71.11,1.02-.09-.33-.12-.68-.11-1.02Z"/>
      <path class="cls-2" d="M8.71,20.37c.23.1.15.33.14.52-.05.29-.05.62-.28.83-.21-.45,0-.92.14-1.36Z"/>
      <path class="cls-2" d="M12.29,21.39c0-.26-.15-.65.26-.66,0,.24-.02.53-.26.66Z"/>
      <path class="cls-2" d="M9.58,21.66c.25-.11.23.19.29.36,0,.21.12.54-.19.61-.39-.12-.22-.69-.1-.97Z"/>
      <path class="cls-5" d="M4.52,8.67c.63-.48,1.17-1.16,1.89-1.49.52,1.45.94,2.95,1.66,4.33-.07.08-.2.24-.26.32.08-.07.23-.2.31-.26.26.65.65,1.23.85,1.9-1.04-.66-2.08-1.35-3.21-1.87-.05-1.23.08-2.45.15-3.67-.32,1.15-.28,2.39-.31,3.59-.3-.14-.59-.27-.89-.41-.09-.2.02-.68-.31-.57-.01.1-.04.3-.05.4-.2-.1-.41-.19-.61-.28,0-.46,0-.92-.04-1.38.22-.16.44-.31.66-.46,0,.15,0,.46,0,.62h.24c0-.26-.03-.52-.08-.78ZM6.42,8.51c.04,1.05.06,2.11-.05,3.16.07-.02.2-.05.26-.06.17-.8.03-1.64-.02-2.45-.04-.22.01-.5-.2-.65ZM7.14,10.15c-.02.7-.03,1.41.03,2.11.09,0,.26.02.34.03.04-.49.03-.98-.02-1.46-.07-.24.02-.66-.36-.67Z"/>
      <path class="cls-5" d="M2.48,10.24c.39-.29.78-.59,1.18-.88.02.42.04.85.04,1.28-.4-.14-.81-.28-1.22-.4Z"/>
      <path class="cls-5" d="M1.46,11.53c1.1.21,2.05.82,3.06,1.27,2.07.84,3.78,2.36,5.84,3.24.03,2.66,0,5.32,0,7.98-1.73-1.28-3.6-2.37-5.54-3.3-1.09-.65-2.34-1.03-3.34-1.82.04-2.45-.03-4.91-.02-7.36ZM1.87,12.57c-.28.3.01.65.16.94.13-.29.31-.89-.16-.94ZM3.32,15.53c.06.8-.3,1.56-.31,2.35.1.08.3.23.4.3-.29.29-.27.7-.27,1.08.43-.06.31-.58.38-.89.58.3,1.2.54,1.82.75.06.34-.26.9.12,1.09.18-.22.11-.54.21-.79.45-.07.81.58,1.3.28.28-.29.25-.77.32-1.15.02-.78.14-1.56.11-2.33-.05-.49-.53-.07-.76-.21-.46-.24-.88-.55-1.35-.77-.59-.3-1.28-.47-1.7-1.02-.46.28-.23.87-.28,1.31ZM8.52,17.24c.23-.26.33-.76-.02-.97-.17.31-.08.65.02.97ZM7.71,18.92c-.08.49-.1.98-.14,1.48.06-.01.18-.04.24-.05.13-.43.31-1.1-.09-1.43ZM9.54,19.88c-.02.34.02.69.11,1.02.12-.32.39-.96-.11-1.02ZM8.71,20.37c-.14.43-.36.91-.14,1.36.23-.22.23-.55.28-.83.01-.19.09-.42-.14-.52ZM9.58,21.66c-.12.28-.29.85.1.97.3-.07.18-.4.19-.61-.05-.16-.04-.46-.29-.36Z"/>
      <path class="cls-1" d="M19.47,13.39s.13,0,.17.01c.02.95.25,1.96-.16,2.86-.45.38-1.01.59-1.55.79-.05-.78-.1-1.56-.15-2.33.41-.6,1.07-.98,1.69-1.33Z"/>
      <path class="cls-1" d="M14.14,17.05c.43-.22.85-.48,1.27-.72.04,1.59-.05,3.19.06,4.78-.41.25-.83.49-1.24.73-.06-1.6,0-3.2-.09-4.79Z"/>
      <path class="cls-3" d="M13.42,2.02s.05-.02.06-.03c-.02,0-.05.02-.06.03Z"/>
      <path class="cls-3" d="M4.45,2.55c.38.14.71.39.99.69-.2.62-.46,1.23-.43,1.9.38-.51.54-1.12.73-1.71.32,1.1-.29,2.34-1.32,2.82,0-.6-.03-1.21.03-1.81.2-.43.45-.85.47-1.34-.18.27-.19.64-.46.83-.04-.46-.03-.92-.01-1.38Z"/>
      <path class="cls-3" d="M1.45,9.97c1.6-1.64,3.56-2.88,5.17-4.5,1.12,2.18,1.93,4.51,3.04,6.7.38.75.7,1.53,1.01,2.31-.37-.24-.76-.43-1.1-.7-.61-1.53-1.52-2.92-2.03-4.5-.4-1.05-.59-2.18-1.07-3.21-.07,0-.22,0-.29,0-.24.68-.81,1.15-1.31,1.64-.78.79-1.71,1.43-2.57,2.14-.23.27-.58.15-.87.11Z"/>
      <path class="cls-3" d="M19.5,5.69s.02.03.03.04c0-.01-.02-.03-.03-.04Z"/>
      <path class="cls-3" d="M1.46,10.51c1.69.54,3.28,1.35,4.85,2.16,1.33.8,2.62,1.68,4,2.4.02.09.06.28.08.37-1.49-.6-2.86-1.47-4.24-2.3-1.55-.69-3.08-1.43-4.68-2.01,0-.21-.01-.42-.02-.63Z"/>
      <path class="cls-3" d="M3.84,15.06c.96.55,1.96,1.03,2.87,1.68-.03.77-.09,1.54-.13,2.31-.95-.54-2.01-.81-2.98-1.28.52-.8.21-1.82.25-2.72Z"/>
      <path class="cls-6" d="M13.48,1.99c.71-.36,1.31-.89,2.03-1.25,1.26,1.7,2.84,3.16,3.99,4.95,0,0,.02.03.03.04.71,1.02,1.63,1.93,2.09,3.09-.39.42-.93.65-1.39.98-1.45,1.02-2.96,1.96-4.45,2.93-1.35.79-2.73,1.52-4.09,2.31-.53-1.12-.91-2.3-1.48-3.39-1.01-2.1-1.79-4.31-2.86-6.39.21-.23.43-.44.7-.59.97-.56,2-1.03,3.02-1.5.79-.36,1.53-.81,2.33-1.15.02,0,.05-.02.06-.03ZM12.37,3.64c.16.56.52,1.1,1.03,1.39.07-.53-.27-.98-.6-1.35-.11-.01-.32-.03-.43-.04ZM16.07,3.76c.1.66.62,1.16.99,1.7-.24-.61-.53-1.22-.99-1.7ZM9.9,6.2c-.12.25.13.68.4.71.08-.25-.11-.73-.4-.71ZM14.57,6.47c.08.53.39,1,.79,1.34-.16-.5-.35-1.03-.79-1.34ZM9.51,7.11c-.03.37.25.63.57.76-.02-.36-.24-.64-.57-.76ZM19.08,7.45c.05.54.4,1.01.8,1.35l.09-.12c-.1-.49-.43-1.01-.9-1.23ZM12.75,7.84c.05.46.27.9.66,1.18-.07-.43-.14-1.09-.66-1.18ZM17.16,8.08c.14.56.57.98.84,1.48.27.37.47.9.98.99-.22-.51-.61-.92-.89-1.4-.27-.39-.48-.88-.94-1.08ZM14.21,8.3c.13.72.49,1.38.85,2.02.23.35.44.78.87.92.03-.36-.28-.58-.46-.83-.36-.41-.55-.93-.74-1.43-.11-.26-.2-.59-.51-.66ZM16.26,9.18c.26.59.56,1.16.94,1.69.1.21.32.24.53.28-.22-.81-.86-1.42-1.46-1.97ZM11.24,10.52c.17.56.49,1.07.6,1.66.1.43.18.9.51,1.23.17.15.4-.14.28-.31-.24-.59-.69-1.06-.86-1.68-.15-.3-.17-.75-.52-.9ZM14.19,10.58c.06.43.18.98.67,1.11.05-.45-.2-1.01-.67-1.11ZM12.94,11.2c.06.37.01,1.09.6.96-.11-.34-.1-1.01-.6-.96Z"/>
      <path class="cls-6" d="M4.95,1.84c.25-.34.63-.55,1.03-.66.4.16.68.49.99.77-.22.32-.55.73-.99.59-.36-.2-.68-.48-1.03-.7Z"/>
      <path class="cls-6" d="M6.44,3.16c.08,0,.23-.02.31-.03,0,.42,0,.85.02,1.27-.09,0-.26,0-.34-.01.01-.41.02-.82.01-1.24Z"/>
      <path class="cls-4" d="M16.67,13.13c1.55-.96,3.03-2.01,4.62-2.91.01,2.44.02,4.88,0,7.33-1.71,1.11-3.46,2.16-5.21,3.19-.02-1.46,0-2.92-.01-4.38.01-.41-.46-1-.87-.66-.62.39-1.42.74-1.65,1.5-.05,1.72,0,3.45-.04,5.18-.79.5-1.59,1-2.32,1.59-.01-2.69-.02-5.37-.01-8.06.63.07,1.16-.34,1.69-.61,1.26-.74,2.58-1.38,3.81-2.17ZM19.08,12.88c-.74.44-1.49.93-1.98,1.65.09.66.02,1.34.15,2,.09.34-.05.83.31,1.03.48.11.96-.11,1.38-.31.46-.24,1.03-.46,1.18-1.01.32-1.11.15-2.28.01-3.4-.28-.35-.74-.14-1.06.04ZM11.92,17.21c.02.44-.05.93.2,1.32,0-.44.12-.96-.2-1.32ZM12.29,21.39c.24-.13.27-.42.26-.66-.41.01-.26.4-.26.66Z"/>
    </g>
  </g>
</svg>