<?xml version="1.0" encoding="UTF-8"?>
<svg id="Layer_2" data-name="Layer 2" xmlns="http://www.w3.org/2000/svg" viewBox="0 0 26.8 32.12">
  <defs>
    <style>
      .cls-1 {
        fill: #bfa179;
      }

      .cls-2 {
        fill: #010101;
      }

      .cls-3 {
        fill: #68523b;
      }

      .cls-4 {
        fill: #fff;
      }

      .cls-5 {
        fill: #c9d0d0;
      }

      .cls-6 {
        fill: #cc6526;
      }
    </style>
  </defs>
  <g id="Réteg_1" data-name="Réteg 1">
    <g>
      <path class="cls-2" d="M19.53.54c-.12-.23-.36-.2-.57-.21-.17-.19-.34-.41-.62-.29-1.66.41-3.15,1.28-4.58,2.19-2.01.99-3.89,2.2-5.69,3.52-.86.96-2.09,1.48-3.03,2.37-1.47,1.33-2.83,2.9-4.68,3.69-.5-.01-.39.58-.17.85.26.37.76.19,1.14.19.02.13.05.38.06.51-.25.57-.11,1.21-.14,1.82-.03,3.08.06,6.16-.03,9.23,1.39.97,2.91,1.76,4.27,2.79,1.39,1.02,2.81,2,4.22,2.99.99.67,1.91,1.5,3.07,1.88.59.22,1.15-.23,1.68-.44,1.35-.76,2.67-1.56,3.96-2.41,1.56-1.05,3.21-1.97,4.71-3.1.67.12,1.04-.46,1.28-.97.63-.48,1.31-.9,1.91-1.43.02-.1.05-.31.06-.42-.08-.05-.24-.14-.32-.19,0-3.06-.01-6.12.02-9.18.28-.18.75-.33.72-.75-.03-.52-.2-1.04-.44-1.5-.95-1.68-1.75-3.45-2.81-5.07-1.35-2.01-2.51-4.16-4.02-6.06Z"/>
      <path class="cls-2" d="M13.75,2.22c1.43-.91,2.92-1.78,4.58-2.19.28-.12.46.11.62.29.21.01.46-.02.57.21,1.51,1.9,2.67,4.05,4.02,6.06,1.06,1.62,1.86,3.39,2.81,5.07.24.46.41.98.44,1.5.03.42-.44.56-.72.75-.04,3.06-.02,6.12-.02,9.18.08.05.24.14.32.19-.02.1-.05.31-.06.42-.6.53-1.27.95-1.91,1.43-.43.32-.85.65-1.28.97-1.5,1.13-3.15,2.05-4.71,3.1-1.29.86-2.62,1.65-3.96,2.41-.53.22-1.09.67-1.68.44-1.16-.38-2.07-1.21-3.07-1.88-1.41-.99-2.83-1.97-4.22-2.99-1.35-1.03-2.88-1.82-4.27-2.79.09-3.07,0-6.16.03-9.23.03-.61-.11-1.25.14-1.82-.02-.13-.05-.38-.06-.51-.38,0-.88.18-1.14-.19-.22-.27-.33-.86.17-.85,1.85-.79,3.21-2.36,4.68-3.69.94-.88,2.17-1.41,3.03-2.37,1.8-1.32,3.68-2.54,5.69-3.52ZM18.32.77c-1.46.4-2.81,1.14-4.08,1.96-1.05.57-2.12,1.12-3.13,1.76-1.04.59-1.93,1.41-2.98,1.99.06.23.12.45.18.68.48-.28.88-.65,1.35-.95.79-.51,1.69-.86,2.44-1.44,1.68-1.25,3.79-1.78,5.39-3.14.43-.32.86-.69,1.42-.78,0-.09,0-.26,0-.34-.19.11-.39.22-.6.28ZM19.07,1.1c-.62.59-1.37,1.03-2.06,1.53-1.4.81-2.91,1.42-4.3,2.26-1.38.92-2.9,1.59-4.25,2.54.56,1.05.82,2.23,1.4,3.27.48,1.29,1.06,2.57,1.84,3.71.52.8.88,1.68,1.33,2.52.51,1.06,1.3,2.01,1.42,3.23,2.57-1.33,5.17-2.65,7.53-4.34,1.26-.94,2.56-1.83,3.93-2.6.34-.13.1-.49.03-.73-.6-1.21-1.22-2.4-1.86-3.59-.91-1.72-2.06-3.3-3.06-4.97-.59-.99-1.26-1.92-1.96-2.84ZM7.13,7.35c-.57.38-1.16.75-1.64,1.24-.54.57-1.24.98-1.74,1.6-.5.6-1.22.93-1.75,1.49.84-.12,1.4-.84,2.02-1.36.9-.8,1.91-1.47,2.83-2.25.31-.29.86-.43.88-.93-.21.02-.42.08-.59.21ZM6.24,9.35c.9.5,1.9.78,2.81,1.27-.43-.81-.6-1.71-1.02-2.52-.65.34-1.15.9-1.79,1.26ZM5.1,10.15c.76.5,1.63.82,2.46,1.19.81.26,1.47.82,2.24,1.15-.06-.17-.12-.34-.18-.51-.17-.54-.77-.73-1.21-1-.92-.4-1.88-.73-2.73-1.27-.2.14-.39.29-.58.44ZM2.52,12.09c.8.56,1.74.87,2.58,1.36.68.35,1.3.82,1.96,1.21,1.05.62,1.94,1.47,3.03,2.02,1.26.64,2.34,1.58,3.36,2.55-.6-1.05-1.2-2.1-1.69-3.21-.4-.85-.94-1.62-1.4-2.44-1.13-.6-2.17-1.37-3.36-1.85-.76-.41-1.6-.69-2.32-1.17-.69.55-1.38,1.1-2.15,1.54ZM1.96,12.6c0,.14,0,.43.01.58.6.61,1.38,1.03,2.08,1.52,3.12,1.86,5.87,4.27,9,6.11.44.28.62-.45.32-.69-.53-.58-1.06-1.17-1.66-1.69-1.02-.9-2.35-1.32-3.41-2.16-1.95-1.48-4.1-2.71-6.35-3.68ZM1.96,14.04c0,3.29,0,6.58-.03,9.86-.03.3.35.35.54.5-.04-3.33.07-6.67-.01-10-.17-.12-.33-.25-.49-.36ZM23.15,15.82c.13.96,0,1.93,0,2.9,0,2.15,0,4.29,0,6.44.7-.55,1.44-1.05,2.15-1.59-.05-3.06-.02-6.12-.03-9.18-.72.46-1.45.9-2.12,1.43ZM2.92,14.7c-.14,1.33.01,2.67-.02,4,0,2,.02,3.99.04,5.99.07.04.2.11.26.14-.07-3.32-.12-6.63-.04-9.95-.06-.05-.18-.14-.24-.19ZM3.59,15.19c0,.51,0,1.03,0,1.55.93.52,1.65,1.35,2.51,1.98,0-.62-.01-1.24.04-1.86-.84-.58-1.66-1.18-2.55-1.67ZM21.95,16.68c.02,3.14.02,6.28,0,9.43.25-.17.5-.35.74-.53,0-3.12,0-6.24-.05-9.36-.23.15-.46.31-.69.46ZM6.6,17.17c-.02,2.48-.05,4.95-.05,7.43-.03.78.13,1.58-.11,2.34.25.17.51.33.76.5.02-3.3,0-6.59.02-9.89-.21-.13-.41-.26-.61-.38ZM18.84,18.6c0,.47,0,.94.01,1.41.97-.35,1.66-1.14,2.54-1.62,0-.44,0-.89,0-1.33-.83.55-1.68,1.07-2.56,1.54ZM3.55,17.33c.06.78.03,1.56.03,2.34.3.06.6.13.91.2-.03-.55-.03-1.11.13-1.64-.37-.28-.72-.58-1.06-.9ZM7.68,17.95c0,.51,0,1.02,0,1.53.09.02.28.06.38.08.61.52,1.15,1.13,1.89,1.49-.09-.55.28-1.36-.33-1.69-.66-.44-1.27-.96-1.92-1.41ZM4.91,18.53c-.01.55,0,1.1.01,1.65.4.21.79.44,1.18.66,0-.37.04-.74,0-1.11-.29-.49-.76-.84-1.19-1.2ZM17.79,19.54c-.03,3.08-.05,6.17,0,9.25.17-.11.34-.22.52-.33-.03-3.18.01-6.37-.08-9.55-.28.09-.49.32-.43.62ZM20.08,20.04c.02.64.04,1.28.04,1.92.41-.27.79-.61,1.28-.74.01-.72.01-1.45,0-2.17-.45.31-.93.6-1.32.99ZM14.15,21.05c-.07.32-.09.67-.34.91-.04,3.11.02,6.22-.07,9.33,1.17-.68,2.32-1.38,3.46-2.11-.01-3.23.01-6.46-.02-9.68-1,.54-2,1.09-3.03,1.55ZM10.47,20.02c-.04,3.25.03,6.5-.02,9.74.2.14.41.28.62.41-.06-1.36.03-2.71,0-4.07.03-1.82-.07-3.64.04-5.45.29-.07.48.12.45.4,0,2.46-.03,4.93,0,7.39,0,.69.14,1.38-.01,2.07.41.27.84.53,1.29.75.16-.12.24-.27.24-.46-.03-3.07-.05-6.13-.02-9.2-.7-.31-1.27-.82-1.92-1.22-.18-.18-.43-.26-.65-.37ZM3.58,20.21c0,.59,0,1.17,0,1.76.29.01.56.09.81.22.08-.54.09-1.09.05-1.64-.28-.12-.57-.24-.86-.34ZM8.21,20.43c-.15.23-.23.57-.55.6-.05,2.03.09,4.06-.02,6.09-.05.25.09.47.2.68-.08-1.4.14-2.79.13-4.19-.22-.74-.43-1.53-.21-2.29.14-.3.43-.53.45-.89ZM18.84,20.57c0,.68.01,1.35.01,2.03.28-.13.57-.26.85-.39.02-.65.02-1.31-.1-1.95-.26.1-.51.21-.77.31ZM8.11,28.12c.07.04.19.12.26.16-.02-.33-.04-.66-.02-.98.14-1.97.24-3.94.43-5.9.07-.26-.04-.51-.27-.64-.06,2.46-.32,4.91-.4,7.36ZM4.92,20.88c0,.52-.07,1.03-.09,1.55.33.46.86.75,1.35,1.03-.08-.72-.07-1.45-.08-2.17-.45.08-.81-.22-1.18-.41ZM9.31,21.53c-.31,1.89-.39,3.83-.28,5.75.04.36-.1.69-.22,1.01-.13.31.21.41.4.56.05-1.43.22-2.85.17-4.28-.03-1.02.07-2.04-.07-3.05ZM9.81,21.56c0,.13.01.39.02.53.29,1.66.19,3.36,0,5.02.06.71-.17,1.4-.19,2.11.12.06.24.13.37.19-.1-2.57.11-5.14-.03-7.72-.04-.03-.13-.1-.17-.13ZM20.1,22.54c0,.51,0,1.03,0,1.54.43-.24.79-.65,1.31-.71-.01-.58-.01-1.15-.03-1.73-.44.28-.86.59-1.29.89ZM3.59,22.47c-.03.86-.04,1.72-.03,2.58.87.53,1.74,1.06,2.56,1.67-.02-.88,0-1.75-.01-2.63-1.01-.26-1.66-1.11-2.53-1.62ZM18.87,23.02c0,.64,0,1.29-.02,1.93.32-.19.63-.38.94-.58-.08-.54-.08-1.08-.05-1.62-.29.1-.58.19-.87.27ZM18.89,25.39c0,.9,0,1.8,0,2.7.83-.56,1.72-1.03,2.52-1.64-.02-.84,0-1.69-.01-2.53-.81.52-1.57,1.18-2.51,1.47Z"/>
      <path class="cls-2" d="M15.15,6.11c.58-.63,1.33-1.16,2.16-1.36.73.03,1.17.77,1.58,1.3.28.33.11.73-.02,1.08,0,1.35,0,2.7,0,4.04-.03.25.07.62-.22.75-.41,0-.34-.46-.36-.75,0-1.26,0-2.52,0-3.77-.32.15-.63.29-.95.44,0,1.57,0,3.14,0,4.71.42-.15.79-.39,1.16-.63.19.17.34.49.03.64-.57.38-1.21.79-1.92.75-.83-.35-.93-1.38-1.5-1.99-.08-1.12,0-2.24-.03-3.36.02-.62-.07-1.24.05-1.85ZM15.96,6.11c.28.3.59.57.82.91.17.05.35.11.53.16.41-.19.8-.41,1.16-.69-.31-.39-.6-.8-1-1.11-.56-.02-1.11.34-1.5.72ZM15.67,6.77c.03,1.44,0,2.89.04,4.33.26.58.65,1.1,1.04,1.6-.03-1.61.02-3.21,0-4.82-.42-.31-.71-.75-1.08-1.12Z"/>
      <path class="cls-2" d="M19.52,4.79c.5.16.75.69.93,1.14-.46-.21-.64-.75-.93-1.14Z"/>
      <path class="cls-2" d="M22.05,7.35c.51-.21.63.45.61.81-.4-.08-.49-.48-.61-.81Z"/>
      <path class="cls-2" d="M10.37,8.29c-.11-.3.25-.35.38-.16.33.36.67.75.73,1.25-.53-.16-.85-.64-1.11-1.1Z"/>
      <path class="cls-2" d="M12.45,9.1c.43.13.46.79.19,1.09-.11-.36-.16-.73-.19-1.09Z"/>
      <path class="cls-2" d="M21.15,9.32c.38-.08.56.3.75.56.18.25.29.53.32.84-.48-.36-.76-.9-1.08-1.4Z"/>
      <path class="cls-2" d="M23.54,10.12c.52.57,1.01,1.28,1.12,2.05-.34-.1-.46-.44-.62-.71-.23-.42-.53-.84-.5-1.34Z"/>
      <path class="cls-2" d="M10.93,10.63c.57.45.62,1.26,1.12,1.79.19.14.26.65-.12.48-.47-.68-.84-1.46-.99-2.27Z"/>
      <path class="cls-2" d="M19.83,11.64c.18.04.3.14.37.31.53,1.06,1.46,1.91,1.81,3.06-.2,0-.35-.07-.44-.22-.35-.51-.57-1.1-.92-1.62-.33-.48-.65-.97-.83-1.53Z"/>
      <path class="cls-2" d="M21.42,12.41c.61.34.95.98,1.35,1.52.25.2.11.64-.23.39-.46-.57-.99-1.19-1.13-1.91Z"/>
      <path class="cls-2" d="M23.24,12.53c.49.19.88.67.98,1.19-.59-.04-.84-.7-.98-1.19Z"/>
      <path class="cls-2" d="M15.34,13.56c.56-.03.68.68.75,1.11-.47-.15-.67-.66-.75-1.11Z"/>
      <path class="cls-2" d="M19.68,14.57c.07,0,.2-.02.27-.03.29.41.68.81.7,1.34-.53-.23-.77-.81-.97-1.31Z"/>
      <path class="cls-2" d="M18.52,15.19c.5.3.83.83,1.11,1.32-.2.29-.45-.08-.58-.23-.25-.32-.53-.67-.53-1.09Z"/>
      <path class="cls-2" d="M15.38,15.96c.56.12.81.76,1.19,1.14.25.19.12.58-.2.37-.42-.43-.8-.94-.99-1.52Z"/>
      <path class="cls-2" d="M14.34,17.16c-.15-.37-.49-.75-.27-1.16.49.85.93,1.73,1.41,2.58-.01.08-.03.23-.05.3-.51-.47-.76-1.14-1.09-1.73Z"/>
      <path class="cls-5" d="M6.24,9.35c.64-.36,1.14-.91,1.79-1.26.42.81.59,1.72,1.02,2.52-.91-.49-1.91-.77-2.81-1.27Z"/>
      <path class="cls-5" d="M2.52,12.09c.77-.43,1.46-.99,2.15-1.54.72.49,1.56.76,2.32,1.17,1.19.49,2.23,1.25,3.36,1.85.46.82,1,1.59,1.4,2.44.49,1.1,1.09,2.16,1.69,3.21-1.02-.97-2.1-1.9-3.36-2.55-1.09-.55-1.98-1.4-3.03-2.02-.66-.4-1.28-.86-1.96-1.21-.84-.49-1.78-.8-2.58-1.36Z"/>
      <path class="cls-5" d="M1.96,14.04c.16.12.33.24.49.36.08,3.33-.02,6.67.01,10-.19-.15-.56-.2-.54-.5.04-3.29.04-6.58.03-9.86Z"/>
      <path class="cls-5" d="M3.59,15.19c.89.49,1.71,1.1,2.55,1.67-.05.62-.04,1.24-.04,1.86-.85-.64-1.58-1.46-2.51-1.98,0-.52,0-1.03,0-1.55Z"/>
      <path class="cls-5" d="M7.68,17.95c.65.45,1.26.97,1.92,1.41.61.33.24,1.14.33,1.69-.73-.36-1.28-.97-1.89-1.49-.09-.02-.28-.06-.38-.08,0-.51,0-1.02,0-1.53Z"/>
      <path class="cls-5" d="M11.12,20.39c.64.4,1.22.91,1.92,1.22-.02,3.07,0,6.13.02,9.2,0,.18-.08.34-.24.46-.45-.22-.87-.48-1.29-.75.16-.68,0-1.38.01-2.07-.02-2.46,0-4.93,0-7.39.03-.29-.16-.47-.45-.4,0-.07,0-.2.01-.27Z"/>
      <path class="cls-5" d="M3.59,22.47c.87.51,1.51,1.36,2.53,1.62,0,.88,0,1.75.01,2.63-.82-.61-1.69-1.14-2.56-1.67-.01-.86,0-1.72.03-2.58Z"/>
      <path class="cls-1" d="M21.95,16.68c.23-.15.46-.31.69-.46.05,3.12.04,6.24.05,9.36-.24.18-.49.36-.74.53.02-3.14.02-6.28,0-9.43Z"/>
      <path class="cls-1" d="M17.79,19.54c-.06-.31.15-.54.43-.62.09,3.18.05,6.36.08,9.55-.17.11-.35.22-.52.33-.05-3.08-.02-6.17,0-9.25Z"/>
      <path class="cls-1" d="M20.08,20.04c.39-.39.87-.68,1.32-.99,0,.72,0,1.44,0,2.17-.49.13-.86.47-1.28.74,0-.64-.02-1.28-.04-1.92Z"/>
      <path class="cls-1" d="M18.84,20.57c.26-.1.51-.21.77-.31.11.64.12,1.3.1,1.95-.29.13-.57.26-.85.39,0-.68-.02-1.36-.01-2.03Z"/>
      <path class="cls-1" d="M20.1,22.54c.43-.3.85-.61,1.29-.89.01.57.02,1.15.03,1.73-.52.06-.88.46-1.31.71,0-.52,0-1.03,0-1.54Z"/>
      <path class="cls-1" d="M18.87,23.02c.29-.08.58-.17.87-.27-.03.54-.03,1.08.05,1.62-.31.2-.62.39-.94.58.02-.64.02-1.29.02-1.93Z"/>
      <path class="cls-3" d="M15.67,6.77c.36.37.65.81,1.08,1.12.02,1.61-.03,3.21,0,4.82-.39-.5-.79-1.02-1.04-1.6-.04-1.44,0-2.89-.04-4.33Z"/>
      <path class="cls-3" d="M7.13,7.35c.17-.13.38-.19.59-.21-.02.5-.57.64-.88.93-.92.78-1.93,1.44-2.83,2.25-.62.51-1.18,1.24-2.02,1.36.54-.55,1.26-.89,1.75-1.49.5-.62,1.2-1.02,1.74-1.6.48-.49,1.07-.86,1.64-1.24Z"/>
      <path class="cls-3" d="M5.1,10.15c.19-.15.38-.3.58-.44.85.54,1.81.87,2.73,1.27.43.28,1.04.46,1.21,1,.06.17.12.34.18.51-.78-.33-1.44-.89-2.24-1.15-.83-.38-1.7-.69-2.46-1.19Z"/>
      <path class="cls-3" d="M1.96,12.6c2.25.97,4.39,2.19,6.35,3.68,1.06.84,2.39,1.26,3.41,2.16.59.52,1.13,1.1,1.66,1.69.31.24.12.97-.32.69-3.13-1.83-5.88-4.25-9-6.11-.7-.49-1.48-.91-2.08-1.52,0-.14,0-.43-.01-.58Z"/>
      <path class="cls-3" d="M2.92,14.7c.06.05.18.14.24.19-.07,3.32-.02,6.63.04,9.95-.07-.04-.2-.11-.26-.14-.02-2-.03-3.99-.04-5.99.03-1.34-.13-2.67.02-4Z"/>
      <path class="cls-3" d="M6.6,17.17c.2.13.41.26.61.38-.02,3.3,0,6.59-.02,9.89-.26-.17-.51-.33-.76-.5.24-.76.09-1.56.11-2.34,0-2.48.04-4.95.05-7.43Z"/>
      <path class="cls-3" d="M3.55,17.33c.34.31.69.61,1.06.9-.15.53-.16,1.09-.13,1.64-.3-.07-.61-.13-.91-.2,0-.78.03-1.56-.03-2.34Z"/>
      <path class="cls-3" d="M4.91,18.53c.43.36.9.71,1.19,1.2.04.37.01.74,0,1.11-.39-.23-.78-.45-1.18-.66-.02-.55-.02-1.1-.01-1.65Z"/>
      <path class="cls-3" d="M10.47,20.02c.22.1.47.19.65.37,0,.07,0,.2-.01.27-.11,1.81,0,3.63-.04,5.45.03,1.36-.06,2.71,0,4.07-.21-.14-.41-.28-.62-.41.05-3.25-.02-6.49.02-9.74Z"/>
      <path class="cls-3" d="M3.58,20.21c.29.1.57.22.86.34.04.55.02,1.09-.05,1.64-.26-.13-.53-.21-.81-.22,0-.59,0-1.17,0-1.76Z"/>
      <path class="cls-3" d="M8.21,20.43c-.03.35-.31.58-.45.89-.23.76-.01,1.55.21,2.29.01,1.4-.2,2.79-.13,4.19-.11-.21-.25-.43-.2-.68.11-2.03-.03-4.06.02-6.09.32-.03.4-.37.55-.6Z"/>
      <path class="cls-3" d="M8.11,28.12c.08-2.46.34-4.91.4-7.36.22.14.33.38.27.64-.19,1.96-.29,3.93-.43,5.9-.02.33,0,.66.02.98-.07-.04-.19-.12-.26-.16Z"/>
      <path class="cls-3" d="M4.92,20.88c.37.19.74.48,1.18.41.01.73,0,1.45.08,2.17-.49-.28-1.03-.57-1.35-1.03.02-.52.08-1.03.09-1.55Z"/>
      <path class="cls-3" d="M9.31,21.53c.14,1.01.04,2.03.07,3.05.05,1.43-.12,2.85-.17,4.28-.19-.15-.53-.26-.4-.56.12-.33.26-.66.22-1.01-.11-1.92-.03-3.86.28-5.75Z"/>
      <path class="cls-3" d="M9.81,21.56s.13.1.17.13c.13,2.57-.07,5.15.03,7.72-.13-.07-.25-.13-.37-.19.02-.71.25-1.39.19-2.11.19-1.66.29-3.36,0-5.02,0-.13-.01-.39-.02-.53Z"/>
      <path class="cls-6" d="M18.32.77c.21-.06.41-.16.6-.28,0,.09,0,.26,0,.34-.55.1-.98.46-1.42.78-1.61,1.36-3.71,1.89-5.39,3.14-.75.58-1.65.93-2.44,1.44-.47.29-.87.67-1.35.95-.06-.23-.12-.45-.18-.68,1.05-.58,1.94-1.4,2.98-1.99,1.02-.63,2.08-1.19,3.13-1.76,1.27-.82,2.61-1.55,4.08-1.96Z"/>
      <path class="cls-6" d="M19.07,1.1c.7.91,1.37,1.85,1.96,2.84,1,1.67,2.15,3.24,3.06,4.97.64,1.19,1.26,2.38,1.86,3.59.07.23.3.6-.03.73-1.37.77-2.67,1.66-3.93,2.6-2.36,1.69-4.96,3.01-7.53,4.34-.12-1.21-.91-2.16-1.42-3.23-.44-.84-.81-1.72-1.33-2.52-.78-1.15-1.36-2.42-1.84-3.71-.58-1.04-.84-2.22-1.4-3.27,1.36-.95,2.88-1.63,4.25-2.54,1.39-.84,2.89-1.45,4.3-2.26.69-.51,1.44-.94,2.06-1.53ZM15.15,6.11c-.12.61-.03,1.24-.05,1.85.02,1.12-.05,2.25.03,3.36.58.6.68,1.63,1.5,1.99.71.04,1.35-.37,1.92-.75.31-.15.16-.47-.03-.64-.37.24-.75.48-1.16.63,0-1.57,0-3.14,0-4.71.31-.14.63-.29.95-.44,0,1.26,0,2.51,0,3.77.02.28-.05.74.36.75.29-.13.19-.5.22-.75,0-1.35,0-2.7,0-4.04.13-.35.3-.75.02-1.08-.41-.52-.84-1.26-1.58-1.3-.84.2-1.59.73-2.16,1.36ZM19.52,4.79c.29.38.47.93.93,1.14-.19-.45-.44-.98-.93-1.14ZM22.05,7.35c.12.33.21.73.61.81.02-.36-.1-1.02-.61-.81ZM10.37,8.29c.26.45.58.94,1.11,1.1-.06-.5-.4-.9-.73-1.25-.13-.19-.49-.14-.38.16ZM12.45,9.1c.03.37.08.74.19,1.09.27-.3.25-.96-.19-1.09ZM21.15,9.32c.32.49.6,1.04,1.08,1.4-.04-.31-.14-.59-.32-.84-.19-.26-.37-.64-.75-.56ZM23.54,10.12c-.03.5.28.92.5,1.34.16.27.28.61.62.71-.11-.77-.6-1.48-1.12-2.05ZM10.93,10.63c.15.81.53,1.59.99,2.27.38.17.31-.34.12-.48-.49-.53-.54-1.34-1.12-1.79ZM19.83,11.64c.17.56.5,1.05.83,1.53.35.51.56,1.11.92,1.62.1.16.24.23.44.22-.35-1.15-1.28-2-1.81-3.06-.07-.17-.19-.28-.37-.31ZM21.42,12.41c.14.73.67,1.35,1.13,1.91.34.24.48-.19.23-.39-.4-.54-.75-1.18-1.35-1.52ZM23.24,12.53c.14.49.38,1.15.98,1.19-.1-.52-.49-1-.98-1.19ZM15.34,13.56c.08.45.28.95.75,1.11-.07-.43-.19-1.14-.75-1.11ZM19.68,14.57c.2.5.44,1.08.97,1.31-.03-.53-.41-.93-.7-1.34-.07,0-.2.02-.27.03ZM18.52,15.19c0,.43.28.77.53,1.09.13.15.38.52.58.23-.28-.5-.61-1.03-1.11-1.32ZM15.38,15.96c.19.58.57,1.08.99,1.52.32.21.44-.19.2-.37-.38-.39-.63-1.02-1.19-1.14ZM14.34,17.16c.33.59.59,1.25,1.09,1.73.01-.08.03-.23.05-.3-.48-.85-.92-1.73-1.41-2.58-.22.41.11.79.27,1.16Z"/>
      <path class="cls-6" d="M15.96,6.11c.39-.38.94-.75,1.5-.72.4.3.69.72,1,1.11-.35.28-.75.5-1.16.69-.18-.06-.35-.11-.53-.16-.23-.34-.54-.62-.82-.91Z"/>
      <path class="cls-4" d="M23.15,15.82c.67-.53,1.4-.97,2.12-1.43,0,3.06-.02,6.12.03,9.18-.71.54-1.45,1.03-2.15,1.59,0-2.15,0-4.29,0-6.44,0-.97.13-1.94,0-2.9Z"/>
      <path class="cls-4" d="M18.84,18.6c.88-.47,1.73-.99,2.56-1.54,0,.44,0,.89,0,1.33-.89.49-1.58,1.27-2.54,1.62-.02-.47-.02-.94-.01-1.41Z"/>
      <path class="cls-4" d="M14.15,21.05c1.04-.46,2.03-1.01,3.03-1.55.03,3.23,0,6.46.02,9.68-1.14.72-2.3,1.43-3.46,2.11.1-3.11.04-6.22.07-9.33.25-.24.27-.59.34-.91Z"/>
      <path class="cls-4" d="M18.89,25.39c.94-.29,1.7-.95,2.51-1.47,0,.84,0,1.69.01,2.53-.8.61-1.69,1.07-2.52,1.64,0-.9,0-1.8,0-2.7Z"/>
      <path class="cls-4" d="M23.12,26.1c.43-.32.85-.65,1.28-.97-.24.51-.62,1.09-1.28.97Z"/>
    </g>
  </g>
</svg>