<?xml version="1.0" encoding="UTF-8"?>
<svg id="Layer_2" data-name="Layer 2" xmlns="http://www.w3.org/2000/svg" viewBox="0 0 48.59 57.95">
  <defs>
    <style>
      .cls-1 {
        fill: #bfa179;
      }

      .cls-2 {
        fill: #010101;
      }

      .cls-3 {
        fill: #68523b;
      }

      .cls-4 {
        fill: #9c4714;
      }

      .cls-5 {
        fill: #fff;
      }

      .cls-6 {
        fill: #909b9b;
      }

      .cls-7 {
        fill: #c9d0d0;
      }

      .cls-8 {
        fill: #cc6526;
      }
    </style>
  </defs>
  <g id="Réteg_1" data-name="Réteg 1">
    <g>
      <path class="cls-2" d="M0,24.13c.17.3.46.27.74.17.29.21.58.42.87.63,0,4.5-.05,9,.03,13.49-.19.22-.37.91,0,1.06-.15,2.75-.05,5.52-.09,8.27-.04.51.07,1.02.32,1.47,2.71,1.85,5.36,3.86,8.39,5.19.88.45,1.8.87,2.61,1.45.76.53,1.61.93,2.29,1.57.27.22.52.58.92.52.43.05.68-.38,1.01-.58,2.11-1.46,4.38-2.67,6.51-4.09,1.39-.83,2.77-1.68,4.11-2.59.12.01.37.03.49.04.36-.59.16-1.3.2-1.94.05-2.13-.12-4.26.11-6.38.11-.25.21-.5.32-.74,2.29,1.4,4.43,3.08,6.9,4.16.51-.08.92-.46,1.37-.7,1.66-1.09,3.41-2.05,5.06-3.17,1.12-.78,2.24-1.58,3.41-2.29.71-.36,1.11-1.16,1.96-1.27.13-1.34.02-2.7.06-4.05,0-2.25.04-4.49,0-6.73.05-.28-.2-.42-.36-.59.14-.4,0-.78-.33-1.01,0-3.08-.04-6.15-.01-9.22.56-.42,1.28-.64,1.69-1.23-.53-.73-.73-1.65-1.26-2.38-1.37-2.27-3.07-4.32-4.6-6.48-.89-1.13-1.62-2.39-2.67-3.38-.91-.88-1.72-1.84-2.55-2.79-.11-.19-.13-.58-.44-.51-.91.42-1.78.94-2.65,1.44-1.67.91-3.45,1.64-5.03,2.71-1.5.84-3.06,1.59-4.52,2.51-1.7,1.07-3.57,1.85-5.34,2.79.11-1.36.04-2.74.01-4.1-.72-.16-1.06-1.13-1.87-.96-.92.31-1.6,1.05-2.4,1.57-.13,1.43.05,2.87-.17,4.29-.04,0-.13,0-.17,0-1.15-.71-2.23-1.53-3.31-2.35-.29-.25-.75-.32-1.06-.07-.54.4-.74,1.07-1.08,1.62-1.42,2.27-2.84,4.54-4.26,6.81-.54.66-.96,1.4-1.38,2.14-1,1.42-1.87,2.94-2.93,4.32-.34.45-.66.91-.92,1.41Z"/>
      <path class="cls-2" d="M34.42,1.45c.87-.5,1.74-1.01,2.65-1.44.31-.08.33.32.44.51.83.95,1.64,1.91,2.55,2.79,1.05.99,1.78,2.25,2.67,3.38,1.53,2.16,3.23,4.21,4.6,6.48.53.73.72,1.65,1.26,2.38-.41.59-1.14.81-1.69,1.23-.02,3.08.01,6.15.01,9.22.34.23.47.61.33,1.01.16.17.41.32.36.59.04,2.24,0,4.49,0,6.73-.04,1.35.07,2.7-.06,4.05-.85.11-1.25.91-1.96,1.27-1.17.71-2.29,1.51-3.41,2.29-1.65,1.13-3.39,2.08-5.06,3.17-.45.25-.86.63-1.37.7-2.47-1.08-4.62-2.76-6.9-4.16-.09-.13-.17-.27-.24-.4-.04.38-.08.76-.08,1.15-.23,2.11-.06,4.25-.11,6.38-.05.65.15,1.36-.2,1.94-.12-.01-.36-.03-.49-.04-1.34.91-2.72,1.77-4.11,2.59-2.14,1.42-4.4,2.64-6.51,4.09-.33.2-.58.63-1.01.58-.4.06-.64-.3-.92-.52-.68-.64-1.53-1.03-2.29-1.57-.81-.58-1.72-1-2.61-1.45-3.02-1.33-5.68-3.34-8.39-5.19-.25-.45-.36-.96-.32-1.47.04-2.76-.05-5.52.09-8.27.07-.35.06-.71,0-1.06-.09-4.49-.04-9-.03-13.49-.29-.21-.59-.42-.87-.63-.28.09-.57.12-.74-.17.26-.5.58-.96.92-1.41,1.06-1.38,1.93-2.9,2.93-4.32.43-.73.85-1.47,1.38-2.14,1.42-2.27,2.84-4.54,4.26-6.81.35-.54.55-1.22,1.08-1.62.31-.24.77-.17,1.06.07,1.07.82,2.15,1.64,3.31,2.35.04,0,.13,0,.17,0,.22-1.42.03-2.86.17-4.29.8-.52,1.48-1.26,2.4-1.57.81-.17,1.15.79,1.87.96.03,1.37.1,2.74-.01,4.1,1.77-.95,3.63-1.72,5.34-2.79,1.46-.93,3.02-1.67,4.52-2.51,1.58-1.07,3.36-1.8,5.03-2.71ZM30.93,4.02c-.83.44-1.53,1.09-2.41,1.45-1.62.7-3.06,1.75-4.6,2.6-2.31,1.23-4.69,2.34-7.06,3.46.17.14.35.28.53.42,1.47-.62,2.9-1.34,4.33-2.06,3.36-1.89,6.75-3.75,10.25-5.37,1.83-1.02,3.68-2.02,5.62-2.83-.16-.32-.35-.62-.54-.91-1.97,1.21-4.08,2.15-6.12,3.24ZM35.09,3.48c-1.27.59-2.44,1.4-3.73,1.95-1.84.89-3.66,1.81-5.46,2.77-1.25.82-2.67,1.34-3.94,2.11-1.33.67-2.66,1.35-4.04,1.92.61.36,1.24.68,1.88.99.07-.04.21-.1.28-.14.64.73,1.57,1.07,2.32,1.67.7.36.99,1.14,1.56,1.65-.05-.24-.09-.47-.12-.71.51.32.39.97.54,1.46.24.6.64,1.13,1.01,1.66,1.14,1.82,2.7,3.35,3.82,5.19,1.23-.71,2.44-1.45,3.72-2.07,1.57-.86,3.23-1.53,4.76-2.47,2.92-1.72,5.85-3.44,8.81-5.1.21-.1.43-.13.67-.08-1.84-3.16-4.24-5.94-6.27-8.96-.96-1.13-1.93-2.26-2.94-3.35-.95.51-1.92.98-2.86,1.5ZM16.15,5.69c-.18.14-.49.27-.35.55.25.2.54.33.82.48.77-.51,1.66-.79,2.41-1.33-.37-.16-.72-.35-1.11-.48-.64.13-1.22.46-1.78.79ZM16.9,6.98c.08,1.22.02,2.44.05,3.66.56-.26,1.13-.51,1.69-.79-.05-1.21.05-2.42,0-3.63-.57.27-1.12.61-1.74.76ZM15.78,6.78c-.02,1.36.06,2.71-.05,4.07.18.09.37.17.56.25.03-1.34-.02-2.68.03-4.02-.18-.1-.36-.2-.55-.3ZM9.62,10.55c-1.25,2-2.5,4-3.75,6-.46.62-.89,1.26-1.26,1.94-1.17,1.69-2.24,3.45-3.47,5.1,2.34,1.61,4.89,2.87,7.41,4.16,1.34.75,2.45,1.86,3.84,2.54.94.48,1.76,1.16,2.58,1.82.05-.59.32-1.12.57-1.64,1.14-2.44,2.52-4.76,3.64-7.22.44-1.41,1.24-2.66,1.76-4.04.48-1.2,1.14-2.34,1.34-3.63-.81-.56-1.64-1.11-2.54-1.52-1.28-.56-2.53-1.22-3.67-2.03-1.74-1.14-3.46-2.32-5.07-3.64-.7.55-.81,1.5-1.38,2.16ZM45.81,15.33c-.82.48-1.68.91-2.49,1.4-2.81,1.53-5.46,3.37-8.38,4.72-1.84.87-3.64,1.82-5.37,2.89-.17.18.09.4.27.42.47.12.93-.12,1.35-.31,4.05-1.98,8.08-4.04,11.92-6.41,1.49-.92,3.02-1.75,4.49-2.7-.12-.3-.24-.6-.35-.9-.37.46-.96.61-1.44.9ZM22.92,16.19c-.21.65-.42,1.3-.71,1.91-.52,1.08-.87,2.23-1.42,3.29-.53.99-.78,2.09-1.29,3.09-.4.78-.8,1.55-1.17,2.35-.91,1.75-1.92,3.47-2.58,5.34.33-.35.69-.67,1.02-1.02.35-.52.56-1.12.81-1.68.92-1.92,1.71-3.92,2.83-5.75.96-1.88,1.98-3.77,2.53-5.83.08-.35-.26-1.18.39-1.03.41.55.14,1.27-.01,1.87.27.53.73.95,1.13,1.38,1.08,1,2.18,2,2.98,3.24.33.53.92.91,1.05,1.55.05,0,.16-.02.21-.02-.44-.52-.64-1.19-1.08-1.71-1.02-1.34-2.07-2.67-2.94-4.12-.68-.89-.97-2.02-1.75-2.84ZM44.86,17.92c.01,2.95-.08,5.9-.03,8.86.4-.27.82-.52,1.26-.73-.02-2.94.09-5.89,0-8.83-.41.24-.82.47-1.23.71ZM43.86,18.53c.08,2.95.07,5.91.1,8.86.22-.15.47-.31.39-.63-.02-2.83-.07-5.67-.08-8.5-.1.07-.3.2-.41.26ZM39.99,20.8c0,.1-.02.31-.02.42.81-.4,1.66-.71,2.41-1.22.38-.22.72-.56,1.19-.59.03-.25.06-.5.09-.74-1.25.66-2.43,1.46-3.67,2.13ZM23.04,19.35c-.85,2.08-1.82,4.1-2.98,6.02-.58,1.12-1.12,2.27-1.62,3.43,1-.4,1.85-1.07,2.8-1.55,1.92-1.16,3.94-2.15,5.91-3.23-1.12-1.77-2.78-3.08-4.11-4.67ZM42.34,20.79c0,.49,0,.98,0,1.48.42-.19.79-.49,1.25-.62,0-.55,0-1.11.01-1.66-.42.27-.84.54-1.26.8ZM39.98,21.96c.03,1.41-.04,2.82.04,4.22.63-.37,1.24-.75,1.89-1.09-.22-.57-.15-1.19-.16-1.79-.45.28-.85.62-1.3.89-.27.11-.5-.16-.36-.41.45-.53,1.15-.74,1.65-1.19.04-.5.01-1,.01-1.49-.59.28-1.2.52-1.77.86ZM39.03,21.37c-.1,3.02,0,6.05.03,9.07.07-.05.22-.14.3-.19.09-1.44.03-2.88.05-4.32-.04-1.61.07-3.23-.06-4.84-.08.07-.24.21-.31.28ZM35.5,23.22c-.03,3.16-.05,6.31-.05,9.47,1.07-.52,2.01-1.26,3.03-1.86,0-3.07.12-6.14.05-9.21-.98.59-2.01,1.1-3.03,1.61ZM42.35,22.98c-.01.63,0,1.26-.03,1.89.38-.29.78-.57,1.25-.7-.01-.65-.01-1.3-.01-1.95-.41.25-.81.5-1.21.75ZM34.28,23.82c.01,3.23-.03,6.46-.02,9.69.24-.16.47-.32.7-.48-.02-3.16,0-6.32-.04-9.49-.22.09-.43.19-.64.28ZM31.96,24.98c-.73.39-1.54.58-2.25,1.02,0,.31,0,.63,0,.94,1.34-.6,2.63-1.3,3.97-1.91,0-.31,0-.61.01-.92-.58.29-1.16.58-1.73.87ZM19.87,28.72c-.56.33-1.13.68-1.78.78-.26.59-.48,1.19-.79,1.75,2.69-1.71,5.53-3.16,8.29-4.73.84-.48,1.74-.86,2.56-1.38-.21-.2-.41-.41-.6-.63-2.57,1.38-5.18,2.69-7.67,4.21ZM39.98,26.99c0,.94,0,1.88,0,2.83,1.26-.63,2.3-1.61,3.55-2.25-.01-.88.02-1.75,0-2.63-1.16.72-2.36,1.38-3.55,2.06ZM2.32,25.42c-.07,2.52,0,5.05-.02,7.57.02,1.44-.07,2.89.04,4.32.1,0,.29,0,.39,0,.03-3.89-.03-7.79.04-11.68-.15-.07-.3-.14-.45-.2ZM28.69,26.09c-.04,3.64-.11,7.29-.11,10.93.18-.12.36-.24.55-.36-.05-3.75-.03-7.5-.02-11.24-.26.14-.49.34-.42.67ZM31.84,26.72c.03.62.05,1.25.1,1.87.6-.32,1.09-.85,1.74-1.09.03-.57.03-1.15-.02-1.72-.6.33-1.23.61-1.82.94ZM3.23,25.93c.02,3.97-.04,7.94.04,11.92.42.21.84.43,1.28.63-.06-3.96-.01-7.92,0-11.88-.44-.21-.88-.44-1.31-.66ZM25.29,27.57c.04,3.81-.03,7.61.03,11.42.94-.58,1.92-1.08,2.85-1.67.09-1.1,0-2.22.03-3.32-.08-2.63-.05-5.27-.11-7.9-.95.46-1.89.95-2.81,1.47ZM44.88,27.39c-.74.82-1.83,1.14-2.71,1.78-.66.47-1.33.93-2.04,1.32-1.55,1.04-3.13,2.03-4.72,3.02-.74.49-1.41,1.09-2.21,1.48-2.31,1.15-4.34,2.75-6.6,3.97-1.3.78-2.71,1.39-3.99,2.22-1.78,1.07-3.58,2.12-5.33,3.25-.45.36-1.18.64-1.14,1.33.02.28.26.36.47.2.75-.45,1.48-.91,2.27-1.28,1-.47,1.88-1.14,2.86-1.65,1.05-.57,2.03-1.26,3.13-1.74,1.39-.75,2.72-1.63,3.97-2.59.45-.6.86-1.25,1.49-1.68.93-.8,2.14-1.15,3.31-1.43,2.36-1.47,4.89-2.67,7.24-4.16,1.12-.84,2.23-1.69,3.39-2.46.43-.31.95-.49,1.33-.87.35-.33.74-.59,1.13-.87-.01-.2-.02-.41-.02-.61-.72-.17-1.29.41-1.84.77ZM5.03,26.81c.04,3.97.07,7.94,0,11.9.31.18.62.35.94.51,0-3.93.09-7.85.02-11.78-.25-.29-.64-.42-.95-.63ZM29.73,27.68c-.03,1.6,0,3.19-.02,4.79.51-.42,1.12-.72,1.62-1.15.03-.68,0-1.36,0-2.05-.35.2-.69.42-1.03.64-.15.08-.4.32-.52.07.44-.48,1.09-.73,1.63-1.11.01-.65.05-1.31.07-1.96-.62.17-1.18.48-1.76.76ZM6.71,27.68c-.02.71-.01,1.43-.01,2.14,1.14.67,2.19,1.49,3.38,2.08,0-.71.01-1.42.04-2.13-.99-.89-2.16-1.6-3.41-2.09ZM24.01,28.3c-.02.84-.04,1.68.09,2.51,0,2.93-.02,5.85,0,8.78.23-.12.46-.24.69-.36-.02-3.79,0-7.57-.01-11.35-.26.14-.52.28-.77.42ZM31.97,28.94c0,.67.01,1.33.03,2,.58-.3,1.13-.67,1.7-.99,0-.67,0-1.33,0-2-.59.31-1.16.64-1.73,1ZM46.48,28.47v.12c-.23.11-.45.22-.67.33-.02,3.17-.03,6.35-.03,9.52.33-.25.73-.42,1.02-.74.08-.78.01-1.57.03-2.35-.05-2.14,0-4.28-.04-6.43.1-.23.02-.5-.05-.72-.12.03-.21.12-.27.26ZM20.66,30.17c.03.47.03.94.03,1.41.76-.39,1.52-.8,2.3-1.17.11,0,.32-.02.43-.03-.02-.58-.02-1.17-.02-1.75-.93.49-1.85.98-2.74,1.54ZM44.72,29.79c.03,3.14-.1,6.28-.09,9.43.18-.12.36-.24.55-.36.03-3.08.02-6.16-.02-9.24.15-.54-.62-.17-.45.17ZM10.69,30.12c-.07,3.02-.02,6.05-.01,9.07-.02.82.13,1.66-.1,2.47.18.07.37.14.56.21,0-1.45.07-2.89.04-4.34.11-2.22.01-4.45.1-6.67.1-.04.31-.1.42-.14,0,.43,0,.86.04,1.29.06,2.79.05,5.57.11,8.36,0,.64.06,1.29-.07,1.93,1,.51,2.03.97,3.06,1.4.06-1.56,0-3.12.02-4.68-.01-2.04.06-4.1-.06-6.13-.89-.82-1.86-1.57-2.94-2.12-.39-.23-.78-.45-1.18-.66ZM40.71,32.28c.02.61.01,1.23-.02,1.85.73-.53,1.48-1.03,2.24-1.51.34-.2.68-.47,1.09-.48,0-.72-.01-1.44,0-2.15-1.14.71-2.15,1.61-3.31,2.29ZM19.41,30.84c.22,1.43.11,2.89.09,4.34.04,2.35.02,4.69.01,7.04.19-.07.38-.13.58-.19.08-3.51-.08-7.03.05-10.54.08-.36.12-.72.12-1.09-.28.15-.56.3-.85.45ZM6.71,30.57c-.03.63-.09,1.27-.03,1.91.38.45.9.79,1.38,1.13.06-.71.06-1.42.03-2.13-.45-.31-.9-.63-1.38-.91ZM30.92,32.54c-.39.25-.73.63-1.22.68.02,1.03,0,2.06.02,3.09,1.29-.83,2.65-1.57,3.96-2.37.04-1.03.02-2.06.01-3.1-.93.56-1.87,1.09-2.77,1.7ZM22.1,31.67c0,.63,0,1.26.02,1.89.47-.19.89-.64,1.43-.51-.02-.71-.01-1.42-.02-2.13-.45.3-.94.53-1.43.76ZM16.87,32.52c-.06,3.78.04,7.56.03,11.34.73-.44,1.47-.86,2.17-1.35.02-.11.05-.34.07-.45,0-2.01-.02-4.03,0-6.04,0-1.64.04-3.28-.11-4.91-.78.38-1.45.93-2.16,1.42ZM8.67,31.88c.02.74-.1,1.52.1,2.23.41.31.88.54,1.33.79.02-.75.04-1.51.01-2.26-.43-.32-.96-.51-1.44-.76ZM20.65,32.36c-.02.7-.02,1.4,0,2.11.3-.19.6-.39.89-.59-.02-.62-.01-1.23,0-1.85-.3.11-.59.23-.88.34ZM39.44,33.03c-1.62.92-3.3,1.72-4.89,2.69,1,.39,1.56,1.44,1.57,2.48.04,2.18.04,4.37.03,6.55.96-.46,1.82-1.12,2.72-1.7-.03-3.02-.01-6.04-.01-9.05-.07-.32.17-.53.41-.69.32.44.22,1.01.24,1.52,0,2.58-.01,5.16,0,7.74.27-.05.49-.21.7-.38-.04-2.06-.01-4.11-.03-6.17.02-1.13-.15-2.25-.1-3.37-.21.13-.43.25-.64.38ZM42.53,33.53c.37.61.09,1.37.2,2.04.43-.2.83-.75,1.34-.43-.06-.84-.06-1.68-.03-2.52-.52.28-1.02.61-1.52.91ZM15.39,33.13c-.07,1.13-.17,2.25-.13,3.38.04,2.49-.07,4.99.07,7.48.24.15.49.29.74.44.04-3.85.11-7.69.08-11.54-.25.08-.53.1-.75.24ZM6.69,33.29c-.04.72-.05,1.45-.06,2.17.51.21.93.58,1.43.81,0-.64.1-1.3-.04-1.93-.43-.37-.9-.69-1.33-1.05ZM22.14,34.21c-.07.78-.04,1.56-.03,2.34.47-.23.94-.47,1.42-.69,0-.81,0-1.63,0-2.44-.45.3-.91.57-1.39.79ZM40.65,34.75c-.06.7-.05,1.4-.04,2.1.52-.32,1.05-.64,1.56-.97-.02-.7,0-1.39-.02-2.08-.51.3-.96.7-1.5.96ZM20.63,34.91c0,.8,0,1.6.02,2.4.31-.17.63-.34.95-.5-.14-.71-.07-1.43-.09-2.15-.28.13-.56.29-.87.25ZM8.71,34.81c-.02.62-.02,1.24,0,1.85.46.26.9.54,1.36.78.03-.63.04-1.26,0-1.89-.5-.17-.93-.48-1.38-.74ZM42.69,36.14c.02.55.02,1.11.03,1.67.46-.37.96-.7,1.37-1.12.02-.51-.02-1.02-.02-1.53-.44.35-.92.65-1.37.98ZM6.46,36.13c0,1.14-.04,2.29.05,3.43,1.15.64,2.29,1.31,3.5,1.84-.05-1.05.12-2.1,0-3.15-1.18-.71-2.41-1.32-3.54-2.12ZM31.09,37.41c-.84.51-1.36,1.35-1.87,2.16.86.43,1.74.84,2.49,1.45.75.52,1.37,1.25,2.27,1.52-.02-1.9.02-3.81.02-5.71.05-.08.15-.23.2-.3-1.1-.16-2.21.28-3.11.89ZM40.61,37.1c-.03.68-.02,1.36,0,2.04.52-.3,1.03-.62,1.54-.94.02-.6.02-1.2,0-1.8-.52.23-.97.67-1.55.71ZM34.44,36.64c0,2.42,0,4.83.01,7.25-.06.43.52.44.8.55.04-1.92.04-3.83.05-5.75,0-.75-.16-1.63-.86-2.05ZM20.66,38.18c0,1.14,0,2.29,0,3.43.98-.54,1.92-1.15,2.89-1.7,0-1.08,0-2.15,0-3.23-.98.47-1.92,1-2.88,1.5ZM40.61,39.77c-.04.73-.03,1.46-.01,2.19,1.19-.77,2.31-1.63,3.5-2.41,0-.68,0-1.37,0-2.05-1.09.85-2.24,1.65-3.48,2.26ZM2.28,37.94c.01.28.03.56.05.84.45-.12.79.24,1.15.43,1.18.66,2.29,1.43,3.51,2.04,1.07.55,2.05,1.42,3.28,1.55.25.56.92.67,1.41.96,1.23.66,2.48,1.3,3.76,1.88.09-.2.17-.41.27-.61-1.22-.97-2.75-1.41-4.07-2.22-1.21-.75-2.59-1.17-3.81-1.9-1.44-.95-2.94-1.84-4.51-2.58-.33-.18-.65-.38-1.03-.39ZM2.34,39.2c-.09.9,0,1.8-.01,2.69,0,2.23,0,4.46,0,6.69.17.08.34.15.51.23.05-2.98.01-5.97.03-8.95.05-.35-.33-.48-.53-.67ZM3.32,39.88c-.04,3.09.04,6.18,0,9.27.45.34.9.69,1.4.95-.03-3.12.03-6.24-.02-9.36-.47-.28-.91-.58-1.38-.85ZM25.18,41.97c-.12,3.1.08,6.21.04,9.31.8-.47,1.51-1.08,2.35-1.48.01-1.74,0-3.48,0-5.23.01-.64-.06-1.3.13-1.93.05-.83.15-1.66.4-2.45-.97.59-1.91,1.26-2.93,1.78ZM29.07,40.65c1.57,1.13,3.15,2.28,4.88,3.17,0-.15.03-.46.04-.61-.73-.38-1.42-.84-2.07-1.36-.9-.72-1.9-1.28-2.97-1.71-.06.2-.14.42.12.51ZM5.06,41.06c.02,3.11.02,6.22.01,9.33.3.22.62.42.95.59.07-3.03.03-6.07.04-9.1.05-.54-.62-.64-1-.82ZM6.59,41.87c0,.47,0,.94,0,1.42.54.23.99.6,1.48.91.57.38,1.21.65,1.78,1.04-.01-.53.04-1.08-.08-1.6-.41-.35-.95-.52-1.41-.78-.62-.28-1.14-.74-1.77-.99ZM23.99,42.57c-.04,3.16-.03,6.33-.03,9.49.22-.15.45-.29.68-.43.04-3.14.12-6.28.04-9.42-.23.12-.47.24-.69.36ZM20.24,44.82c.1.63.06,1.26.06,1.89.27-.24.57-.42.89-.59.78-.41,1.48-.96,2.21-1.46.11-.56.01-1.17.03-1.74-1.06.64-2.18,1.18-3.19,1.9ZM10.38,43.91c-.19.89.12,1.78-.07,2.67-.06,1.29-.03,2.59-.04,3.88-.02.96.08,1.93-.17,2.86l-.13-.11c-.05-.65-.06-1.3-.05-1.95-1.17-.56-2.13-1.46-3.31-1.98,0,.69.02,1.38,0,2.08,1.13.78,2.3,1.57,3.59,2.05.21.18.47.3.72.43.07-3.2,0-6.4.09-9.6-.21-.11-.42-.21-.63-.32ZM6.6,44.11c-.01.77-.01,1.53,0,2.3.43-.26.88,0,1.28.19.08-.51.18-1.02.17-1.53-.4-.42-.93-.72-1.45-.96ZM11.63,44.64c.03,3.22.02,6.44.05,9.66,1.03.54,1.93,1.31,2.96,1.86,0-3.36-.02-6.72.02-10.08-1-.5-2-1-3.03-1.43ZM19.08,45.41c-.06.84-.02,1.68-.05,2.52.06,2.39-.11,4.79-.03,7.18.27-.16.55-.3.8-.49-.03-.38-.07-.76-.05-1.15.03-2.81.1-5.62.06-8.44-.25.12-.5.22-.72.37ZM8.54,45.26c-.04.56-.08,1.11-.11,1.67l.08.13c.5.28.97.62,1.36,1.05.02-.67.01-1.34-.05-2-.37-.36-.83-.59-1.27-.85ZM22.27,46.27c0,.49,0,.98,0,1.47.38-.2.73-.52,1.18-.54,0-.6,0-1.2,0-1.8-.38.31-.78.6-1.2.88ZM16.7,46.75c-.04,3.3-.11,6.61.05,9.91.62-.45,1.24-.88,1.87-1.3.05-3.23,0-6.47-.04-9.71-.63.36-1.26.73-1.88,1.1ZM15.38,46.4c-.09,3.4.02,6.82-.05,10.22.06.25.36.37.54.56-.06-1.06.04-2.13.05-3.19.09-2.36-.03-4.71-.02-7.07.03-.3-.34-.37-.51-.52ZM6.61,46.5c-.03.69-.03,1.38,0,2.07.36.07.71.21,1.04.36.04-.54.09-1.09.15-1.63-.4-.27-.8-.54-1.2-.8ZM20.29,47.13c.03,1.43,0,2.86.04,4.29.44-.36.9-.68,1.37-.98-.01-.55,0-1.11,0-1.66-.45.18-.83.55-1.34.55-.03-.72.87-.85,1.33-1.22,0-.5,0-.99,0-1.49-.46.19-.87.62-1.4.51ZM22.3,48.43c-.07.54-.02,1.08-.02,1.63.36-.25.71-.57,1.17-.61.01-.61,0-1.22,0-1.83-.36.3-.78.54-1.16.82ZM8.36,47.71c-.06.54-.09,1.08-.1,1.63.54.34,1.05.73,1.64,1,.04-.7.03-1.4,0-2.09-.6.44-1.04-.28-1.54-.53ZM20.62,52.02c-.07-.04-.21-.11-.28-.14,0,.8.02,1.6.05,2.4,1.04-.61,2.06-1.28,3.07-1.94-.01-.73,0-1.46-.01-2.19-.92.67-1.87,1.28-2.83,1.88Z"/>
      <path class="cls-2" d="M38.58,4.16c.19-.08.44.22.33.39-.2.08-.45-.21-.33-.39Z"/>
      <path class="cls-2" d="M34.92,5.46c.26.17.53.34.65.64-.31-.09-.72-.25-.65-.64Z"/>
      <path class="cls-2" d="M38.39,5.77c.46,0,.6.53.82.84-.39-.14-.66-.47-.82-.84Z"/>
      <path class="cls-2" d="M37.56,7.07c.31.23.49.58.67.92-.41-.11-.58-.54-.67-.92Z"/>
      <path class="cls-2" d="M33.53,7.78c.32.09.54.34.66.64-.34-.05-.64-.27-.66-.64Z"/>
      <path class="cls-2" d="M27.05,10.21c.71-.45,1.35-1.03,2.12-1.39.69-.28,1.19.46,1.57.92.36.88-.11,1.93.36,2.79-.21.18-.24.44-.21.7.37.08.48.46.44.8-.15-.18-.3-.37-.45-.55,0,.65.04,1.33-.12,1.97-.74.52-1.42,1.33-2.36,1.39.03.22.05.45.08.67-.07,0-.21.02-.28.03-.02-.1-.06-.3-.09-.4-.53-.07-.72-.67-1.02-1.04-.27-.5-.8-.84-.96-1.4.51-.08.36-.65.38-1.02.02-.99-.05-1.99.06-2.97l.11-.1c.08,0,.25.01.33.02.09,1.35.04,2.7.03,4.05-.09.63.46,1.05.8,1.5.07-1.55.05-3.11.04-4.67-.35-.38-.7-.79-.84-1.3ZM29.25,9.39c-.63.22-1.17.64-1.68,1.07.31.32.61.66.9,1,.69-.38,1.3-.89,1.85-1.45-.33-.23-.6-.8-1.07-.63ZM28.33,11.83c-.04,1.51.03,3.03.04,4.54.68-.37,1.28-.87,1.91-1.32-.08-1.43,0-2.85-.05-4.28-.58.45-1.19.86-1.9,1.06Z"/>
      <path class="cls-2" d="M36.94,8.83c.45.14.66.6.81,1.01-.43-.17-.59-.64-.81-1.01Z"/>
      <path class="cls-2" d="M43.31,9.97c.56.64.61,1.56,1.12,2.24.47.66.95,1.36,1.05,2.19-.29-.34-.36-.8-.54-1.2-.26-.69-.8-1.22-1.09-1.89-.19-.44-.39-.88-.54-1.34Z"/>
      <path class="cls-2" d="M39.34,10.23c.25-.11.56.31.42.54-.27.11-.56-.3-.42-.54Z"/>
      <path class="cls-2" d="M31.37,10.34c.51.08.7.69.76,1.14-.37-.29-.58-.72-.76-1.14Z"/>
      <path class="cls-2" d="M23.48,11.31c.27.27.46.64.41,1.03-.2-.32-.37-.66-.41-1.03Z"/>
      <path class="cls-2" d="M37.44,11.47c.24.22.36.53.45.84-.39-.07-.38-.54-.45-.84Z"/>
      <path class="cls-2" d="M21.29,11.68c.78.18,1.47.83,1.48,1.67-.31-.07-.38-.4-.53-.62-.21-.45-.79-.58-.95-1.05Z"/>
      <path class="cls-2" d="M42.11,11.65c.33.04.43.38.58.62.33.65.75,1.27.98,1.97-.3.09-.38-.25-.51-.43-.36-.71-.77-1.4-1.05-2.15Z"/>
      <path class="cls-2" d="M35.36,11.8c.48.24.77.72,1.03,1.17-.46-.26-.81-.69-1.03-1.17Z"/>
      <path class="cls-2" d="M39.99,13.16c.51.57.94,1.31.98,2.08-.32-.25-.44-.64-.62-.99-.16-.35-.41-.69-.36-1.09Z"/>
      <path class="cls-2" d="M33.52,13.35c.54.03.79.6,1.05,1-.51-.1-.78-.61-1.05-1Z"/>
      <path class="cls-2" d="M12.7,14.15c.37-.18.77-.42,1.2-.37.52.74.69,1.65,1.12,2.43.4.83,1.01,1.71.65,2.67-.37,1.13-.95,2.2-1.6,3.2-.76,1.11-1.14,2.45-2.06,3.45-.27.06-.53.14-.8.22-.65-.28-1.07-.97-1.78-1.15-.29.5-.54,1.05-.96,1.45-.07,0-.22.03-.29.04.36-.56.76-1.11,1.13-1.67-.45-.31-.93-.58-1.33-.95-.28-.21-.17-.59-.19-.89.06-1.48,0-2.96.15-4.44.73-.84,1.26-1.85,2.12-2.58.87-.49,1.8-.88,2.64-1.41ZM10.88,15.73c.13.79.41,1.54.69,2.28.31.8.47,1.66.79,2.46,1.06-.71,2.2-1.37,2.98-2.39-.65-1.21-1.17-2.47-1.73-3.72-.95.38-1.79.97-2.74,1.37ZM8.27,18.4c1.18.6,2.13,1.59,3.36,2.1-.15-.78-.35-1.54-.62-2.29-.28-.77-.43-1.58-.76-2.33-.74.78-1.24,1.74-1.98,2.52ZM8.47,23.09c1.03.66,2.08,1.32,3.01,2.12.19-1.33.09-2.68.14-4.02-.12-.07-.36-.21-.48-.27-.04,1.06.14,2.14-.16,3.18-.72-.23-1.3-.76-2.02-1-.07-.84-.06-1.7-.07-2.55.21-.1.39-.29.63-.3.47.2.86.59,1.39.63-.82-.61-1.63-1.25-2.5-1.8,0,1.33.04,2.66.06,3.99ZM12.48,20.84c-.04.27-.16.5-.31.72-.04.9,0,1.81.03,2.72.48-.74.75-1.59,1.25-2.32.46-.8,1.04-1.55,1.28-2.45-.73.49-1.51.88-2.26,1.33ZM9.35,20.88c-.07.64-.09,1.28-.1,1.92.49.2.95.49,1.44.69.02-.69-.05-1.38-.13-2.06-.42-.16-.82-.35-1.22-.55Z"/>
      <path class="cls-2" d="M36.46,16.45c-.3-.6-.71-1.14-1.04-1.73.78.64,1.1,1.64,1.75,2.39.19.25.45.49.47.82-.54-.35-.84-.96-1.18-1.48Z"/>
      <path class="cls-2" d="M33.74,16.25c.41-.11.59.35.83.59.48.69.99,1.38,1.3,2.17-.41,0-.55-.42-.74-.7-.4-.73-.89-1.4-1.39-2.06Z"/>
      <path class="cls-2" d="M24.79,17.17c.53.14.72.77.87,1.23-.42-.3-.69-.76-.87-1.23Z"/>
      <path class="cls-2" d="M19.12,18.75c.11-.48.15-1.02.48-1.42-.02.51-.12,1.04-.48,1.42Z"/>
      <path class="cls-2" d="M32.59,17.87c.48.31.89.79.97,1.37-.4-.08-.56-.49-.79-.77-.15-.17-.21-.38-.18-.6Z"/>
      <path class="cls-2" d="M27.73,18.43c.28-.14.53.35.38.57-.27.07-.52-.34-.38-.57Z"/>
      <path class="cls-2" d="M5.08,19.78c.26-.44.49-.92.91-1.23-.24.66-.63,1.25-.96,1.87-.22.33-.38.75-.79.89.19-.55.55-1.02.84-1.52Z"/>
      <path class="cls-2" d="M30.68,19.17c.37.21.48.65.64,1.02-.43-.12-.48-.67-.64-1.02Z"/>
      <path class="cls-2" d="M5.74,21.78c.49-.79,1.05-1.55,1.41-2.41,0,.63-.37,1.15-.65,1.69-.19.37-.42.73-.74,1.01,0-.07-.02-.22-.02-.29Z"/>
      <path class="cls-2" d="M27.01,19.36c.42.48.69,1.09.81,1.72-.4-.49-.78-1.07-.81-1.72Z"/>
      <path class="cls-2" d="M18.45,22.45c.08-.51.24-1.26.81-1.39-.23.49-.43,1-.81,1.39Z"/>
      <path class="cls-2" d="M29.39,21.06c.39.38.72.85.85,1.39-.54-.18-.94-.83-.85-1.39Z"/>
      <path class="cls-2" d="M30.53,21.06c.29.18.48.48.64.78-.4-.05-.54-.45-.64-.78Z"/>
      <path class="cls-2" d="M14.73,23.76c.38-.67.79-1.35,1.35-1.89-.1.45-.41.81-.65,1.2-.19.27-.33.63-.7.69Z"/>
      <path class="cls-2" d="M22.86,22.15c.27-.27.77-.26,1.03.02.29.3.5.67.64,1.06.09.72-.26,1.57-.98,1.83-.29.15-.62,0-.83-.2-.67-.76-.68-2.04.14-2.71ZM22.93,23.57c.13.37.38.74.15,1.13.99-.17,1.01-1.59.38-2.19-.41.16-.59.64-.53,1.05Z"/>
      <path class="cls-2" d="M4.76,24.14c.1-.41.24-.82.57-1.1-.02.41-.11.96-.57,1.1Z"/>
      <path class="cls-2" d="M5.59,24.98c.14-.55.6-.95,1.07-1.22-.25.48-.61.93-1.07,1.22Z"/>
      <path class="cls-2" d="M7.79,23.75c-.12.76-.61,1.43-1.08,2.02-.07-.37.2-.65.38-.95.23-.36.45-.73.71-1.07Z"/>
      <path class="cls-2" d="M15.92,25.94c.35-.67.87-1.23,1.32-1.83-.26.63-.69,1.18-1.1,1.71-.05.03-.16.08-.21.11Z"/>
      <path class="cls-2" d="M10.04,27.26c.2-.39.46-.8.85-1.03l.11.08c-.25.36-.47.9-.96.95Z"/>
      <path class="cls-2" d="M12.07,27.96c0-.45.28-1.02.79-1.01-.23.36-.48.71-.79,1.01Z"/>
      <path class="cls-2" d="M15.41,28.3c.23-.43.39-.96.85-1.19-.47.94-.92,1.88-1.47,2.77-.06.03-.19.09-.25.12.17-.62.61-1.12.86-1.7Z"/>
      <path class="cls-2" d="M13.06,29.13c.42-.64.8-1.4,1.46-1.81-.26.62-.63,1.19-1.04,1.71-.1.02-.31.07-.42.09Z"/>
      <path class="cls-6" d="M46.48,28.47c.05-.14.14-.23.27-.26.07.22.15.49.05.72-.12-.1-.23-.22-.32-.34v-.12Z"/>
      <path class="cls-6" d="M1.65,39.49c-.37-.15-.19-.84,0-1.06.06.35.07.71,0,1.06Z"/>
      <path class="cls-7" d="M8.47,23.09c-.02-1.33-.05-2.66-.06-3.99.87.55,1.68,1.18,2.5,1.8-.54-.04-.93-.43-1.39-.63-.24,0-.42.19-.63.3.01.85,0,1.7.07,2.55.72.24,1.3.77,2.02,1,.29-1.04.12-2.12.16-3.18.12.07.36.2.48.27-.05,1.34.05,2.69-.14,4.02-.93-.81-1.98-1.46-3.01-2.12Z"/>
      <path class="cls-7" d="M12.48,20.84c.75-.45,1.53-.84,2.26-1.33-.24.9-.83,1.65-1.28,2.45-.5.73-.77,1.58-1.25,2.32-.03-.9-.07-1.81-.03-2.72.15-.22.27-.45.31-.72Z"/>
      <path class="cls-7" d="M3.23,25.93c.44.22.87.44,1.31.66,0,3.96-.06,7.92,0,11.88-.43-.2-.85-.41-1.28-.63-.08-3.97-.02-7.94-.04-11.92Z"/>
      <path class="cls-7" d="M6.71,27.68c1.25.49,2.43,1.21,3.41,2.09-.03.71-.05,1.42-.04,2.13-1.19-.59-2.24-1.41-3.38-2.08,0-.72,0-1.43.01-2.14Z"/>
      <path class="cls-7" d="M11.88,30.78c1.08.55,2.05,1.3,2.94,2.12.12,2.03.04,4.09.06,6.13-.02,1.56.03,3.12-.02,4.68-1.04-.43-2.06-.89-3.06-1.4.13-.64.07-1.29.07-1.93-.06-2.79-.05-5.58-.11-8.36.03-.41.08-.82.13-1.23Z"/>
      <path class="cls-7" d="M6.46,36.13c1.12.8,2.36,1.41,3.54,2.12.13,1.05-.04,2.1,0,3.15-1.21-.53-2.35-1.2-3.5-1.84-.08-1.14-.05-2.29-.05-3.43Z"/>
      <path class="cls-7" d="M31.09,37.41c.9-.61,2.01-1.04,3.11-.89-.05.08-.15.23-.2.3,0,1.9-.04,3.81-.02,5.71-.9-.27-1.52-1-2.27-1.52-.75-.61-1.63-1.02-2.49-1.45.51-.81,1.03-1.65,1.87-2.16Z"/>
      <path class="cls-7" d="M3.32,39.88c.46.28.91.58,1.38.85.05,3.12-.01,6.24.02,9.36-.5-.26-.95-.61-1.4-.95.04-3.09-.04-6.18,0-9.27Z"/>
      <path class="cls-7" d="M28.59,41.26c.08.13.15.27.24.4-.11.25-.22.49-.32.74,0-.38.04-.77.08-1.15Z"/>
      <path class="cls-7" d="M6.59,41.87c.63.25,1.15.71,1.77.99.47.26,1,.43,1.41.78.12.52.07,1.07.08,1.6-.57-.39-1.21-.66-1.78-1.04-.49-.31-.94-.69-1.48-.91,0-.47,0-.94,0-1.42Z"/>
      <path class="cls-7" d="M11.63,44.64c1.03.44,2.03.93,3.03,1.43-.04,3.36-.01,6.72-.02,10.08-1.03-.55-1.93-1.32-2.96-1.86-.03-3.22-.02-6.44-.05-9.66Z"/>
      <path class="cls-7" d="M6.61,49.27c1.18.52,2.14,1.42,3.31,1.98-.02.65,0,1.3.05,1.95l.13.11s.07.06.1.08c-1.3-.48-2.46-1.27-3.59-2.05.03-.69,0-1.38,0-2.08Z"/>
      <path class="cls-1" d="M22.92,16.19c.77.82,1.07,1.95,1.75,2.84.87,1.45,1.92,2.77,2.94,4.12.43.52.64,1.19,1.08,1.71-.05,0-.16.02-.21.02-.13-.64-.71-1.02-1.05-1.55-.81-1.24-1.91-2.24-2.98-3.24-.4-.44-.86-.85-1.13-1.38.15-.6.43-1.32.01-1.87-.65-.15-.31.69-.39,1.03-.55,2.05-1.57,3.94-2.53,5.83-1.11,1.83-1.9,3.82-2.83,5.75-.26.57-.46,1.17-.81,1.68-.33.35-.69.67-1.02,1.02.65-1.87,1.67-3.59,2.58-5.34.37-.79.77-1.57,1.17-2.35.51-.99.76-2.1,1.29-3.09.55-1.06.9-2.21,1.42-3.29.29-.62.51-1.26.71-1.91Z"/>
      <path class="cls-1" d="M43.86,18.53c.1-.07.31-.2.41-.26.01,2.83.07,5.67.08,8.5.08.31-.17.47-.39.63-.04-2.95-.02-5.91-.1-8.86Z"/>
      <path class="cls-1" d="M42.34,20.79c.42-.26.84-.53,1.26-.8-.01.55-.02,1.11-.01,1.66-.46.12-.83.42-1.25.62,0-.49,0-.98,0-1.48Z"/>
      <path class="cls-1" d="M39.98,21.96c.56-.34,1.17-.58,1.77-.86,0,.5.03,1-.01,1.49-.5.44-1.2.66-1.65,1.19-.14.26.08.52.36.41.45-.27.86-.61,1.3-.89.01.6-.06,1.22.16,1.79-.65.33-1.26.72-1.89,1.09-.08-1.41,0-2.82-.04-4.22Z"/>
      <path class="cls-1" d="M39.03,21.37c.08-.07.23-.21.31-.28.13,1.61.02,3.23.06,4.84-.02,1.44.04,2.89-.05,4.32-.07.05-.22.14-.3.19-.03-3.02-.12-6.05-.03-9.07Z"/>
      <path class="cls-1" d="M42.35,22.98c.4-.25.8-.51,1.21-.75,0,.65,0,1.3.01,1.95-.47.12-.87.41-1.25.7.02-.63.02-1.26.03-1.89Z"/>
      <path class="cls-1" d="M22.93,23.57c-.06-.41.11-.89.53-1.05.63.59.61,2.01-.38,2.19.23-.39-.02-.76-.15-1.13Z"/>
      <path class="cls-1" d="M34.28,23.82c.21-.09.42-.19.64-.28.04,3.16.02,6.32.04,9.49-.24.16-.47.32-.7.48-.01-3.23.03-6.46.02-9.69Z"/>
      <path class="cls-1" d="M19.87,28.72c2.49-1.52,5.1-2.84,7.67-4.21.19.22.39.43.6.63-.82.52-1.71.9-2.56,1.38-2.76,1.58-5.6,3.02-8.29,4.73.31-.56.54-1.16.79-1.75.65-.1,1.22-.45,1.78-.78Z"/>
      <path class="cls-1" d="M28.69,26.09c-.06-.33.16-.53.42-.67,0,3.75-.03,7.5.02,11.24-.18.12-.37.24-.55.36,0-3.64.07-7.29.11-10.93Z"/>
      <path class="cls-1" d="M31.84,26.72c.6-.33,1.22-.61,1.82-.94.05.57.04,1.15.02,1.72-.65.24-1.13.77-1.74,1.09-.05-.62-.07-1.24-.1-1.87Z"/>
      <path class="cls-1" d="M44.88,27.39c.55-.36,1.13-.95,1.84-.77,0,.2,0,.41.02.61-.39.28-.78.54-1.13.87-.38.38-.9.57-1.33.87-1.17.77-2.28,1.62-3.39,2.46-2.35,1.5-4.87,2.69-7.24,4.16-1.17.28-2.37.63-3.31,1.43-.63.43-1.04,1.09-1.49,1.68-1.26.96-2.58,1.83-3.97,2.59-1.1.48-2.08,1.17-3.13,1.74-.98.51-1.86,1.18-2.86,1.65-.79.36-1.53.83-2.27,1.28-.21.16-.45.08-.47-.2-.04-.68.69-.97,1.14-1.33,1.74-1.13,3.54-2.18,5.33-3.25,1.28-.83,2.68-1.44,3.99-2.22,2.26-1.22,4.3-2.82,6.6-3.97.8-.39,1.47-.99,2.21-1.48,1.58-.99,3.17-1.98,4.72-3.02.71-.39,1.38-.85,2.04-1.32.87-.64,1.97-.96,2.71-1.78Z"/>
      <path class="cls-1" d="M29.73,27.68c.57-.28,1.14-.59,1.76-.76-.02.65-.06,1.31-.07,1.96-.54.37-1.19.62-1.63,1.11.12.24.37,0,.52-.07.34-.22.68-.44,1.03-.64,0,.68.03,1.36,0,2.05-.51.43-1.11.73-1.62,1.15.02-1.6-.02-3.19.02-4.79Z"/>
      <path class="cls-1" d="M24.01,28.3c.26-.14.51-.28.77-.42.01,3.78-.01,7.57.01,11.35-.23.12-.46.24-.69.36-.03-2.93,0-5.85,0-8.78-.13-.83-.11-1.67-.09-2.51Z"/>
      <path class="cls-1" d="M31.97,28.94c.56-.35,1.14-.69,1.73-1,0,.67,0,1.33,0,2-.57.33-1.12.69-1.7.99-.01-.67-.02-1.33-.03-2Z"/>
      <path class="cls-1" d="M44.72,29.79c-.17-.33.59-.71.45-.17.03,3.08.05,6.16.02,9.24-.19.12-.37.24-.55.36-.02-3.14.12-6.28.09-9.43Z"/>
      <path class="cls-1" d="M19.41,30.84c.28-.15.56-.3.85-.45,0,.37-.04.73-.12,1.09-.13,3.51.03,7.03-.05,10.54-.19.06-.39.13-.58.19,0-2.35.03-4.69-.01-7.04.02-1.45.13-2.9-.09-4.34Z"/>
      <path class="cls-1" d="M22.1,31.67c.49-.22.98-.46,1.43-.76,0,.71,0,1.42.02,2.13-.55-.13-.97.31-1.43.51-.02-.63-.02-1.26-.02-1.89Z"/>
      <path class="cls-1" d="M20.65,32.36c.29-.11.58-.23.88-.34,0,.62-.02,1.23,0,1.85-.29.21-.59.4-.89.59-.01-.7,0-1.41,0-2.11Z"/>
      <path class="cls-1" d="M39.44,33.03c.21-.13.42-.26.64-.38-.04,1.13.12,2.25.1,3.37.01,2.06,0,4.11.03,6.17-.21.17-.43.33-.7.38-.02-2.58,0-5.16,0-7.74-.02-.51.09-1.08-.24-1.52.06-.09.12-.19.17-.28Z"/>
      <path class="cls-1" d="M42.53,33.53c.51-.31,1-.63,1.52-.91-.03.84-.04,1.68.03,2.52-.52-.32-.91.24-1.34.43-.11-.67.16-1.43-.2-2.04Z"/>
      <path class="cls-1" d="M22.14,34.21c.49-.23.95-.5,1.39-.79,0,.81,0,1.63,0,2.44-.48.22-.95.46-1.42.69,0-.78-.04-1.56.03-2.34Z"/>
      <path class="cls-1" d="M40.65,34.75c.54-.26.99-.66,1.5-.96.02.69,0,1.39.02,2.08-.51.34-1.04.65-1.56.97-.01-.7-.02-1.4.04-2.1Z"/>
      <path class="cls-1" d="M20.63,34.91c.32.04.59-.12.87-.25.03.72-.05,1.44.09,2.15-.32.16-.63.33-.95.5-.01-.8-.03-1.6-.02-2.4Z"/>
      <path class="cls-1" d="M42.69,36.14c.46-.33.93-.63,1.37-.98,0,.51.04,1.02.02,1.53-.41.42-.91.75-1.37,1.12-.01-.56,0-1.11-.03-1.67Z"/>
      <path class="cls-1" d="M40.61,37.1c.59-.04,1.03-.48,1.55-.71,0,.6,0,1.2,0,1.8-.51.32-1.02.65-1.54.94-.02-.68-.03-1.36,0-2.04Z"/>
      <path class="cls-1" d="M23.99,42.57c.23-.12.46-.24.69-.36.08,3.14,0,6.28-.04,9.42-.23.14-.45.29-.68.43,0-3.16-.01-6.33.03-9.49Z"/>
      <path class="cls-1" d="M19.08,45.41c.23-.14.48-.25.72-.37.04,2.81-.03,5.62-.06,8.44-.02.38.02.76.05,1.15-.25.18-.53.33-.8.49-.08-2.39.09-4.79.03-7.18.03-.84,0-1.69.05-2.52Z"/>
      <path class="cls-1" d="M22.27,46.27c.41-.27.81-.56,1.2-.88-.02.6-.02,1.2,0,1.8-.45.03-.8.34-1.18.54,0-.49,0-.98,0-1.47Z"/>
      <path class="cls-1" d="M20.29,47.13c.53.11.95-.31,1.4-.51,0,.5,0,.99,0,1.49-.46.37-1.36.5-1.33,1.22.5,0,.89-.37,1.34-.55,0,.55-.01,1.11,0,1.66-.48.3-.94.62-1.37.98-.03-1.43,0-2.86-.04-4.29Z"/>
      <path class="cls-1" d="M22.3,48.43c.38-.28.79-.52,1.16-.82,0,.61,0,1.22,0,1.83-.46.04-.8.37-1.17.61,0-.54-.05-1.09.02-1.63Z"/>
      <path class="cls-3" d="M10.74,14.17c.18-.68.69-1.21,1.17-1.71-.19.68-.67,1.23-1.17,1.71Z"/>
      <path class="cls-3" d="M8.89,15.34c.15-.44.35-.92.77-1.17-.2.42-.46.82-.77,1.17Z"/>
      <path class="cls-3" d="M17.28,15.37c.08-.37.24-.71.43-1.03.14.42-.15.77-.43,1.03Z"/>
      <path class="cls-3" d="M38.29,14.88c.28-.07.57.36.44.61-.27.06-.53-.37-.44-.61Z"/>
      <path class="cls-3" d="M24.86,15.07c.15-.13.51.05.4.26-.15.14-.52-.05-.4-.26Z"/>
      <path class="cls-3" d="M8.27,18.4c.73-.78,1.24-1.74,1.98-2.52.33.75.48,1.56.76,2.33.27.74.48,1.51.62,2.29-1.24-.5-2.18-1.5-3.36-2.1Z"/>
      <path class="cls-3" d="M20.83,16.89c.41-.16.24.52-.07.48-.27-.05-.12-.43.07-.48Z"/>
      <path class="cls-3" d="M17.17,17.47c.05-.03.15-.07.2-.1-.13.53-.31,1.04-.56,1.52-.1-.5.15-.99.35-1.42Z"/>
      <path class="cls-3" d="M9.35,20.88c.39.2.8.39,1.22.55.07.69.15,1.37.13,2.06-.5-.2-.95-.49-1.44-.69.01-.64.03-1.29.1-1.92Z"/>
      <path class="cls-3" d="M4.05,22.76c.5-.03-.1.64-.34.57-.11-.23.12-.5.34-.57Z"/>
      <path class="cls-3" d="M2.32,25.42c.15.07.3.14.45.2-.07,3.89-.02,7.78-.04,11.68-.1,0-.29,0-.39,0-.12-1.44-.02-2.88-.04-4.32.02-2.52-.05-5.05.02-7.57Z"/>
      <path class="cls-3" d="M5.03,26.81c.31.21.7.35.95.63.07,3.92-.02,7.85-.02,11.78-.32-.16-.63-.33-.94-.51.08-3.97.04-7.94,0-11.9Z"/>
      <path class="cls-3" d="M10.69,30.12c.4.21.79.43,1.18.66-.05.41-.1.82-.13,1.23-.03-.43-.04-.86-.04-1.29-.1.03-.31.1-.42.14-.09,2.22,0,4.45-.1,6.67.03,1.45-.05,2.89-.04,4.34-.19-.07-.38-.14-.56-.21.22-.81.08-1.64.1-2.47-.01-3.02-.06-6.05.01-9.07Z"/>
      <path class="cls-3" d="M6.71,30.57c.48.27.93.59,1.38.91.04.71.03,1.42-.03,2.13-.49-.34-1.01-.68-1.38-1.13-.05-.64,0-1.27.03-1.91Z"/>
      <path class="cls-3" d="M8.67,31.88c.48.26,1.01.44,1.44.76.03.75.01,1.5-.01,2.26-.45-.25-.92-.48-1.33-.79-.19-.72-.08-1.49-.1-2.23Z"/>
      <path class="cls-3" d="M15.39,33.13c.22-.14.5-.16.75-.24.04,3.85-.03,7.69-.08,11.54-.25-.15-.5-.29-.74-.44-.14-2.49-.03-4.98-.07-7.48-.04-1.13.06-2.26.13-3.38Z"/>
      <path class="cls-3" d="M6.69,33.29c.43.36.9.68,1.33,1.05.14.63.04,1.29.04,1.93-.5-.23-.92-.6-1.43-.81.01-.72.02-1.45.06-2.17Z"/>
      <path class="cls-3" d="M8.71,34.81c.45.26.88.56,1.38.74.04.63.03,1.26,0,1.89-.47-.24-.91-.53-1.36-.78-.02-.62-.02-1.23,0-1.85Z"/>
      <path class="cls-3" d="M34.44,36.64c.71.41.86,1.3.86,2.05-.01,1.92-.02,3.83-.05,5.75-.28-.11-.85-.12-.8-.55-.01-2.42,0-4.83-.01-7.25Z"/>
      <path class="cls-3" d="M2.28,37.94c.38.01.71.21,1.03.39,1.57.74,3.06,1.62,4.51,2.58,1.22.73,2.6,1.15,3.81,1.9,1.32.81,2.85,1.25,4.07,2.22-.09.2-.18.41-.27.61-1.28-.58-2.52-1.22-3.76-1.88-.49-.29-1.16-.4-1.41-.96-1.23-.13-2.21-1-3.28-1.55-1.21-.6-2.33-1.38-3.51-2.04-.37-.19-.71-.55-1.15-.43-.02-.28-.04-.56-.05-.84Z"/>
      <path class="cls-3" d="M2.34,39.2c.21.19.58.32.53.67-.02,2.98.02,5.97-.03,8.95-.17-.08-.34-.15-.51-.23,0-2.23,0-4.46,0-6.69,0-.9-.08-1.8.01-2.69Z"/>
      <path class="cls-3" d="M29.07,40.65c-.26-.09-.18-.31-.12-.51,1.06.42,2.07.99,2.97,1.71.64.52,1.33.98,2.07,1.36-.01.15-.03.46-.04.61-1.73-.89-3.31-2.03-4.88-3.17Z"/>
      <path class="cls-3" d="M5.06,41.06c.37.18,1.05.28,1,.82-.01,3.03.03,6.07-.04,9.1-.33-.17-.65-.37-.95-.59,0-3.11,0-6.22-.01-9.33Z"/>
      <path class="cls-3" d="M10.38,43.91c.21.1.42.21.63.32-.09,3.2-.02,6.4-.09,9.6-.25-.13-.5-.26-.72-.43-.03-.02-.07-.06-.1-.08.25-.94.15-1.91.17-2.86,0-1.29-.02-2.59.04-3.88.19-.89-.12-1.78.07-2.67Z"/>
      <path class="cls-3" d="M6.6,44.11c.52.24,1.06.54,1.45.96.01.52-.09,1.02-.17,1.53-.4-.2-.84-.45-1.28-.19-.02-.77-.02-1.54,0-2.3Z"/>
      <path class="cls-3" d="M8.54,45.26c.44.25.91.49,1.27.85.06.66.06,1.33.05,2-.38-.43-.85-.77-1.36-1.05l-.08-.13c.04-.56.07-1.11.11-1.67Z"/>
      <path class="cls-3" d="M15.38,46.4c.17.15.54.22.51.52,0,2.36.11,4.71.02,7.07,0,1.06-.11,2.13-.05,3.19-.17-.19-.48-.31-.54-.56.07-3.41-.04-6.82.05-10.22Z"/>
      <path class="cls-3" d="M6.61,46.5c.4.27.8.53,1.2.8-.06.54-.11,1.08-.15,1.63-.33-.16-.68-.29-1.04-.36-.03-.69-.03-1.38,0-2.07Z"/>
      <path class="cls-3" d="M8.36,47.71c.5.25.94.97,1.54.53.02.7.04,1.4,0,2.09-.58-.27-1.1-.65-1.64-1,.01-.54.04-1.09.1-1.63Z"/>
      <path class="cls-4" d="M16.15,5.69c.56-.33,1.14-.66,1.78-.79.38.13.73.32,1.11.48-.75.54-1.65.82-2.41,1.33-.28-.15-.57-.28-.82-.48-.15-.27.17-.41.35-.55Z"/>
      <path class="cls-4" d="M15.78,6.78c.18.1.36.2.55.3-.05,1.34,0,2.68-.03,4.02-.19-.08-.38-.16-.56-.25.11-1.35.03-2.71.05-4.07Z"/>
      <path class="cls-4" d="M9.62,10.55c.56-.66.68-1.61,1.38-2.16,1.61,1.31,3.33,2.49,5.07,3.64,1.14.81,2.39,1.47,3.67,2.03.9.41,1.72.96,2.54,1.52-.2,1.29-.86,2.43-1.34,3.63-.52,1.38-1.33,2.63-1.76,4.04-1.12,2.45-2.5,4.77-3.64,7.22-.25.53-.51,1.06-.57,1.64-.82-.66-1.64-1.34-2.58-1.82-1.39-.68-2.49-1.79-3.84-2.54-2.52-1.29-5.07-2.55-7.41-4.16,1.22-1.65,2.3-3.41,3.47-5.1.36-.68.79-1.32,1.26-1.94,1.25-2,2.5-4,3.75-6ZM10.74,14.17c.5-.48.98-1.03,1.17-1.71-.48.49-.99,1.03-1.17,1.71ZM12.7,14.15c-.85.53-1.78.92-2.64,1.41-.86.73-1.39,1.74-2.12,2.58-.16,1.47-.1,2.96-.15,4.44.03.3-.09.68.19.89.4.37.88.64,1.33.95-.37.56-.76,1.11-1.13,1.67.07-.01.22-.03.29-.04.43-.4.67-.95.96-1.45.71.18,1.13.87,1.78,1.15.27-.08.53-.16.8-.22.93-1,1.3-2.34,2.06-3.45.65-1,1.23-2.07,1.6-3.2.36-.96-.25-1.84-.65-2.67-.43-.78-.6-1.69-1.12-2.43-.42-.05-.83.2-1.2.37ZM8.89,15.34c.31-.35.57-.75.77-1.17-.42.25-.61.73-.77,1.17ZM17.28,15.37c.28-.26.57-.61.43-1.03-.2.32-.35.66-.43,1.03ZM20.83,16.89c-.19.05-.34.43-.07.48.31.04.48-.64.07-.48ZM17.17,17.47c-.21.44-.45.93-.35,1.42.25-.48.42-1,.56-1.52-.05.03-.15.07-.2.1ZM19.12,18.75c.35-.38.46-.92.48-1.42-.32.4-.36.94-.48,1.42ZM5.08,19.78c-.29.5-.65.97-.84,1.52.41-.13.57-.56.79-.89.34-.61.72-1.21.96-1.87-.42.31-.65.79-.91,1.23ZM5.74,21.78c0,.07.01.22.02.29.32-.28.55-.64.74-1.01.27-.54.65-1.06.65-1.69-.36.86-.92,1.62-1.41,2.41ZM18.45,22.45c.38-.39.58-.91.81-1.39-.57.13-.73.88-.81,1.39ZM14.73,23.76c.37-.05.51-.42.7-.69.24-.39.55-.75.65-1.2-.55.54-.96,1.22-1.35,1.89ZM4.05,22.76c-.22.07-.45.33-.34.57.24.08.84-.6.34-.57ZM4.76,24.14c.46-.15.55-.69.57-1.1-.33.28-.47.7-.57,1.1ZM5.59,24.98c.46-.3.82-.74,1.07-1.22-.47.27-.93.68-1.07,1.22ZM7.79,23.75c-.26.34-.47.71-.71,1.07-.18.29-.44.58-.38.95.47-.59.97-1.26,1.08-2.02ZM15.92,25.94c.05-.03.16-.08.21-.11.42-.53.84-1.08,1.1-1.71-.45.6-.97,1.16-1.32,1.83ZM10.04,27.26c.5-.05.71-.58.96-.95l-.11-.08c-.39.23-.64.63-.85,1.03ZM12.07,27.96c.31-.3.56-.65.79-1.01-.51,0-.8.57-.79,1.01ZM15.41,28.3c-.26.58-.69,1.08-.86,1.7.06-.03.19-.09.25-.12.55-.89,1-1.84,1.47-2.77-.47.23-.62.77-.85,1.19ZM13.06,29.13c.1-.02.31-.07.42-.09.41-.53.78-1.1,1.04-1.71-.66.41-1.03,1.17-1.46,1.81Z"/>
      <path class="cls-4" d="M29.25,9.39c.47-.17.74.4,1.07.63-.55.56-1.16,1.07-1.85,1.45-.29-.34-.59-.68-.9-1,.51-.43,1.05-.85,1.68-1.07Z"/>
      <path class="cls-4" d="M26.69,10.62c.12-.13.24-.27.36-.4.14.52.49.92.84,1.3,0,1.56.03,3.11-.04,4.67-.34-.45-.89-.87-.8-1.5.01-1.35.06-2.7-.03-4.05-.08,0-.25-.01-.33-.02Z"/>
      <path class="cls-4" d="M10.88,15.73c.94-.4,1.79-.99,2.74-1.37.56,1.25,1.08,2.51,1.73,3.72-.78,1.03-1.93,1.69-2.98,2.39-.32-.8-.48-1.66-.79-2.46-.28-.74-.56-1.5-.69-2.28Z"/>
      <path class="cls-4" d="M29.06,22.76c.23-.16.44.26.28.43-.23.13-.43-.27-.28-.43Z"/>
      <path class="cls-8" d="M30.93,4.02c2.03-1.09,4.14-2.04,6.12-3.24.19.29.38.59.54.91-1.94.81-3.79,1.81-5.62,2.83-3.5,1.63-6.89,3.48-10.25,5.37-1.43.72-2.86,1.44-4.33,2.06-.18-.14-.36-.28-.53-.42,2.37-1.12,4.74-2.23,7.06-3.46,1.54-.85,2.98-1.9,4.6-2.6.88-.35,1.58-1.01,2.41-1.45Z"/>
      <path class="cls-8" d="M35.09,3.48c.95-.52,1.92-.99,2.86-1.5,1.01,1.09,1.97,2.22,2.94,3.35,2.03,3.03,4.43,5.81,6.27,8.96-.24-.05-.46-.02-.67.08-2.96,1.66-5.89,3.37-8.81,5.1-1.52.94-3.19,1.6-4.76,2.47-1.28.62-2.49,1.36-3.72,2.07-1.12-1.84-2.68-3.37-3.82-5.19-.37-.53-.77-1.05-1.01-1.66-.15-.49-.04-1.15-.54-1.46.04.24.08.47.12.71-.57-.52-.86-1.29-1.56-1.65-.75-.6-1.68-.95-2.32-1.67-.07.03-.21.1-.28.14-.64-.3-1.27-.62-1.88-.99,1.38-.58,2.7-1.26,4.04-1.92,1.28-.77,2.69-1.29,3.94-2.11,1.8-.96,3.62-1.87,5.46-2.77,1.29-.55,2.46-1.36,3.73-1.95ZM38.58,4.16c-.12.18.13.48.33.39.11-.18-.13-.48-.33-.39ZM34.92,5.46c-.07.39.34.55.65.64-.12-.3-.39-.47-.65-.64ZM38.39,5.77c.16.37.43.7.82.84-.22-.31-.36-.85-.82-.84ZM37.56,7.07c.08.38.25.81.67.92-.17-.34-.36-.69-.67-.92ZM33.53,7.78c.02.37.32.59.66.64-.12-.3-.34-.55-.66-.64ZM27.05,10.21c-.12.14-.25.27-.36.4l-.11.1c-.11.98-.03,1.98-.06,2.97-.03.37.13.94-.38,1.02.16.56.69.9.96,1.4.31.37.49.97,1.02,1.04.02.1.06.3.09.4.07,0,.21-.02.28-.03-.03-.23-.06-.45-.08-.67.95-.06,1.62-.88,2.36-1.39.16-.64.11-1.31.12-1.97.14.19.29.37.45.55.04-.34-.07-.72-.44-.8-.03-.26,0-.52.21-.7-.48-.86,0-1.91-.36-2.79-.38-.46-.88-1.2-1.57-.92-.76.36-1.41.94-2.12,1.39ZM36.94,8.83c.22.36.38.84.81,1.01-.15-.41-.36-.86-.81-1.01ZM43.31,9.97c.15.46.34.9.54,1.34.29.67.83,1.2,1.09,1.89.18.4.25.85.54,1.2-.09-.82-.58-1.53-1.05-2.19-.5-.68-.55-1.59-1.12-2.24ZM39.34,10.23c-.14.23.15.65.42.54.14-.22-.17-.65-.42-.54ZM31.37,10.34c.18.42.39.85.76,1.14-.06-.45-.25-1.06-.76-1.14ZM23.48,11.31c.05.37.21.72.41,1.03.05-.39-.14-.76-.41-1.03ZM37.44,11.47c.07.3.06.76.45.84-.09-.31-.21-.62-.45-.84ZM21.29,11.68c.16.47.74.61.95,1.05.16.22.22.55.53.62-.01-.84-.7-1.49-1.48-1.67ZM42.11,11.65c.28.75.69,1.44,1.05,2.15.12.18.2.53.51.43-.23-.7-.65-1.32-.98-1.97-.15-.24-.25-.58-.58-.62ZM35.36,11.8c.22.48.57.91,1.03,1.17-.26-.45-.55-.93-1.03-1.17ZM39.99,13.16c-.05.4.2.74.36,1.09.18.34.3.74.62.99-.04-.77-.47-1.51-.98-2.08ZM33.52,13.35c.27.39.54.9,1.05,1-.26-.4-.51-.97-1.05-1ZM36.46,16.45c.34.52.64,1.13,1.18,1.48-.02-.34-.28-.57-.47-.82-.65-.75-.97-1.75-1.75-2.39.33.59.74,1.13,1.04,1.73ZM38.29,14.88c-.08.24.17.66.44.61.13-.25-.16-.68-.44-.61ZM24.86,15.07c-.12.21.25.39.4.26.1-.21-.25-.38-.4-.26ZM33.74,16.25c.5.66.99,1.33,1.39,2.06.19.28.34.71.74.7-.32-.78-.82-1.48-1.3-2.17-.24-.24-.42-.71-.83-.59ZM24.79,17.17c.18.48.44.94.87,1.23-.15-.47-.34-1.09-.87-1.23ZM32.59,17.87c-.03.22.03.43.18.6.23.28.39.7.79.77-.08-.58-.49-1.06-.97-1.37ZM27.73,18.43c-.13.22.12.64.38.57.14-.22-.1-.7-.38-.57ZM30.68,19.17c.15.35.2.9.64,1.02-.16-.37-.27-.81-.64-1.02ZM27.01,19.36c.03.65.41,1.23.81,1.72-.13-.62-.39-1.24-.81-1.72ZM29.39,21.06c-.09.56.31,1.21.85,1.39-.13-.54-.46-1.01-.85-1.39ZM30.53,21.06c.1.33.24.74.64.78-.16-.3-.34-.6-.64-.78ZM29.06,22.76c-.15.17.05.56.28.43.16-.17-.04-.59-.28-.43Z"/>
      <path class="cls-8" d="M16.9,6.98c.62-.15,1.17-.49,1.74-.76.06,1.21-.04,2.42,0,3.63-.55.28-1.12.53-1.69.79-.03-1.22.03-2.44-.05-3.66Z"/>
      <path class="cls-8" d="M28.33,11.83c.71-.2,1.32-.62,1.9-1.06.05,1.43-.03,2.85.05,4.28-.63.46-1.22.95-1.91,1.32,0-1.51-.08-3.03-.04-4.54Z"/>
      <path class="cls-8" d="M45.81,15.33c.49-.29,1.07-.44,1.44-.9.11.3.23.6.35.9-1.46.96-3,1.79-4.49,2.7-3.84,2.37-7.87,4.43-11.92,6.41-.42.19-.88.43-1.35.31-.18-.02-.44-.24-.27-.42,1.73-1.06,3.53-2.01,5.37-2.89,2.91-1.35,5.56-3.18,8.38-4.72.82-.49,1.67-.91,2.49-1.4Z"/>
      <path class="cls-5" d="M44.86,17.92c.41-.24.82-.47,1.23-.71.09,2.94-.02,5.89,0,8.83-.44.21-.86.47-1.26.73-.06-2.95.04-5.9.03-8.86Z"/>
      <path class="cls-5" d="M39.99,20.8c1.24-.68,2.42-1.47,3.67-2.13-.03.25-.06.49-.09.74-.47.03-.81.37-1.19.59-.75.51-1.6.83-2.41,1.22,0-.11.02-.31.02-.42Z"/>
      <path class="cls-5" d="M23.04,19.35c1.34,1.59,3,2.9,4.11,4.67-1.97,1.08-3.99,2.07-5.91,3.23-.95.48-1.81,1.16-2.8,1.55.5-1.16,1.03-2.31,1.62-3.43,1.17-1.91,2.14-3.94,2.98-6.02ZM22.86,22.15c-.82.67-.8,1.94-.14,2.71.21.2.54.35.83.2.72-.26,1.07-1.11.98-1.83-.14-.39-.35-.76-.64-1.06-.27-.28-.76-.28-1.03-.02Z"/>
      <path class="cls-5" d="M35.5,23.22c1.03-.51,2.05-1.02,3.03-1.61.07,3.07-.05,6.14-.05,9.21-1.02.61-1.96,1.34-3.03,1.86,0-3.16.01-6.31.05-9.47Z"/>
      <path class="cls-5" d="M31.96,24.98c.58-.29,1.16-.58,1.73-.87,0,.31,0,.61-.01.92-1.34.61-2.63,1.31-3.97,1.91,0-.31,0-.63,0-.94.7-.44,1.52-.63,2.25-1.02Z"/>
      <path class="cls-5" d="M39.98,26.99c1.19-.68,2.39-1.33,3.55-2.06.03.88,0,1.75,0,2.63-1.25.64-2.29,1.63-3.55,2.25,0-.94,0-1.88,0-2.83Z"/>
      <path class="cls-5" d="M25.29,27.57c.92-.52,1.85-1.02,2.81-1.47.06,2.63.02,5.27.11,7.9-.02,1.11.06,2.22-.03,3.32-.93.59-1.92,1.09-2.85,1.67-.05-3.81,0-7.61-.03-11.42Z"/>
      <path class="cls-5" d="M20.66,30.17c.88-.56,1.81-1.06,2.74-1.54,0,.58,0,1.17.02,1.75-.11,0-.32.02-.43.03-.78.37-1.53.77-2.3,1.17,0-.47,0-.94-.03-1.41Z"/>
      <path class="cls-5" d="M45.81,28.92c.21-.11.43-.23.66-.33.09.12.2.24.32.34.04,2.14-.01,4.28.04,6.43-.02.78.04,1.57-.03,2.35-.28.31-.68.49-1.02.74,0-3.17,0-6.35.03-9.52Z"/>
      <path class="cls-5" d="M40.71,32.28c1.16-.68,2.17-1.58,3.31-2.29,0,.72,0,1.44,0,2.15-.42,0-.75.27-1.09.48-.76.48-1.51.98-2.24,1.51.03-.61.04-1.23.02-1.85Z"/>
      <path class="cls-5" d="M30.92,32.54c.9-.61,1.84-1.14,2.77-1.7,0,1.03.02,2.06-.01,3.1-1.31.81-2.67,1.54-3.96,2.37-.01-1.03,0-2.06-.02-3.09.49-.05.83-.43,1.22-.68Z"/>
      <path class="cls-5" d="M16.87,32.52c.71-.49,1.38-1.04,2.16-1.42.15,1.63.11,3.27.11,4.91-.02,2.01,0,4.03,0,6.04-.02.11-.05.34-.07.45-.7.49-1.44.91-2.17,1.35,0-3.78-.09-7.56-.03-11.34Z"/>
      <path class="cls-5" d="M34.55,35.72c1.59-.97,3.27-1.78,4.89-2.69-.06.09-.12.19-.17.28-.25.15-.48.37-.41.69,0,3.02-.02,6.04.01,9.05-.9.58-1.75,1.24-2.72,1.7.01-2.18.01-4.36-.03-6.55,0-1.04-.57-2.09-1.57-2.48Z"/>
      <path class="cls-5" d="M20.66,38.18c.96-.5,1.91-1.03,2.88-1.5,0,1.08,0,2.15,0,3.23-.97.56-1.91,1.16-2.89,1.7,0-1.15,0-2.29,0-3.43Z"/>
      <path class="cls-5" d="M40.61,39.77c1.24-.61,2.39-1.41,3.48-2.26,0,.68,0,1.37,0,2.05-1.18.78-2.31,1.64-3.5,2.41-.02-.73-.02-1.46.01-2.19Z"/>
      <path class="cls-5" d="M25.18,41.97c1.02-.51,1.95-1.18,2.93-1.78-.25.79-.35,1.62-.4,2.45-.19.63-.12,1.28-.13,1.93,0,1.74,0,3.48,0,5.23-.84.4-1.55,1.01-2.35,1.48.04-3.1-.15-6.21-.04-9.31Z"/>
      <path class="cls-5" d="M20.24,44.82c1.01-.72,2.13-1.26,3.19-1.9-.02.58.08,1.18-.03,1.74-.73.5-1.42,1.05-2.21,1.46-.32.17-.63.35-.89.59,0-.63.03-1.27-.06-1.89Z"/>
      <path class="cls-5" d="M16.7,46.75c.63-.36,1.25-.74,1.88-1.1.04,3.23.09,6.47.04,9.71-.63.42-1.26.85-1.87,1.3-.15-3.3-.09-6.61-.05-9.91Z"/>
      <path class="cls-5" d="M20.62,52.02c.96-.6,1.91-1.21,2.83-1.88.01.73,0,1.46.01,2.19-1.01.67-2.03,1.33-3.07,1.94-.03-.8-.06-1.6-.05-2.4.07.04.21.11.28.14Z"/>
    </g>
  </g>
</svg>