<?xml version="1.0" encoding="UTF-8"?>
<svg id="Layer_2" data-name="Layer 2" xmlns="http://www.w3.org/2000/svg" viewBox="0 0 31.93 31.46">
  <defs>
    <style>
      .cls-1 {
        fill: #050505;
      }

      .cls-2 {
        fill: #bea278;
      }

      .cls-3 {
        fill: #faa67a;
      }

      .cls-4 {
        fill: #625241;
      }
    </style>
  </defs>
  <g id="Réteg_1" data-name="Réteg 1">
    <g>
      <path class="cls-1" d="M30.87,23.53c.14-2.57.06-5.15-.01-7.73.34-.21.77-.35,1.01-.69.2-.54-.15-1.09-.45-1.52-.82-1.02-1.77-1.94-2.53-3.01-1.01-1.42-2.14-2.75-3.14-4.18-.52-.8-1.53-1.1-2.44-.98-1.2.14-2.39.4-3.56.72-.77-1.76-1.73-3.43-2.83-5.01-.17-.1-.34-.18-.51-.24-.19-.28-.32-.64-.62-.83-.34-.1-.71-.08-1.02.11-1.59.81-3.26,1.53-4.65,2.67-.78.46-1.23,1.26-1.85,1.9-.91,1.09-1.94,2.09-2.82,3.21-.24.11-.63.21-.6.56-.05,1.06,0,2.12-.02,3.18-1.24.27-2.29.99-3.38,1.59-.49.32-1.1.51-1.41,1.04.23.65.13,1.35.14,2.03,0,1.08.02,2.16-.12,3.23,0,.42-.17.93.14,1.29.42.48,1.05.68,1.61.94,2.68,1.16,5.09,2.83,7.63,4.26.01,0,.03.02.04.02,1.39.68,2.36,1.93,3.71,2.67,1.11.78,1.91,1.97,3.17,2.54.48.23,1.04.17,1.52-.02,1.15-.44,2.16-1.17,3.24-1.76,2.06-1.16,4.25-2.07,6.2-3.42,1.21-.83,2.45-1.62,3.55-2.59Z"/>
      <path class="cls-1" d="M14.76.17c.31-.19.67-.21,1.02-.11.29.19.42.55.62.83.18.06.35.15.51.24,1.1,1.57,2.05,3.25,2.83,5.01,1.17-.32,2.36-.58,3.56-.72.91-.12,1.92.18,2.44.98,1,1.43,2.13,2.76,3.14,4.18.76,1.07,1.71,1.99,2.53,3.01.31.43.65.97.45,1.52-.24.34-.67.48-1.01.69.07,2.57.15,5.16.01,7.73-1.1.97-2.34,1.76-3.55,2.59-1.95,1.34-4.14,2.26-6.2,3.42-1.08.59-2.09,1.31-3.24,1.76-.48.19-1.04.26-1.52.02-1.26-.58-2.06-1.77-3.17-2.54-1.35-.74-2.32-1.99-3.71-2.67-.01,0-.03-.02-.04-.02-2.54-1.43-4.95-3.1-7.63-4.26-.56-.26-1.19-.46-1.61-.94-.31-.36-.15-.86-.14-1.29.14-1.07.13-2.15.12-3.23-.02-.68.08-1.38-.14-2.03.31-.53.92-.72,1.41-1.04,1.09-.59,2.15-1.32,3.38-1.59.01-1.06-.03-2.12.02-3.18-.02-.35.36-.45.6-.56.89-1.12,1.91-2.12,2.82-3.21.62-.63,1.07-1.44,1.85-1.9,1.39-1.14,3.06-1.86,4.65-2.67ZM10.74,3.35c.44.67.82,1.38,1.14,2.12.7,1.67,1.5,3.31,1.9,5.09,1.83-.51,3.44-1.56,5.19-2.29.46-.13.4-.66.29-1.02-.52-1.63-1.41-3.12-2.36-4.52-.36-.76-1.03-1.28-1.48-1.96-1.59.79-3.23,1.52-4.68,2.57ZM8.8,5.46c-.61.63-1.02,1.44-1.7,2.02-.45.47-1.03.93-1.22,1.57-.03,4.58.04,9.16-.04,13.73.56.26,1.13.52,1.68.82-.02-1.22-.08-2.44,0-3.66.34-.62.56-1.46,1.31-1.71.59-.12,1.05.32,1.4.73.1-.07.3-.21.39-.28.26-.11.32.29.26.46-.15.08-.31.16-.47.23.71,1.46.31,3.11.42,4.66,0,.39.08,1.23-.55,1.04-.41-.28-.3-.79-.31-1.22-.01-1.07.05-2.15.01-3.22-.12-.55-.31-1.12-.68-1.56-.18-.22-.52-.08-.56.18-.7,1.55-.22,3.28-.41,4.91.63.28,1.28.56,1.81,1.02.6.29,1.14.67,1.64,1.12.06-.24.13-.47.2-.69.31.21.59.45.86.72-.13.17-.26.35-.4.53.14.11.28.22.42.34-.03-3.98.03-7.95-.01-11.93.02-2.03.39-4.16-.42-6.09-.72-1.79-1.38-3.62-2.36-5.28-.41.53-.83,1.06-1.29,1.55ZM19.95,6.75c.05.13.1.27.15.4.56-.31,1.15-.54,1.75-.75-.64.08-1.27.21-1.9.35ZM20.29,7.99c.01,1.84.09,3.68.02,5.51-.42.81-1.35,1.08-2.07,1.56-1.21.77-2.59,1.18-3.82,1.92.79,1.72,2.22,3.04,3.02,4.76.71-.15,1.34-.53,1.98-.85,2.27-1.06,4.47-2.26,6.6-3.58,1.62-.96,3.3-1.79,4.95-2.68-.79-1.18-1.88-2.11-2.7-3.27-.41-.45-.67-1.07-1.22-1.37-.31-.55-.61-1.1-1.04-1.57-.52-.6-.88-1.34-1.47-1.88-1.5.19-2.85.92-4.25,1.44ZM13.93,11.21c0,.77,0,1.53.01,2.3.02.94-.21,1.87-.15,2.82,1.87-.95,3.79-1.83,5.55-2.99.02-1.48,0-2.97.1-4.45-1.87.7-3.56,1.84-5.51,2.31ZM1.73,14.27c-.24.18-.68.29-.65.67-.02,1.85.02,3.7.02,5.55.21.08.43.16.64.24.19-.93.19-2.01.89-2.75.4-.32.9.09,1.06.48.5,1.05.41,2.26.38,3.4.25.13.51.26.76.4-.02-3.2,0-6.41-.02-9.61-1.1.38-2.05,1.09-3.08,1.62ZM22.96,20.14c-1.39.77-2.87,1.36-4.26,2.13.03,2.5,0,5.01,0,7.51,1.02-.57,2.04-1.16,3.06-1.74-.02-.12-.05-.35-.06-.47.17.06.35.12.52.18.75-.31,1.45-.76,2.24-.98,1.83-.85,3.43-2.1,5.05-3.29.22-.17.46-.4.41-.71,0-2.19-.03-4.37.07-6.55-2.4,1.21-4.68,2.62-7.02,3.91ZM13.85,17.77c-.11,3.22,0,6.44-.04,9.66-.07.38.24.63.47.88.11-.73.12-1.54.58-2.16.32-.38.92-.19,1.14.2.6.89.32,2.01.17,2.99.16-.23.31-.77.69-.55.36.29-.02.78-.28,1.01-.27-.09-.54-.17-.81-.23.42.74,1.36,1.11,2.13.68-.1-2.53-.03-5.06-.04-7.59-.45-.08-1.01-.09-1.21-.59-.77-1.54-1.97-2.82-2.81-4.31ZM2.99,18.96c-.19.61-.32,1.23-.33,1.87-.1.36.27.46.51.61.03-.82.14-1.69-.18-2.48ZM15.31,26.8c-.28.79-.26,1.65-.19,2.48.3-.23.33-.62.39-.96.09-.51.14-1.09-.2-1.52Z"/>
      <path class="cls-1" d="M13.86,4.14c.63-.12.97.64,1.05,1.15-.42-.32-.78-.7-1.05-1.15Z"/>
      <path class="cls-1" d="M16.27,6.06c-.31-.24.06-.71.31-.34.31.24-.06.65-.31.34Z"/>
      <path class="cls-1" d="M13.9,6.44c.59-.12.74.71.78,1.15-.53-.04-.9-.66-.78-1.15Z"/>
      <path class="cls-1" d="M8.88,8.59c.52-.24,1.06.07,1.51.33,1.16.63,1.65,2.1,1.43,3.35-.11.74-.2,1.64-.89,2.09-.54.41-1.24.13-1.79-.08-.54-.24-1.21-.43-1.48-1.01-.4-.87-.13-1.84.02-2.73.13-.77.46-1.59,1.21-1.95ZM9.24,9.1c-.93.56-.7,1.86-1.01,2.76-.37.9.57,1.84,1.47,1.8.61.09.97-.54,1.09-1.05.32-.93.27-2.06-.41-2.81-.39-.22-.74-.54-1.14-.7Z"/>
      <path class="cls-1" d="M25.62,9.77c.56.02.72.71.74,1.17-.35-.28-.9-.65-.74-1.17Z"/>
      <path class="cls-1" d="M23.88,10.48c.22.23.71.48.44.86-.31-.17-.61-.48-.44-.86Z"/>
      <path class="cls-1" d="M16.38,10.85c.45-.39.93.24,1.05.65.1.48.34,1.09.02,1.53-.47.11-.96.28-1.44.23-.35-.11-.27-.55-.25-.82.09-.56.21-1.16.61-1.58ZM16.39,12.52c.18-.02.37-.04.55-.06-.04-.33-.09-.66-.16-.98-.2.32-.31.68-.4,1.04Z"/>
      <path class="cls-1" d="M22.47,11.12c.5-.01.86.35,1.04.79-.5,0-.88-.34-1.04-.79Z"/>
      <path class="cls-1" d="M27.79,12.64c.54-.03.47.55.48.93-.28-.24-.41-.58-.48-.93Z"/>
      <path class="cls-1" d="M26.55,14.28c.58-.08.84.64,1.1,1.05-.05.07-.15.21-.2.28-.38-.39-.71-.82-.9-1.33Z"/>
      <path class="cls-1" d="M21.67,14.36c.55.2.82.77.92,1.31-.42-.34-.83-.75-.92-1.31Z"/>
      <path class="cls-1" d="M25.5,14.57c.54.34.85,1.01.81,1.65-.47-.42-.86-1-.81-1.65Z"/>
      <path class="cls-1" d="M2.98,16.72c-.14-.36-.15-.87.3-.99.71.09.27,1.06-.3.99Z"/>
      <path class="cls-1" d="M24.11,16c.09-.36.36.01.46.11.26.29.44.64.51,1.02-.45-.24-.78-.66-.97-1.13Z"/>
      <path class="cls-1" d="M20.83,16.25c.21-.11.37-.07.5.11.32.4.66.89.53,1.43-.47-.4-.92-.91-1.04-1.54Z"/>
      <path class="cls-1" d="M17.75,16.69c.61.24.95.88,1.07,1.5-.54-.32-1.08-.83-1.07-1.5Z"/>
      <path class="cls-1" d="M20.48,17.86c.53,0,.82.74.84,1.2-.37.18-.58-.29-.75-.52-.1-.18-.37-.54-.08-.68Z"/>
      <path class="cls-1" d="M6.7,18.33c.62-.13.41,1.11-.17.85-.29-.25-.12-.67.17-.85Z"/>
      <path class="cls-1" d="M17.26,18.55c.54-.17.66.48.83.84-.4-.09-.99-.32-.83-.84Z"/>
      <path class="cls-1" d="M19.73,18.69c.24-.22.45.12.61.26.2.25.51.55.35.91-.56,0-.97-.65-.96-1.17Z"/>
      <path class="cls-1" d="M25.11,21.35c.1-.46.24-1.01.67-1.25.57-.18.96.38,1.19.82.31,0,.79.03.67.48-.14,0-.42.02-.56.02.05.54.11,1.13-.15,1.64-.23.36-.68.44-1.07.38-.19.11-.36.53-.61.25-.36-.72-.25-1.57-.15-2.34ZM25.71,22.78c.23-.17.57-.26.67-.55.13-.53-.06-1.07-.26-1.55-.52.58-.41,1.39-.41,2.11Z"/>
      <path class="cls-1" d="M6.37,21.07c.27-.19.51.28.29.46-.27.2-.52-.29-.29-.46Z"/>
      <path class="cls-1" d="M11.33,22.88c.24-.16.47.26.27.42-.25.17-.49-.27-.27-.42Z"/>
      <path class="cls-1" d="M21.41,23.21c.2-.45.86-.44,1.07,0,.36.69.46,1.48.54,2.25-.1.58-.78.77-1.28.59.13-.37.32-.71.57-1.01-.05-.56-.16-1.11-.34-1.63-.47.79-.58,1.7-.64,2.6-.11.27-.27.29-.45.08-.16-.98.1-2,.53-2.88Z"/>
      <path class="cls-1" d="M11.9,24.25c.59.09.12,1-.33,1.01-.28-.36.09-.75.33-1.01Z"/>
      <path class="cls-1" d="M14.77,24.31c.29-.25,1.02-.01.79.45-.2.53-1.4-.06-.79-.45Z"/>
      <path class="cls-1" d="M26.22,24.93c.29-.11.39-.01.31.28-.29.1-.39,0-.31-.28Z"/>
      <path class="cls-1" d="M19.93,25.32c.32-.29.79.12.63.49-.32.24-.83-.1-.63-.49Z"/>
      <path class="cls-1" d="M23.27,26.2c.13-.49.78-.1.89.23-.31.1-.86.24-.89-.23Z"/>
      <path class="cls-1" d="M19.34,26.92c-.13-.3.17-.49.33-.67.23.29.47.57.7.86-.26.46-.91.29-1.03-.19Z"/>
      <path class="cls-1" d="M16.53,26.9c.46-.04.9.48.45.82-.54.15-.52-.46-.45-.82Z"/>
      <path class="cls-1" d="M19.89,28.73c-.32-.16-.34-.65,0-.78.31-.21.5.24.7.38-.19.19-.38.53-.71.41Z"/>
      <path class="cls-4" d="M8.8,5.46c.46-.49.88-1.02,1.29-1.55.98,1.66,1.63,3.49,2.36,5.28.8,1.94.44,4.06.42,6.09.04,3.98-.02,7.95.01,11.93-.14-.12-.28-.23-.42-.34.13-.18.26-.36.4-.53-.27-.27-.56-.51-.86-.72-.07.23-.13.46-.2.69-.5-.44-1.05-.82-1.64-1.12-.53-.46-1.18-.74-1.81-1.02.19-1.64-.28-3.37.41-4.91.04-.26.38-.4.56-.18.37.43.56,1,.68,1.56.03,1.07-.02,2.14-.01,3.22.02.42-.09.94.31,1.22.63.19.55-.66.55-1.04-.12-1.55.28-3.2-.42-4.66.16-.07.31-.15.47-.23.06-.17,0-.57-.26-.46-.1.07-.3.21-.39.28-.35-.41-.81-.85-1.4-.73-.74.25-.97,1.09-1.31,1.71-.09,1.21-.03,2.44,0,3.66-.55-.3-1.11-.56-1.68-.82.08-4.58,0-9.16.04-13.73.19-.65.77-1.1,1.22-1.57.68-.57,1.08-1.39,1.7-2.02ZM8.88,8.59c-.74.35-1.08,1.18-1.21,1.95-.15.89-.41,1.87-.02,2.73.27.58.94.78,1.48,1.01.56.21,1.26.49,1.79.08.69-.46.77-1.35.89-2.09.22-1.25-.27-2.72-1.43-3.35-.45-.26-.99-.57-1.51-.33ZM6.7,18.33c-.28.17-.46.59-.17.85.58.26.78-.97.17-.85ZM6.37,21.07c-.24.17.01.67.29.46.22-.18-.02-.66-.29-.46ZM11.33,22.88c-.22.16.02.6.27.42.2-.17-.03-.59-.27-.42ZM11.9,24.25c-.24.26-.61.65-.33,1.01.45,0,.92-.92.33-1.01Z"/>
      <path class="cls-4" d="M16.9,6.06c.21-.12.45.22.32.41-.21.11-.45-.23-.32-.41Z"/>
      <path class="cls-4" d="M9.24,9.1c.4.16.76.48,1.14.7.68.75.73,1.88.41,2.81-.12.5-.48,1.13-1.09,1.05-.9.05-1.85-.9-1.47-1.8.31-.9.07-2.21,1.01-2.76Z"/>
      <path class="cls-4" d="M1.73,14.27c1.03-.54,1.98-1.24,3.08-1.62.02,3.2,0,6.41.02,9.61-.25-.13-.51-.27-.76-.4.02-1.13.12-2.34-.38-3.4-.16-.39-.66-.8-1.06-.48-.69.73-.69,1.81-.89,2.75-.22-.08-.43-.16-.64-.24,0-1.85-.04-3.7-.02-5.55-.03-.37.41-.49.65-.67ZM2.98,16.72c.57.08,1.01-.9.3-.99-.45.12-.44.63-.3.99Z"/>
      <path class="cls-4" d="M13.85,17.77c.84,1.5,2.03,2.77,2.81,4.31.2.49.76.51,1.21.59,0,2.53-.06,5.06.04,7.59-.77.44-1.71.06-2.13-.68.27.06.54.14.81.23.26-.24.64-.72.28-1.01-.38-.22-.53.32-.69.55.15-.98.43-2.1-.17-2.99-.22-.39-.82-.58-1.14-.2-.46.62-.47,1.43-.58,2.16-.23-.25-.54-.5-.47-.88.04-3.22-.07-6.44.04-9.66ZM14.77,24.31c-.61.39.6.98.79.45.23-.46-.5-.7-.79-.45ZM16.53,26.9c-.07.36-.1.97.45.82.45-.34,0-.86-.45-.82Z"/>
      <path class="cls-4" d="M2.99,18.96c.32.78.21,1.65.18,2.48-.24-.14-.61-.25-.51-.61.01-.64.14-1.27.33-1.87Z"/>
      <path class="cls-4" d="M25.71,22.78c0-.71-.11-1.53.41-2.11.2.49.38,1.02.26,1.55-.1.3-.43.39-.67.55Z"/>
      <path class="cls-4" d="M23.51,22.13c.14-.22.64-.06.4.2-.14.23-.63.06-.4-.2Z"/>
      <path class="cls-4" d="M21.33,26.01c.06-.9.16-1.82.64-2.6.18.52.29,1.07.34,1.63-.25.3-.44.64-.57,1.01-.1,0-.31-.02-.41-.03Z"/>
      <path class="cls-4" d="M9.43,26.07s.03.02.04.02c-.01,0-.03-.02-.04-.02Z"/>
      <path class="cls-4" d="M15.31,26.8c.35.43.29,1.01.2,1.52-.07.34-.1.72-.39.96-.06-.83-.09-1.68.19-2.48Z"/>
      <path class="cls-2" d="M13.93,11.21c1.96-.47,3.65-1.61,5.51-2.31-.1,1.48-.09,2.97-.1,4.45-1.76,1.16-3.67,2.04-5.55,2.99-.06-.95.17-1.88.15-2.82,0-.77-.01-1.54-.01-2.3ZM16.38,10.85c-.4.42-.52,1.02-.61,1.58-.03.27-.1.71.25.82.49.05.97-.12,1.44-.23.32-.44.08-1.05-.02-1.53-.13-.41-.6-1.04-1.05-.65Z"/>
      <path class="cls-2" d="M16.39,12.52c.09-.36.2-.72.4-1.04.07.32.12.65.16.98-.19.02-.37.04-.55.06Z"/>
      <path class="cls-2" d="M22.96,20.14c2.35-1.3,4.63-2.71,7.02-3.91-.09,2.18-.06,4.37-.07,6.55.06.31-.19.53-.41.71-1.62,1.19-3.21,2.44-5.05,3.29-.79.22-1.48.67-2.24.98-.17-.06-.35-.13-.52-.18.01.12.04.35.06.47-1.02.58-2.03,1.16-3.06,1.74,0-2.5.02-5.01,0-7.51,1.39-.77,2.87-1.36,4.26-2.13ZM25.11,21.35c-.1.77-.21,1.61.15,2.34.24.28.42-.15.61-.25.4.06.84-.02,1.07-.38.26-.51.19-1.09.15-1.64.14,0,.42-.02.56-.02.12-.46-.36-.48-.67-.48-.23-.44-.62-1-1.19-.82-.44.24-.57.79-.67,1.25ZM23.51,22.13c-.23.27.26.44.4.2.23-.27-.27-.43-.4-.2ZM21.41,23.21c-.44.88-.69,1.89-.53,2.88.19.22.34.19.45-.08.1,0,.31.02.41.03.5.18,1.18,0,1.28-.59-.07-.76-.18-1.56-.54-2.25-.21-.43-.87-.45-1.07,0ZM26.22,24.93c-.08.29.02.38.31.28.08-.3-.02-.39-.31-.28ZM19.93,25.32c-.19.39.31.73.63.49.16-.37-.31-.78-.63-.49ZM23.27,26.2c.04.47.59.33.89.23-.12-.33-.76-.72-.89-.23ZM19.34,26.92c.12.47.77.65,1.03.19-.23-.29-.47-.57-.7-.86-.16.19-.46.37-.33.67ZM19.89,28.73c.33.12.52-.21.71-.41-.2-.14-.4-.59-.7-.38-.34.14-.32.63,0,.78Z"/>
      <path class="cls-3" d="M10.74,3.35c1.44-1.05,3.08-1.78,4.68-2.57.46.68,1.12,1.21,1.48,1.96.96,1.41,1.84,2.89,2.36,4.52.11.36.17.89-.29,1.02-1.75.72-3.35,1.77-5.19,2.29-.4-1.78-1.2-3.42-1.9-5.09-.32-.74-.71-1.45-1.14-2.12ZM13.86,4.14c.27.45.63.84,1.05,1.15-.08-.51-.42-1.27-1.05-1.15ZM16.27,6.06c.25.31.62-.1.31-.34-.24-.37-.62.1-.31.34ZM16.9,6.06c-.14.17.1.52.32.41.14-.18-.11-.53-.32-.41ZM13.9,6.44c-.12.49.25,1.11.78,1.15-.04-.44-.19-1.27-.78-1.15Z"/>
      <path class="cls-3" d="M19.95,6.75c.63-.14,1.26-.27,1.9-.35-.6.21-1.2.43-1.75.75-.05-.14-.1-.27-.15-.4Z"/>
      <path class="cls-3" d="M20.29,7.99c1.4-.52,2.76-1.25,4.25-1.44.59.54.95,1.28,1.47,1.88.42.47.73,1.02,1.04,1.57.55.31.81.92,1.22,1.37.82,1.16,1.91,2.09,2.7,3.27-1.65.89-3.33,1.73-4.95,2.68-2.13,1.31-4.33,2.52-6.6,3.58-.64.32-1.27.7-1.98.85-.79-1.72-2.23-3.04-3.02-4.76,1.22-.74,2.61-1.15,3.82-1.92.72-.47,1.65-.74,2.07-1.56.08-1.84,0-3.68-.02-5.51ZM25.62,9.77c-.16.51.39.89.74,1.17-.02-.46-.18-1.14-.74-1.17ZM23.88,10.48c-.17.37.13.69.44.86.27-.37-.22-.63-.44-.86ZM22.47,11.12c.16.45.54.8,1.04.79-.17-.44-.54-.8-1.04-.79ZM27.79,12.64c.06.35.19.69.48.93,0-.38.06-.96-.48-.93ZM26.55,14.28c.18.51.52.94.9,1.33.05-.07.15-.21.2-.28-.26-.41-.52-1.13-1.1-1.05ZM21.67,14.36c.08.56.5.97.92,1.31-.1-.54-.37-1.11-.92-1.31ZM25.5,14.57c-.05.65.34,1.23.81,1.65.04-.64-.26-1.31-.81-1.65ZM24.11,16c.19.47.52.89.97,1.13-.07-.39-.25-.73-.51-1.02-.11-.1-.37-.47-.46-.11ZM20.83,16.25c.12.62.57,1.13,1.04,1.54.12-.54-.22-1.03-.53-1.43-.13-.18-.3-.22-.5-.11ZM17.75,16.69c0,.67.54,1.18,1.07,1.5-.12-.62-.46-1.26-1.07-1.5ZM20.48,17.86c-.28.14-.02.49.08.68.17.23.39.7.75.52-.02-.47-.31-1.2-.84-1.2ZM17.26,18.55c-.16.52.43.75.83.84-.17-.36-.29-1.01-.83-.84ZM19.73,18.69c0,.51.4,1.17.96,1.17.16-.35-.15-.65-.35-.91-.16-.14-.37-.48-.61-.26Z"/>
    </g>
  </g>
</svg>