<?xml version="1.0" encoding="UTF-8"?>
<svg id="Layer_2" data-name="Layer 2" xmlns="http://www.w3.org/2000/svg" viewBox="0 0 32.67 56.49">
  <defs>
    <style>
      .cls-1 {
        fill: #050505;
      }

      .cls-2 {
        fill: #cc6128;
      }

      .cls-3 {
        fill: #bea278;
      }

      .cls-4 {
        fill: #faa67a;
      }

      .cls-5 {
        fill: #625241;
      }
    </style>
  </defs>
  <g id="Réteg_1" data-name="Réteg 1">
    <g>
      <path class="cls-1" d="M31.53,29.68c-.85-2.55-2.39-4.78-3.45-7.23-.39-.81-.82-1.69-1.6-2.18-1.14,0-2.05.83-3.05,1.27-1.1.46-2.11,1.09-3.22,1.53-.86.36-1.66.85-2.52,1.21.05-1.21-.02-2.42.02-3.62.05-1.14-.1-2.28.18-3.4-.27-.9-.8-1.7-1.17-2.56-1.85-3.82-3.67-7.65-5.53-11.46-.51-.88-.07-1.94-.34-2.88-.15-.49-.97-.48-1.11.01-.17.7.01,1.44-.17,2.14-1.59,4.12-3.39,8.15-5.14,12.2-.27.69-.76,1.32-.73,2.09.01,1.7-.09,3.41.11,5.1.01,2.39,0,4.77,0,7.16-.13.57-.46,1.09-.74,1.59-.98,1.24-2.09,2.4-2.81,3.82-.36.5-.23,1.14-.24,1.72.01,2.86.02,5.71.03,8.57.04.25-.05.56.11.77,1.16,1.17,2.65,1.96,3.8,3.14.73.71,1.67,1.18,2.44,1.84,1.02.71,1.9,1.59,2.96,2.24,1.59,1.13,3.29,2.13,4.69,3.49.17.19.38.26.64.21.3-.22.5-.59.89-.66.89-.26,1.67-.75,2.42-1.28.82-.6,1.8-.94,2.67-1.45,1.31-.76,2.59-1.56,3.87-2.37,2.56-1.74,5.19-3.36,7.66-5.22.12-.57.24-1.14.35-1.71-.08,0-.23.01-.31.02.03-3.34-.06-6.68-.14-10.02.24-.29.6-.55.56-.96-.05-1.14-.79-2.08-1.14-3.14Z"/>
      <path class="cls-1" d="M9.75.37c.14-.49.95-.5,1.11-.01.27.94-.17,2,.34,2.88,1.85,3.82,3.68,7.65,5.53,11.46.38.86.9,1.66,1.17,2.56-.28,1.11-.13,2.26-.18,3.4-.05,1.21.02,2.42-.02,3.62.86-.37,1.66-.86,2.52-1.21,1.11-.44,2.12-1.07,3.22-1.53,1-.45,1.92-1.28,3.05-1.27.78.49,1.21,1.37,1.6,2.18,1.05,2.46,2.6,4.68,3.45,7.23.34,1.06,1.09,2,1.14,3.14.04.41-.32.68-.56.96.08,3.34.17,6.68.14,10.02.08,0,.23-.01.31-.02-.11.57-.23,1.14-.35,1.71-2.47,1.86-5.1,3.48-7.66,5.22-1.27.81-2.56,1.62-3.87,2.37-.88.51-1.85.85-2.67,1.45-.75.53-1.54,1.02-2.42,1.28-.39.08-.59.44-.89.66-.26.06-.47-.01-.64-.21-1.4-1.36-3.1-2.36-4.69-3.49-1.06-.65-1.94-1.53-2.96-2.24-.78-.66-1.71-1.13-2.44-1.84-1.15-1.19-2.64-1.97-3.8-3.14-.16-.22-.08-.53-.11-.77-.02-2.86-.02-5.71-.03-8.57.02-.58-.11-1.21.24-1.72.71-1.42,1.83-2.59,2.81-3.82.29-.51.61-1.03.74-1.59,0-2.39.02-4.77,0-7.16-.2-1.69-.1-3.4-.11-5.1-.03-.77.46-1.4.73-2.09,1.75-4.05,3.55-8.09,5.14-12.2.19-.7,0-1.44.17-2.14ZM10.18,3.32c-.26.58-.5,1.17-.73,1.77-1.41,3.83-2.75,7.7-4.18,11.52.55.5,1.15.93,1.71,1.41,1.06.88,2.07,1.88,3.34,2.46.16-4.58-.07-9.16-.05-13.74-.04-1.14.08-2.29-.09-3.42ZM11.07,14.78c.13,1.84.07,3.7.29,5.53,1.03-.45,1.98-1.06,2.96-1.6.72-.4,1.3-1,1.84-1.61-1.78-4.12-3.53-8.26-5.33-12.37-.13,3.35.18,6.69.24,10.04ZM4.77,17.63c.01,1.32-.03,2.63.11,3.95.01,4.03,0,8.07,0,12.1.23.16.47.33.7.5-.24,0-.47.02-.71.03,0,3.16,0,6.32-.04,9.48-.07.41.3.69.37,1.07-.08.21-.22.38-.34.57-.03.71-.06,1.42,0,2.13.03.46.42.77.76,1.04.06-1.6.01-3.21.03-4.81,0-.94.28-1.89.86-2.63.4-.46,1.11-.88,1.69-.51.67.45.97,1.29.96,2.07.03,1.96.02,3.93.04,5.89.31-.23.57-.69,1.02-.54.01.64-.31,1.44-1.01,1.54-.07.47-.13.99-.54,1.31.61.28,1.12.72,1.66,1.11.14-6.43.05-12.86.17-19.29.02-.72-.14-1.44-.15-2.16-.02-2.94-.03-5.88-.02-8.82-2.22-.76-3.61-2.79-5.54-4.03ZM11.47,21.55c-.1,2.26,0,4.54-.06,6.8.13,1.86.07,3.72.1,5.58.27-.14.53-.28.77-.45,1.37-1,2.89-1.77,4.33-2.66,0-4.17,0-8.34,0-12.52-1.44,1.47-3.4,2.23-5.15,3.24ZM25.13,21.32c-1.77,1.02-3.51,2.11-5.34,3.03-.68.31-1.35.65-1.97,1.08.18.91,0,1.81-.12,2.71.07-.02.21-.08.28-.1-.74,1.1.36,2.67-.64,3.68-1.52,1.18-3.43,1.75-4.89,3.02.11.24.22.48.33.73-.23.75.12,1.52.24,2.26.65,1.97,1.27,3.96,2,5.9,1.32-.62,2.43-1.58,3.66-2.35,1.81-1.29,3.75-2.4,5.53-3.73,1.17-.79,2.34-1.57,3.49-2.39,1.38-.9,2.83-1.68,4.26-2.49-.29-1.07-.89-2-1.34-3-.7-1.62-1.52-3.19-2.41-4.71-.6-1.08-.98-2.28-1.66-3.32-.26-.51-.97-.58-1.43-.32ZM1.51,34.08c-.22.31-.57.62-.48,1.05.07,3.21-.09,6.42.05,9.62.89.7,1.83,1.34,2.77,1.96.03-5.12,0-10.24-.06-15.35-.88.8-1.54,1.8-2.27,2.73ZM27.99,36.32c-1.3.98-2.71,1.8-4.01,2.78-1.62,1.13-3.34,2.12-4.92,3.31-1.13.78-2.2,1.67-3.45,2.26,0,3.44.02,6.88,0,10.31,1.23-.89,2.39-1.89,3.83-2.44-.04-.04-.12-.11-.16-.15,0-.39-.35-.56-.69-.58,0-.19-.15-.46.06-.59.29-.36.99.11.59.52.33.04.66.11.91.35.47-.25.93-.52,1.37-.81.14-.21.18-.56.49-.57.79-.07,1.39-.61,2.03-1.02,1.68-1.11,3.31-2.27,4.99-3.37.09.01.26.03.34.04-.12-.34.26-.41.43-.58.38-.25.75-.52,1.11-.81-.08-3.52.04-7.04.09-10.56-1.04.57-2.02,1.24-3.01,1.9ZM11.65,51.56c.02.42-.04.85-.14,1.27.39.37.84.67,1.32.92-.01-.18-.04-.54-.05-.73.26-.1.53-.17.8-.22.02.14.06.4.08.54-.07.33-.53.26-.76.4.46.51,1.03.89,1.59,1.3-.13-3.38,0-6.77-.06-10.15-.3-.27-.5-.61-.59-1-.72-2.52-1.81-4.92-2.3-7.5,0,5.06.02,10.11.11,15.17ZM7.44,41.49c-.67.65-.86,1.67-.82,2.57.06,1.28,0,2.57.05,3.86.16.14.31.28.47.43-.12.05-.37.16-.49.21-.02.22-.02.43,0,.66.43.43.95.74,1.44,1.1-.08-2.74-.04-5.48.03-8.22-.07-.29-.28-.91-.67-.61Z"/>
      <path class="cls-1" d="M12.46,12.44c-.36-.14-.81-.67-.29-.92.53-.06.55.61.29.92Z"/>
      <path class="cls-1" d="M11.51,12.37c.27-.22.54.25.26.42-.27.23-.54-.26-.26-.42Z"/>
      <path class="cls-1" d="M6.89,14.6c.38.32.18,1.12-.38,1.03-.11-.41.11-.75.38-1.03Z"/>
      <path class="cls-1" d="M14.23,14.66c.37-.15.55.5.2.58-.34.1-.46-.4-.2-.58Z"/>
      <path class="cls-1" d="M7.71,15.39c.53.2.28.88.17,1.29-.07.02-.22.07-.29.09,0-.46.04-.92.12-1.38Z"/>
      <path class="cls-1" d="M11.89,15.77c.44.1.59.89.31,1.23-.66.24-.81-1.08-.31-1.23Z"/>
      <path class="cls-1" d="M12.95,16.43c.44-.24.74.55.42.81-.38-.04-.46-.5-.42-.81Z"/>
      <path class="cls-1" d="M8.52,18.1c-.58,0-.49-1.02,0-1.17.07.38.19.79,0,1.17Z"/>
      <path class="cls-1" d="M23.83,24.42c.2-.25.59.09.42.34-.2.26-.6-.1-.42-.34Z"/>
      <path class="cls-1" d="M7.56,24.63c.38-.22.82.21.98.54.21.89.08,1.89-.43,2.66-.23.45-.98.29-1.03-.2-.1-.78.04-1.57.15-2.34.05-.24.09-.53.32-.65Z"/>
      <path class="cls-1" d="M13.45,25.38c.27-.12.52-.26.74-.44.19.08.44.14.51.38.12.6.19,1.29-.14,1.83-.21.33-.77.61-1.07.23-.14-.29-.14-.62-.19-.93-.39.07-.54-.07-.45-.42.12.02.36.07.48.09.04-.25.08-.5.12-.75ZM13.82,25.61c-.03.42-.04.84-.02,1.27.43-.24.55-1.1.02-1.27Z"/>
      <path class="cls-1" d="M20.98,25.42c.39.02.62.55.61.91-.43.28-1.1-.7-.61-.91Z"/>
      <path class="cls-1" d="M27.42,26.28c.37-.29.68.31.42.59-.37.12-.51-.31-.42-.59Z"/>
      <path class="cls-1" d="M25.14,26.48c.47-.1.68.47.79.83-.33-.14-.93-.37-.79-.83Z"/>
      <path class="cls-1" d="M19.35,27.31c.3-.11.49.42.16.49-.29.07-.46-.41-.16-.49Z"/>
      <path class="cls-1" d="M9.19,27.67c.11,0,.33,0,.44,0,0,.11-.02.33-.02.44-.1,0-.3,0-.39,0,0-.11-.02-.33-.02-.44Z"/>
      <path class="cls-1" d="M25.08,29.93c-.28-.24-.98-.85-.43-1.14.42.21.56.71.43,1.14Z"/>
      <path class="cls-1" d="M13.01,29.34c-.2-.31.24-.2.41-.19.25.02.44.19.59.38-.33-.05-.72.02-1-.19Z"/>
      <path class="cls-1" d="M29.77,29.12c.52-.11.86.61.65,1.03-.51.19-.98-.67-.65-1.03Z"/>
      <path class="cls-1" d="M12.21,30.14c.33,0,.45.3.57.55-.37.18-.8-.15-.57-.55Z"/>
      <path class="cls-1" d="M28.27,30.12c.56-.23.84.51,1.1.87.25.27.18.97-.29.64-.33-.45-.85-.91-.81-1.51Z"/>
      <path class="cls-1" d="M21.84,31.23c.6-.17.62.65.66,1.05-.48-.09-.72-.6-.66-1.05Z"/>
      <path class="cls-1" d="M24,31.24c.44-.14.55.39.7.69.07.26.31.69-.04.85-.43-.36-.76-.97-.67-1.54Z"/>
      <path class="cls-1" d="M27.15,31.38c-.18-.54.47-.22.53.04.3.55.82,1.08.7,1.75-.73-.27-1-1.12-1.22-1.8Z"/>
      <path class="cls-1" d="M6.95,32.55c-.49-.21-.44-.92-.13-1.25.47-.14.36.46.44.74.36-.11.88-.3,1.07.16.26.79.13,1.65.03,2.47-.09.5-.35,1.3-1.02,1.12-.34-.27-.61-.63-.77-1.03-.11-.76.13-1.5.38-2.2Z"/>
      <path class="cls-1" d="M12.96,31.83c.43-.14-.03,1.08-.4.59-.01-.27.2-.45.4-.59Z"/>
      <path class="cls-1" d="M17.05,32.33c.23.15-.2.63-.43.58-.17-.26.19-.56.43-.58Z"/>
      <path class="cls-1" d="M23.69,33.6c.4-.1.5.37.65.64.19.47.46.95.4,1.49-.28-.1-.56-.25-.66-.55-.21-.5-.54-1.03-.39-1.58Z"/>
      <path class="cls-1" d="M17.02,35.11c.44.09.52.53.6.9-.39-.14-.61-.49-.6-.9Z"/>
      <path class="cls-1" d="M22.48,36.17c-.53.05-.69-.89-.32-1.21.23.35.43.77.32,1.21Z"/>
      <path class="cls-1" d="M8.27,35.64c.68-.1.01.83-.17.22.04-.05.13-.16.17-.22Z"/>
      <path class="cls-1" d="M15.36,36.14c.49.15.4.71.45,1.11-.36-.26-.46-.69-.45-1.11Z"/>
      <path class="cls-1" d="M20.46,36.25c.53.04.76.76.64,1.21-.55.05-.89-.79-.64-1.21Z"/>
      <path class="cls-1" d="M6.33,36.64c.3-.06.44.34.29.58-.13.01-.38.04-.51.05.04-.22-.1-.58.22-.63Z"/>
      <path class="cls-1" d="M1.65,37.36c.25-.09.34,0,.26.25-.25.08-.34,0-.26-.25Z"/>
      <path class="cls-1" d="M19.2,38.07c.38.1.67.77.4,1.12-.44-.09-.81-.88-.4-1.12Z"/>
      <path class="cls-1" d="M27.8,39.86c.14-.42.36-.88.81-1.04.38-.11.63.25.74.56.41.97.28,2.06.26,3.09-.02.53-.05,1.18-.55,1.5-.32.2-.75.42-1.12.23-.02-.21-.02-.41-.03-.61-.2-1.22-.48-2.5-.11-3.72ZM28.66,39.51c-.49,1.2-.21,2.5.03,3.72.38-.32.23-.88.29-1.31-.02-.8.11-1.69-.32-2.41Z"/>
      <path class="cls-1" d="M6.27,39.58c.02-.45.44-.51.8-.54-.1.38-.49.43-.8.54Z"/>
      <path class="cls-1" d="M16.68,39.46c.21-.22.45.02.57.21.18.3.46.63.33,1.01-.34.19-.53-.2-.67-.43-.12-.24-.32-.5-.23-.78Z"/>
      <path class="cls-1" d="M1.63,41.72c.08-.77.09-1.81.91-2.18.65-.17.79.64.76,1.11-.05,1.19,0,2.69-1.06,3.49-.03.23-.06.46-.08.7-.13-.02-.39-.06-.52-.08-.15-.4-.07-.84-.05-1.25.72.16.89-.71.92-1.24-.07-.67.15-1.32.15-1.99-.47.95-.07,2.11-.57,3.04-.06,0-.18,0-.24,0-.51-.38-.22-1.06-.23-1.59Z"/>
      <path class="cls-1" d="M25.01,40.48c.16-.25.33-.54.68-.44.18.48-.37.44-.68.44Z"/>
      <path class="cls-1" d="M15.49,40.64c-.13-.28.08-.78.43-.49.31.54.49,1.19.41,1.82-.63-.12-.68-.84-.84-1.34Z"/>
      <path class="cls-1" d="M23.96,41.91c.11-.39.62-.81.98-.44.44.64.4,1.48.43,2.23,0,.8.18,1.69-.24,2.42-.49.43-.99.89-1.6,1.15-.14-.41-.54-.82-.32-1.26.37-.03.49.37.7.6-.33-.75-.24-1.58-.31-2.37,0-.79.11-1.59.36-2.33ZM24.35,42.97c.07.09.21.26.27.34-.64.78-.19,1.85-.23,2.77.27-.31.41-.71.38-1.12-.03-.92.04-1.85-.17-2.75-.09.25-.17.5-.25.76Z"/>
      <path class="cls-1" d="M27.03,42.27c0-.32.53-.32.53,0,0,.31-.53.32-.53,0Z"/>
      <path class="cls-1" d="M20.81,43.25c.26-.14.43.12.39.36-.11.02-.34.05-.45.06.01-.11.04-.32.06-.42Z"/>
      <path class="cls-1" d="M26.91,44.32c.62-.14.65.53.57.98-.4-.17-.6-.56-.57-.98Z"/>
      <path class="cls-1" d="M9.7,44.6c.35.07.61.7.15.8-.36-.09-.46-.59-.15-.8Z"/>
      <path class="cls-1" d="M18.17,45.55c.14-.42.33-.92.8-1.05.34-.07.66.22.76.53.47,1.41.54,2.91.55,4.39-.66.4-1.38.7-2.06,1.08-.48.05-.26-.44.02-.55.49-.31,1.01-.58,1.52-.86-.14-1.37-.13-2.81-.74-4.08-.66,1.43-.29,3.04-.4,4.56-.06.06-.19.18-.25.24-.45,0-.43-.45-.42-.75.02-1.17-.03-2.36.22-3.52Z"/>
      <path class="cls-1" d="M20.8,45.04c.27-.14.69.05.57.39-.29.34-.98-.02-.57-.39Z"/>
      <path class="cls-1" d="M28.62,45.86c.18-.22.4-.39.62-.56.05.14.14.42.19.56-.19.16-.39.31-.59.46-.06-.12-.17-.35-.23-.47Z"/>
      <path class="cls-1" d="M12.94,46.75c.24-.21.73-.19.84.16.43.89.3,1.9.3,2.86-.04.5,0,1.13-.43,1.48-.36.26-.76-.09-1.04-.31-.47-.36-.4-1.01-.4-1.54.03-.92.04-1.97.73-2.66ZM13.31,47.24c-.54.98-.39,2.16-.35,3.23.08.02.25.05.33.07.29-1.07.28-2.23.02-3.3Z"/>
      <path class="cls-1" d="M24.3,47.45c.21.07.55,0,.62.27.06.19-.15.39-.33.31-.26-.04-.2-.41-.29-.59Z"/>
      <path class="cls-1" d="M23.24,48.55c.36-.29.55.23.54.51-.33.03-.76-.09-.54-.51Z"/>
      <path class="cls-1" d="M20.84,49.42c-.04-.3.25-.49.41-.69.33.34.41.79.11,1.18-.2-.13-.55-.19-.52-.48Z"/>
      <path class="cls-1" d="M16.44,49.6c-.22-.24.07-.62.38-.5.34.03.44.39.55.65-.31.07-.72.16-.93-.16Z"/>
      <path class="cls-1" d="M9.69,50.34c.09.04.27.11.37.14-.13.24-.07.84-.49.65-.09-.27.06-.54.13-.79Z"/>
      <path class="cls-1" d="M20.47,50.42c.22-.21.8-.15.73.24-.02.41-.65.55-.93.3-.05-.2.03-.43.2-.54Z"/>
      <path class="cls-1" d="M17.08,51.84c.43.03,1.07-.18,1.33.27.15.47-.38.52-.69.59-.21.32-.19,1-.71.92-.44-.31-.26-.84.13-1.07-.02-.24-.04-.48-.06-.71Z"/>
      <path class="cls-5" d="M8.82,11.27c.29-.09.38,0,.29.3-.29.09-.39,0-.29-.3Z"/>
      <path class="cls-5" d="M4.77,17.63c1.93,1.23,3.32,3.26,5.54,4.03,0,2.94,0,5.88.02,8.82.01.72.17,1.43.15,2.16-.11,6.43-.03,12.86-.17,19.29-.55-.38-1.06-.82-1.66-1.11.41-.32.47-.83.54-1.31.71-.1,1.03-.9,1.01-1.54-.44-.14-.71.31-1.02.54-.02-1.96-.01-3.93-.04-5.89,0-.78-.29-1.62-.96-2.07-.58-.37-1.3.05-1.69.51-.58.74-.86,1.69-.86,2.63-.01,1.6.04,3.21-.03,4.81-.33-.27-.72-.58-.76-1.04-.06-.71-.02-1.42,0-2.13.12-.19.26-.37.34-.57-.07-.38-.43-.66-.37-1.07.04-3.16.05-6.32.04-9.48.24-.01.47-.03.71-.03-.23-.17-.47-.34-.7-.5-.01-4.03,0-8.07,0-12.1-.14-1.31-.1-2.63-.11-3.95ZM7.56,24.63c-.24.12-.27.42-.32.65-.11.77-.26,1.56-.15,2.34.04.5.79.66,1.03.2.51-.76.64-1.77.43-2.66-.16-.33-.6-.76-.98-.54ZM9.19,27.67c0,.11.02.33.02.44.1,0,.3,0,.39,0,0-.11.02-.33.02-.44-.11,0-.33,0-.44,0ZM6.95,32.55c-.25.7-.49,1.45-.38,2.2.16.4.44.76.77,1.03.67.18.93-.62,1.02-1.12.1-.81.22-1.68-.03-2.47-.19-.46-.71-.28-1.07-.16-.08-.28.03-.88-.44-.74-.31.34-.36,1.04.13,1.25ZM8.27,35.64c-.04.05-.13.16-.17.22.18.61.86-.31.17-.22ZM6.33,36.64c-.32.05-.17.41-.22.63.13-.01.38-.04.51-.05.16-.24.01-.64-.29-.58ZM6.27,39.58c.31-.12.7-.17.8-.54-.36.03-.78.09-.8.54ZM9.7,44.6c-.31.2-.22.71.15.8.46-.1.2-.73-.15-.8ZM9.69,50.34c-.07.26-.21.52-.13.79.42.19.36-.41.49-.65-.09-.04-.27-.11-.37-.14Z"/>
      <path class="cls-5" d="M13.82,25.61c.52.17.41,1.02-.02,1.27-.02-.42,0-.85.02-1.27Z"/>
      <path class="cls-5" d="M1.51,34.08c.74-.92,1.4-1.92,2.27-2.73.06,5.12.09,10.23.06,15.35-.95-.62-1.89-1.26-2.77-1.96-.14-3.2.02-6.42-.05-9.62-.08-.43.26-.73.48-1.05ZM1.65,37.36c-.07.25.02.33.26.25.07-.25-.02-.34-.26-.25ZM1.63,41.72c0,.53-.29,1.21.23,1.59.06,0,.18,0,.24,0,.5-.93.1-2.09.57-3.04,0,.67-.22,1.32-.15,1.99-.03.54-.19,1.4-.92,1.24-.02.41-.1.84.05,1.25.13.02.39.06.52.08.02-.24.05-.47.08-.7,1.06-.8,1.01-2.3,1.06-3.49.04-.47-.11-1.27-.76-1.11-.82.37-.83,1.41-.91,2.18Z"/>
      <path class="cls-5" d="M11.65,51.56c-.09-5.06-.1-10.11-.11-15.17.49,2.58,1.58,4.98,2.3,7.5.08.39.29.74.59,1,.06,3.38-.07,6.77.06,10.15-.55-.41-1.12-.79-1.59-1.3.23-.15.68-.07.76-.4-.02-.13-.06-.4-.08-.54-.27.05-.54.12-.8.22.01.18.04.55.05.73-.48-.24-.93-.55-1.32-.92.09-.42.15-.84.14-1.27ZM12.94,46.75c-.69.69-.7,1.74-.73,2.66,0,.52-.07,1.17.4,1.54.28.22.68.57,1.04.31.44-.35.4-.98.43-1.48,0-.96.13-1.97-.3-2.86-.1-.35-.59-.37-.84-.16Z"/>
      <path class="cls-5" d="M28.66,39.51c.44.72.3,1.6.32,2.41-.06.43.09.99-.29,1.31-.25-1.22-.52-2.52-.03-3.72Z"/>
      <path class="cls-5" d="M7.44,41.49c.39-.31.6.32.67.61-.07,2.73-.11,5.48-.03,8.22-.49-.36-1.01-.67-1.44-1.1-.02-.22-.01-.44,0-.66.12-.05.37-.16.49-.21-.16-.14-.31-.29-.47-.43-.05-1.29.01-2.57-.05-3.86-.04-.9.15-1.92.82-2.57Z"/>
      <path class="cls-5" d="M24.35,42.97c.08-.26.16-.51.25-.76.21.9.14,1.83.17,2.75.03.41-.11.81-.38,1.12.04-.92-.42-1.99.23-2.77-.07-.08-.21-.25-.27-.34Z"/>
      <path class="cls-5" d="M19.02,45.01c.61,1.27.6,2.7.74,4.08-.51.28-1.02.55-1.52.86l.13-.13c.06-.06.19-.18.25-.24.11-1.52-.27-3.13.4-4.56Z"/>
      <path class="cls-5" d="M13.31,47.24c.25,1.08.26,2.23-.02,3.3-.08-.02-.25-.05-.33-.07-.04-1.08-.19-2.25.35-3.23Z"/>
      <path class="cls-3" d="M11.47,21.55c1.75-1.02,3.7-1.78,5.15-3.24,0,4.17,0,8.34,0,12.52-1.44.89-2.97,1.65-4.33,2.66-.24.17-.51.31-.77.45-.03-1.86.02-3.72-.1-5.58.07-2.27-.04-4.54.06-6.8ZM13.45,25.38c-.05.25-.09.49-.12.75-.12-.02-.36-.07-.48-.09-.09.34.06.49.45.42.05.31.05.64.19.93.3.38.86.1,1.07-.23.33-.54.26-1.23.14-1.83-.06-.24-.31-.29-.51-.38-.22.18-.47.33-.74.44ZM13.01,29.34c.28.21.67.15,1,.19-.15-.19-.34-.36-.59-.38-.17,0-.61-.12-.41.19ZM12.21,30.14c-.23.4.19.73.57.55-.11-.25-.24-.55-.57-.55ZM12.96,31.83c-.2.14-.41.32-.4.59.37.5.83-.73.4-.59Z"/>
      <path class="cls-3" d="M27.99,36.32c.98-.66,1.97-1.33,3.01-1.9-.05,3.52-.17,7.04-.09,10.56-.36.28-.73.56-1.11.81-.18.16-.56.24-.43.58-.09-.01-.26-.03-.34-.04-1.68,1.1-3.31,2.27-4.99,3.37-.64.41-1.24.95-2.03,1.02-.3.01-.35.37-.49.57-.44.29-.91.56-1.37.81-.25-.24-.58-.32-.91-.35.4-.41-.3-.88-.59-.52-.21.13-.07.4-.06.59.34.02.68.19.69.58.04.04.12.11.16.15-1.43.55-2.6,1.56-3.83,2.44.02-3.44,0-6.88,0-10.31,1.25-.59,2.32-1.47,3.45-2.26,1.58-1.19,3.3-2.18,4.92-3.31,1.3-.98,2.71-1.8,4.01-2.78ZM27.8,39.86c-.37,1.22-.09,2.5.11,3.72,0,.2.01.4.03.61.37.19.79-.03,1.12-.23.5-.33.52-.97.55-1.5.02-1.03.15-2.11-.26-3.09-.11-.3-.37-.66-.74-.56-.44.16-.66.62-.81,1.04ZM25.01,40.48c.31,0,.87.04.68-.44-.35-.09-.52.19-.68.44ZM23.96,41.91c-.25.75-.36,1.54-.36,2.33.07.79-.02,1.62.31,2.37-.21-.23-.32-.63-.7-.6-.23.44.17.86.32,1.26.61-.26,1.11-.72,1.6-1.15.43-.73.24-1.62.24-2.42-.03-.75.01-1.59-.43-2.23-.36-.38-.88.04-.98.44ZM27.03,42.27c0,.31.53.31.53,0,0-.32-.54-.32-.53,0ZM20.81,43.25c-.01.11-.04.32-.06.42.11-.02.34-.05.45-.06.04-.24-.13-.5-.39-.36ZM26.91,44.32c-.03.42.17.8.57.98.09-.45.05-1.11-.57-.98ZM18.17,45.55c-.25,1.15-.2,2.34-.22,3.52,0,.3-.02.76.42.75l-.13.13c-.28.11-.51.6-.02.55.67-.38,1.4-.68,2.06-1.08,0-1.48-.07-2.98-.55-4.39-.1-.31-.42-.6-.76-.53-.47.13-.66.64-.8,1.05ZM20.8,45.04c-.41.37.29.73.57.39.12-.34-.31-.53-.57-.39ZM28.62,45.86c.06.12.17.35.23.47.2-.15.39-.31.59-.46-.05-.14-.14-.42-.19-.56-.22.17-.44.34-.62.56ZM24.3,47.45c.09.18.02.55.29.59.19.07.39-.12.33-.31-.07-.28-.41-.21-.62-.27ZM23.24,48.55c-.22.42.21.53.54.51.02-.27-.18-.8-.54-.51ZM20.84,49.42c-.03.29.32.35.52.48.31-.38.22-.84-.11-1.18-.16.21-.45.39-.41.69ZM16.44,49.6c.21.32.62.22.93.16-.12-.26-.21-.62-.55-.65-.31-.12-.6.25-.38.5ZM20.47,50.42c-.17.11-.25.34-.2.54.28.25.91.11.93-.3.07-.39-.51-.45-.73-.24ZM17.08,51.84c.02.23.04.47.06.71-.39.24-.57.76-.13,1.07.52.08.5-.61.71-.92.32-.07.84-.12.69-.59-.26-.45-.9-.24-1.33-.27Z"/>
      <path class="cls-2" d="M10.18,3.32c.17,1.13.05,2.28.09,3.42-.02,4.58.21,9.16.05,13.74-1.27-.58-2.28-1.58-3.34-2.46-.56-.48-1.16-.91-1.71-1.41,1.44-3.83,2.77-7.69,4.18-11.52.23-.6.46-1.19.73-1.77ZM8.82,11.27c-.1.29,0,.39.29.3.09-.3,0-.4-.29-.3ZM6.89,14.6c-.26.28-.49.62-.38,1.03.55.09.75-.71.38-1.03ZM7.71,15.39c-.09.45-.11.91-.12,1.38.07-.02.22-.07.29-.09.11-.41.36-1.09-.17-1.29ZM8.52,18.1c.19-.37.07-.78,0-1.17-.49.14-.58,1.17,0,1.17Z"/>
      <path class="cls-4" d="M11.07,14.78c-.07-3.35-.37-6.69-.24-10.04,1.8,4.11,3.56,8.25,5.33,12.37-.54.61-1.12,1.21-1.84,1.61-.98.54-1.93,1.15-2.96,1.6-.22-1.84-.16-3.69-.29-5.53ZM12.46,12.44c.27-.3.24-.98-.29-.92-.53.25-.07.77.29.92ZM11.51,12.37c-.27.16,0,.65.26.42.27-.17,0-.64-.26-.42ZM14.23,14.66c-.26.18-.14.68.2.58.35-.08.18-.72-.2-.58ZM11.89,15.77c-.51.15-.35,1.46.31,1.23.29-.33.13-1.13-.31-1.23ZM12.95,16.43c-.04.31.04.77.42.81.33-.26.03-1.05-.42-.81Z"/>
      <path class="cls-4" d="M25.13,21.32c.46-.26,1.17-.19,1.43.32.68,1.04,1.06,2.24,1.66,3.32.89,1.52,1.71,3.09,2.41,4.71.44,1,1.05,1.93,1.34,3-1.43.81-2.88,1.59-4.26,2.49-1.15.81-2.32,1.6-3.49,2.39-1.79,1.33-3.72,2.44-5.53,3.73-1.23.77-2.34,1.73-3.66,2.35-.74-1.94-1.35-3.93-2-5.9-.11-.74-.47-1.51-.24-2.26-.11-.25-.22-.49-.33-.73,1.46-1.27,3.38-1.84,4.89-3.02,1.01-1.01-.09-2.58.64-3.68-.07.03-.21.08-.28.1.13-.9.29-1.81.12-2.71.62-.43,1.29-.76,1.97-1.08,1.83-.92,3.57-2.01,5.34-3.03ZM23.83,24.42c-.18.24.23.59.42.34.17-.25-.23-.59-.42-.34ZM20.98,25.42c-.49.21.18,1.19.61.91.01-.36-.21-.89-.61-.91ZM27.42,26.28c-.09.28.05.71.42.59.26-.28-.05-.89-.42-.59ZM25.14,26.48c-.14.46.46.68.79.83-.11-.35-.33-.92-.79-.83ZM19.35,27.31c-.3.09-.13.57.16.49.33-.07.14-.6-.16-.49ZM25.08,29.93c.14-.44,0-.93-.43-1.14-.55.29.15.9.43,1.14ZM29.77,29.12c-.33.36.14,1.21.65,1.03.22-.42-.13-1.13-.65-1.03ZM28.27,30.12c-.03.6.48,1.06.81,1.51.47.34.54-.36.29-.64-.27-.36-.55-1.1-1.1-.87ZM21.84,31.23c-.06.45.18.96.66,1.05-.04-.4-.06-1.22-.66-1.05ZM24,31.24c-.09.57.24,1.18.67,1.54.35-.16.11-.59.04-.85-.15-.3-.26-.83-.7-.69ZM27.15,31.38c.23.67.49,1.53,1.22,1.8.12-.67-.39-1.21-.7-1.75-.06-.26-.71-.58-.53-.04ZM17.05,32.33c-.24.02-.6.32-.43.58.23.06.66-.43.43-.58ZM23.69,33.6c-.15.55.18,1.09.39,1.58.1.3.38.44.66.55.06-.53-.21-1.01-.4-1.49-.14-.27-.24-.74-.65-.64ZM17.02,35.11c0,.41.21.76.6.9-.09-.37-.16-.82-.6-.9ZM22.48,36.17c.11-.44-.09-.86-.32-1.21-.36.32-.2,1.26.32,1.21ZM15.36,36.14c-.02.42.09.85.45,1.11-.04-.4.05-.97-.45-1.11ZM20.46,36.25c-.25.42.09,1.26.64,1.21.11-.45-.11-1.17-.64-1.21ZM19.2,38.07c-.41.24-.03,1.04.4,1.12.27-.35-.02-1.02-.4-1.12ZM16.68,39.46c-.1.28.11.54.23.78.14.23.33.62.67.43.13-.38-.15-.71-.33-1.01-.11-.18-.36-.43-.57-.21ZM15.49,40.64c.16.5.21,1.22.84,1.34.07-.63-.1-1.29-.41-1.82-.35-.29-.56.21-.43.49Z"/>
    </g>
  </g>
</svg>