<?xml version="1.0" encoding="UTF-8"?>
<svg id="Layer_2" data-name="Layer 2" xmlns="http://www.w3.org/2000/svg" viewBox="0 0 59.01 65.86">
  <defs>
    <style>
      .cls-1 {
        fill: #050505;
      }

      .cls-2 {
        fill: #cc6128;
      }

      .cls-3 {
        fill: #bea278;
      }

      .cls-4 {
        fill: #909b9b;
      }

      .cls-5 {
        fill: #c9d0d0;
      }

      .cls-6 {
        fill: #faa67a;
      }

      .cls-7 {
        fill: #625241;
      }
    </style>
  </defs>
  <g id="Réteg_1" data-name="Réteg 1">
    <g>
      <path class="cls-1" d="M58.69,34.64c-.5-1.04-.94-2.11-1.3-3.21-.27-.88-.94-1.59-1.1-2.51-.72-.98-1.98-1.19-3.01-1.71-.53-2.33-1.07-4.66-2.04-6.85-.45-.33-.64.3-.75.62-.35,1.27-.86,2.48-1.31,3.72-.26-.05-.52-.11-.77-.16,0-.27,0-.53,0-.79-.04-.44.5-.72.45-1.14-.73-.93-1.01-2.1-1.38-3.2-.54-1.63-.8-3.35-1.5-4.92.23-.29.17-.47-.15-.56-.09-1.49-.87-2.89-.78-4.41.11-.39-.31-.72-.62-.43-.27.84.1,1.77-.21,2.62-.48,1.5-1.03,2.98-1.66,4.42-.73-.48-1.37-1.1-2.13-1.54-.99-.58-1.76-1.5-2.84-1.95-.39.02-.52.5-.77.74-.21-.19-.74.03-.62.34-.78.2-1.38.84-1.94,1.4-.28.23-.16.68.21.72l-.09.15c.06.05.19.15.25.2-.07.86,0,1.72-.05,2.57-.82-.53-.84-1.57-1.22-2.38-.4-.83-.22-1.77-.37-2.65-.12,0-.37,0-.5.01-.19,1.14.08,2.33-.32,3.43-.38-.29-.84-.49-1.3-.27-.9.16-1.32,1.04-2.04,1.5-.04-2.43-.03-4.86-.02-7.28.21-.27.52-.49.61-.82-1.04-3.28-1.69-6.67-2.62-9.98-.11-.38-.61-.26-.9-.33-.13.41-.28.82-.35,1.26-.45-.03-.55.78-.35,1.1-.73,1.93-1.27,3.93-1.93,5.89-.21.76-.6,1.49-.58,2.29.01.67,1.17.65,1,1.38-.02,2.56-.03,5.13,0,7.69-1.45-1.05-2.94-2.04-4.5-2.92-.56-.27-1.19-.1-1.78-.04-2.41.4-4.8.97-7.22,1.28-.8.31-1.49.84-2.23,1.27-.09-1.42-.06-2.84.03-4.26.24-.29.47-.58.69-.87-.12-.3-.23-.59-.36-.88-.08-.04-.25-.12-.33-.16-1.44-2.54-2.28-5.36-3.43-8.03-.08-.26-.35-.36-.55-.48-.19.42-.49.82-.56,1.28l-.18.04-.08.2.1.15c-.83,1.67-1.33,3.49-2.24,5.12-.49,1.01-1.28,1.99-1.05,3.18.2.2.4.4.6.6-.01,7.5.01,15,0,22.49,0,.48-.33.89-.29,1.38-.05,1.01.35,2.07,1.14,2.72,1.09.73,2.48.93,3.76.7.95.57,1.83,1.27,2.73,1.92.56.38.96,1.01,1.65,1.19-.15,2.96-.11,5.92-.09,8.88-.06.78.51,1.46,1.15,1.83,1.78,1.13,3.69,2.05,5.41,3.29.37,2.26,3.04,3.63,5.13,2.88.94.68,1.98,1.22,2.91,1.91.53.39.93.94,1.56,1.2,1.18.52,2.54.44,3.78.2.77-.13,1.4-.61,2.09-.92.68-.2,1.38.1,2.08-.01,1.53-.21,3.05-1.17,3.56-2.68,2.16-1.48,4.36-2.91,6.56-4.33.89-.18,1.86-.19,2.67-.66,1.01-.52,1.58-1.56,1.99-2.57,2.34-1.16,4.37-2.84,6.47-4.38.52-.37,1.04-.77,1.43-1.29.16-2.39.03-4.8.06-7.2.76-.36.87-1.31,1.28-1.97.6-1.05.53-2.33,1.18-3.35.35-.53.05-1.16-.16-1.67Z"/>
      <g>
        <g>
          <path class="cls-1" d="M25.93,0c.29.07.79-.05.9.33.92,3.31,1.57,6.7,2.62,9.98-.09.33-.41.55-.61.82-.01,2.42-.03,4.85.02,7.28.72-.46,1.14-1.35,2.04-1.5.46-.22.92-.02,1.3.27.41-1.1.14-2.3.32-3.43.12,0,.37,0,.5-.01.15.88-.03,1.82.37,2.65.38.81.4,1.85,1.22,2.38.04-.86-.02-1.72.05-2.57,0-.07,0-.23-.01-.3l-.14-.05c-.37-.04-.5-.49-.21-.72.56-.56,1.16-1.2,1.94-1.4.24-.02.5-.11.62-.34.25-.24.38-.72.77-.74,1.07.45,1.84,1.37,2.84,1.95.76.44,1.4,1.06,2.13,1.54.63-1.45,1.18-2.92,1.66-4.42.31-.85-.05-1.77.21-2.62.3-.29.73.05.62.43-.09,1.52.69,2.91.78,4.41-.03.2.02.39.15.56.7,1.57.96,3.29,1.5,4.92.37,1.1.65,2.27,1.38,3.2.05.43-.49.7-.45,1.14-.01.26-.02.53,0,.79.25.04.51.1.77.16.45-1.24.97-2.45,1.31-3.72.11-.32.3-.95.75-.62.97,2.19,1.51,4.52,2.04,6.85,1.02.52,2.29.73,3.01,1.71.16.92.83,1.63,1.1,2.51.37,1.09.81,2.16,1.3,3.21.21.52.51,1.15.16,1.67-.65,1.02-.59,2.3-1.18,3.35-.41.66-.52,1.61-1.28,1.97-.02,2.4.1,4.81-.06,7.2-.38.52-.9.92-1.43,1.29-2.1,1.54-4.13,3.22-6.47,4.38-.41,1.01-.98,2.05-1.99,2.57-.82.47-1.78.48-2.67.66-2.2,1.42-4.4,2.85-6.56,4.33-.51,1.51-2.03,2.47-3.56,2.68-.69.11-1.4-.18-2.08.01-.7.31-1.33.79-2.09.92-1.24.24-2.6.32-3.78-.2-.62-.26-1.03-.81-1.56-1.2-.93-.69-1.97-1.23-2.91-1.91-2.09.75-4.76-.62-5.13-2.88-1.72-1.23-3.63-2.16-5.41-3.29-.65-.38-1.21-1.05-1.15-1.83-.01-2.96-.06-5.92.09-8.88-.69-.17-1.09-.81-1.65-1.19-.91-.65-1.78-1.34-2.73-1.92-1.28.24-2.67.03-3.76-.7-.79-.66-1.19-1.71-1.14-2.72-.04-.49.28-.9.29-1.38,0-7.5-.02-15,0-22.49-.2-.2-.4-.4-.6-.6-.23-1.18.57-2.17,1.05-3.18.91-1.63,1.41-3.45,2.24-5.12.04-.1.11-.29.15-.39.08-.46.38-.86.56-1.28.21.12.47.22.55.48,1.16,2.67,1.99,5.49,3.43,8.03.08.04.25.12.33.16.12.29.23.58.36.88-.23.29-.46.58-.69.87-.08,1.42-.12,2.84-.03,4.26.74-.43,1.43-.96,2.23-1.27,2.42-.31,4.81-.88,7.22-1.28.58-.06,1.22-.24,1.78.04,1.55.89,3.05,1.87,4.5,2.92-.03-2.56-.03-5.13,0-7.69.17-.73-.99-.7-1-1.38-.01-.8.38-1.54.58-2.29.67-1.95,1.2-3.96,1.93-5.89.18-.34.31-.71.35-1.1.07-.43.22-.84.35-1.26ZM26.25,1.22c-.93,3.06-1.81,6.13-2.75,9.18.75.45,1.64.51,2.49.6.98.01,2.04-.2,2.68-1.01-.78-2.71-1.46-5.44-2.26-8.14v-.07c-.05-.2-.11-.39-.17-.57ZM4.16,5.68c-.99,2.3-1.8,4.68-2.99,6.89,0,0-.01.03-.02.04-.23.43-.46.85-.69,1.29,1.19.96,2.71,1.53,4.25,1.38,1.03-.14,2.14-.43,2.82-1.28-.1-.58-.39-1.1-.61-1.64-.84-1.71-1.48-3.5-2.16-5.28-.07-.51-.36-.96-.6-1.4ZM24.51,20.79c-.15,1.71-.03,3.42-.07,5.13-.05.8.16,1.66-.22,2.4.17.28.34.56.54.84,0,.43-.24.78-.51,1.1,0,1.04,0,2.08-.01,3.13.66.45,1.33.89,2.02,1.3.78.35,1.49.83,2.22,1.29.06-2.56-.04-5.11-.02-7.67.13-.54-.6-.85-.33-1.38.13-.4-.17-.79-.11-1.19,0-4.72.01-9.43.03-14.14-.63.16-1.27.25-1.92.27-.55-.05-1.1-.1-1.65-.2.02,3.04-.07,6.09.05,9.13ZM41.2,22.37c.51.17.88.56,1.32.84.63.27,1.33.35,2.02.4,1.22.05,2.55-.04,3.5-.9-.27-.3-.54-.61-.66-1-.61-1.66-1.03-3.37-1.48-5.08-.31-1.03-.71-2.04-.89-3.11-.01-.36-.14-.7-.21-1.04-1.25,3.27-2.24,6.64-3.59,9.87ZM35.23,15.27c.35.77,1.29.95,1.91,1.44,1.41,1,2.91,1.91,4.17,3.11.24-1.02.7-1.97,1.07-2.94-.87-.52-1.62-1.22-2.5-1.74-.8-.48-1.42-1.19-2.25-1.61-.77.61-1.82.92-2.4,1.74ZM1.33,15.46c-.03,7.97.03,15.93-.06,23.89.03,1.18,1.05,2.14,2.22,2.16.51.33.95,0,1.29-.4,0-2.16.03-4.31.02-6.47-.4-.33-.8-.64-1.15-1.02-.7-.67-.31-1.73-.4-2.58-.11.07-.33.21-.44.28-.53-.44-.57-1.49.1-1.8.57-.71,1.2-1.37,1.95-1.89-.03-1,.13-2,0-3,.18-.09.36-.17.54-.25.11.09.33.26.43.35l-.3.05c1.73,1.24,3.56,2.33,5.26,3.62.24-.16.48-.32.73-.47-1.7-1.02-3.42-2.06-4.97-3.3-.23-.03-.45-.05-.67-.07.1-.1.29-.31.39-.41-.1-.46-.17-.92-.36-1.34-.05,0-.15,0-.2,0-.27.47-.15,1.04-.3,1.55-.49-.09-.43-.69-.37-1.06.07-.48.38-1.15.97-1.01.6.37.77,1.16.69,1.83.21.14.42.28.64.43.12-1.92-.13-3.84.02-5.75-.05-1.1,0-2.2-.06-3.3-.93.5-1.98.71-3.03.7-1.03,0-2.02-.3-2.94-.76ZM35.46,16.44c0,1.85.01,3.69,0,5.54-.08.08-.25.25-.33.34.66,1.47,1.06,3.04,1.74,4.51.16,0,.48.03.63.04.06.44-.19.83-.32,1.23-.1.9-.04,1.81-.05,2.72,1.22-.74,2.49-1.39,3.72-2.11-.02-1.72.03-3.45-.03-5.17-.23-.53-.52-1.02-.81-1.51,0-.36.02-.72.04-1.08.47.21.2.84.5,1.19.1-.64.29-1.25.5-1.86-1.04-.27-1.73-1.16-2.6-1.71-1.02-.67-1.91-1.52-2.97-2.13ZM33.01,17.06c-1.2,3.31-2.43,6.64-4.24,9.67-.2.25.16.46.31.62,1.46,1.21,3.54,1.28,5.33.98.71-.13,1.35-.47,1.95-.86-.52-.53-.71-1.26-.94-1.94-.45-1.45-1.07-2.85-1.39-4.34-.18-1.07-.5-2.11-.74-3.17-.05-.34-.18-.64-.29-.95ZM12.94,18.18c-1.04.2-2.19.07-3.11.69-.62.37-1.23.73-1.82,1.15,0,.28,0,.56.01.85.95-.55,1.76-1.32,2.71-1.88,1.27-.48,2.66-.31,3.98-.56,1.08-.06,2.06-.66,3.14-.68,1.05.29,1.99.92,2.79,1.64.71.66,1.52,1.19,2.17,1.92.36-.23.69-.49,1-.78-1.77-1.01-3.35-2.33-5.16-3.26-1.93.07-3.79.7-5.72.91ZM30.98,17.53c-.68.65-1.44,1.2-2.14,1.82,0,.28,0,.56,0,.86.87-.55,1.63-1.26,2.43-1.91.12.02.36.05.48.07.06-.14.16-.42.22-.56-.28-.22-.66-.55-1-.27ZM15.75,18.83c-1.38.19-2.76.29-4.14.4.04.37.06.75.06,1.13,1.95-.18,3.84-.74,5.78-1.02-.03-.36-.05-.72-.07-1.08-.55.16-1.09.34-1.62.57ZM17.98,18.28c.05.32.09.65.15.98-.06.08-.17.24-.23.32.07,0,.2.02.27.02.02-.18.06-.53.07-.7.42.14.27.59.24.91.07.07.2.22.27.3.05-.17.13-.52.18-.69.18.23.24.49.19.8.12-.04.36-.12.47-.16,0,.06-.01.19-.02.25-.16-.02-.49-.05-.65-.07.26.24.53.5.8.74.02-.1.06-.31.07-.42.28.13.6.2.86.4.25.41.4.86.58,1.3.32-.2.65-.4.97-.6-1.17-1.37-2.58-2.61-4.23-3.38ZM30.02,20.22c.12.36.39.98-.11,1.16-.08-.33-.09-.69-.11-1.02-.32.26-.63.53-.94.8,0,.3-.02.61-.02.92.11-.01.33-.04.44-.05,0,.33-.01.66-.02,1-.1,0-.31-.02-.42-.03,0,.58,0,1.16.05,1.75,1.08-1.82,1.8-3.82,2.59-5.78-.41.5-.91.89-1.46,1.23ZM34.56,20.39c.03-.42.05-.84.05-1.26-.48.27-.06.85-.05,1.26ZM8.07,21.46c-.05.28-.05.57-.06.86.96-.64,1.87-1.38,2.95-1.81.03-.38.04-.77.07-1.15-.99.7-1.96,1.42-2.96,2.1ZM13.72,20.59c-1.16.25-2.46.16-3.48.87-.75.49-1.51.97-2.22,1.53,0,.3,0,.61,0,.93,1.13-.78,2.01-2.15,3.49-2.25,1.12-.06,2.24-.22,3.35-.38.84-.09,1.7-.38,2.52-.05.54.3,1.09.6,1.61.93.17-.2.35-.4.52-.6-.59-.63-1.19-1.26-1.97-1.66-1.31,0-2.55.52-3.84.69ZM21.59,22.98l-.02.17c.07.05.21.16.27.21l-.09.22c.72-.37,1.22-1.06,1.97-1.37,0-.28,0-.55,0-.81-.71.51-1.66.82-2.13,1.58ZM11.67,22.22c-.03,1.69.12,3.39-.07,5.07.17.08.34.18.52.27.78-.51,1.52-1.08,2.38-1.45.56-.57,1.23-1.01,1.93-1.4-.02-1.02-.05-2.04-.02-3.06-1.58.23-3.15.51-4.74.57ZM17.15,21.77c0,.79,0,1.59-.03,2.38.32-.13.64-.26.97-.37.21-.37.4-.75.58-1.13-.5-.31-1-.61-1.52-.88ZM19.87,21.83c-.5,1.05-1.08,2.07-1.59,3.11-.76,1.44-1.35,2.95-2.18,4.36.37.49,1.01.73,1.33,1.27.52.12,1.06.19,1.59.25,1.69.24,3.73-.07,4.85-1.48-1.49-2.24-2.26-4.87-3.5-7.24l.03-.22c-.13-.01-.4-.04-.54-.05ZM50.98,21.75c-.37,1.1-.8,2.18-1.23,3.26.48.27.96.55,1.45.82v.04c.36.23.72.47,1.09.69-.27-1.24-.55-2.47-.95-3.68-.01-.41-.21-.77-.36-1.13ZM9.37,23.53c-.51.47-1.16.81-1.51,1.44,1.05.7,2.12,1.35,3.15,2.08-.02-1.59,0-3.17,0-4.75-.6.33-1.13.77-1.64,1.23ZM22.59,23.91l.41.13c-.29-.02-.59-.01-.87.07.51,1.09,1,2.19,1.59,3.24,0-1.45,0-2.9,0-4.35-.38.3-.76.61-1.14.92ZM41.48,23.84c0,1.5-.01,3.01,0,4.51.33-.08.66-.14.99-.22.06.91.59,1.68.82,2.55.21.87.81,1.63.86,2.54,0,7.92.05,15.84,0,23.75.39-.07.8-.13,1.2-.2,1.11-.32,2.06-1.25,2.28-2.39.03-4.49-.04-8.98.1-13.47.05-2.95-.07-5.9.04-8.85,0-2.68-.03-5.37-.04-8.05-.34.12-.66.26-1.01.35-1.76.13-3.6.24-5.24-.52ZM16.26,25.73c-1.52,1.31-3.35,2.17-5,3.31-.41,2.36-.71,4.74-.87,7.13,1.15.75,2.06,1.83,3.3,2.44.8.41,1.58.86,2.32,1.36v-1.43c-1.02-.39-1.92-1.06-2.86-1.6-.7-.54-1.57-1.04-1.86-1.91.1-1.54.67-3.01.83-4.55.13-.55.07-1.25.57-1.63.63-.51,1.41-.8,2.07-1.28.6-.38,1.15-.94,1.9-1,.3-.62.61-1.23.94-1.84-.51.25-.96.59-1.34,1ZM48.39,25.29c0,.4,0,.8.01,1.21.76.25,1.42.72,2.15,1.07.63.34,1.38.57,1.82,1.16.3.42-.22.77-.5,1.01-1.17.83-2.19,1.88-3.5,2.51,0,.39,0,.78,0,1.18,1.09-.47,2.08-1.11,3.05-1.78,1.08-.76,1.92-1.78,2.97-2.58.1-.14.39-.2.32-.41-.83-.38-1.69-.68-2.45-1.18-1.24-.82-2.46-1.69-3.87-2.19ZM5.38,25.51c-.03.79-.02,1.58-.01,2.37.78.49,1.53,1.02,2.31,1.51.82.66,1.63,1.35,2.52,1.92.09-.74.21-1.47.33-2.19-.47-.35-.95-.7-1.42-1.04.06.43.07.89-.26,1.22-.16-.46-.07-.92.1-1.36-.67-.41-1.32-.85-1.94-1.33-.1.1-.3.29-.41.39,0-.16-.02-.48-.03-.64-.39-.29-.79-.57-1.19-.85ZM48.38,27.12c0,1.45-.06,2.91,0,4.37,1.28-.62,2.24-1.71,3.41-2.5-1.06-.76-2.28-1.22-3.4-1.87ZM16.25,27.36c-.93.7-1.92,1.3-2.93,1.87.04.87.05,1.74.06,2.61.78-.33,1.44-.86,2.14-1.32-.08-.23-.26-.38-.47-.46.13-1.01.9-1.76,1.21-2.7ZM4.7,28.54c-.36.43-1,.77-1.09,1.33.43.52,1.06.81,1.59,1.21,1.41,1.21,3.26,1.72,4.66,2.94.07-.69.15-1.37.25-2.04-.97-.61-1.88-1.31-2.75-2.05-.85-.53-1.61-1.31-2.66-1.39ZM29.19,28.48c.01,2.64-.04,5.28-.04,7.92.22.11.44.24.67.36.04-.58-.1-1.26.27-1.76.28-.38.87-.19,1.03.21.35.76.26,1.63.29,2.45.25.26.72.45.64.89.02,3.36-.09,6.73.05,10.09,0,5.1.05,10.2.04,15.3.49.05.99.07,1.48.03.78-.26,1.56-.59,2.19-1.15.63-.59.74-1.53.66-2.35-.13-1.18-.1-2.37-.07-3.56,0-7.57-.01-15.14,0-22.7.39-1.89-.01-3.82.11-5.73-.92.46-1.93.77-2.96.82-1.49.06-3.01-.14-4.35-.83ZM40.47,29.61c-1.1.76-2.44,1.12-3.4,2.09-.04,1.38-.02,2.76-.04,4.15,1.63-.99,3.31-1.9,4.89-2.97.37-.26.74-.52,1.1-.8-.42-1.05-.7-2.15-1.16-3.18-.48.22-.94.46-1.39.72ZM51.91,32.1c-1.16.81-2.34,1.64-3.71,2.05-.04,6.51.17,13.02.09,19.53,2.62-1.31,4.82-3.29,7.25-4.9-.07-4.4.09-8.79.07-13.19-.03-2.18.09-4.36-.11-6.53-1.33.85-2.32,2.12-3.59,3.04ZM12.18,33.02c.2-.13.39-.26.59-.39,0,.15-.03.44-.04.59-.22-.02-.44-.03-.66-.04.08.62-.22,1.22-.18,1.84.17.28.42.48.66.7.19-1.04.55-2.05.61-3.11-.6-.94-.12-2.11-.32-3.16-.28,1.17-.34,2.39-.66,3.56ZM19.77,31.68c-1.01-.16-2.05-.25-3.02-.61,0,9.21-.04,18.42-.02,27.64.14.9.5,1.88,1.3,2.4.92.58,2.08.94,3.15.53.07-1.38.04-2.75.01-4.12.07-2.83.1-5.65.07-8.48-.18-1.38-.11-2.78-.12-4.16,0-3.16,0-6.31.03-9.46-.04-.3.11-.79-.33-.84.65-.56,1.33-1.08,2.17-1.31.03-.31.21-.45.52-.43,0-.67,0-1.33,0-2-1.18.53-2.45.88-3.75.83ZM3.83,30.94c.06.83-.25,1.82.38,2.5.21.26.41.55.71.71,1.66.89,3.21,1.96,4.78,2.99.02-.79.07-1.57.06-2.36-.27-.31-.64-.52-.95-.79-.81-.71-1.91-.93-2.73-1.62-.69-.57-1.45-1.03-2.24-1.44ZM56.38,30.88c-.1,1.77-.07,3.55-.03,5.33.11.03.32.09.43.12.53-.09,1.05-.19,1.57-.33-.17-1.16-.87-2.15-1.26-3.24-.17-.65-.4-1.28-.71-1.87ZM13.57,32.29c0,.22,0,.43,0,.65-.19,1-.22,2.05-.56,3.02.29.16.58.33.87.5.07-1.18.44-2.32.47-3.51.3-.38.66-.71,1.08-.95.25-.19.62-.3.63-.68-.85.27-1.65.66-2.49.96ZM14.89,33.04c-.17,1.24-.51,2.46-.51,3.72.57.28,1.12.6,1.64.96-.04-1.83,0-3.67-.03-5.5-.39.24-.8.46-1.1.82ZM37.04,36.39c0,1.38.05,2.77.02,4.15.05-.05.16-.16.21-.21-.19-.77-.11-1.58-.08-2.36.04-.53.08-1.2.61-1.48.43-.1.78.3.85.69.13.73.11,1.49.22,2.23.41-.2.1-.7.16-1.05.03-.85.04-1.75.43-2.51.24-.48.93-.37,1.22,0,.39.65.37,1.43.45,2.17.29-1.08.19-2.23.49-3.3.1-.65,1-.55,1.18-.02.2.65.05,1.35-.06,2.01.25-.02.51-.02.77-.02-.03-1.39,0-2.79-.02-4.18-2.01,1.51-4.19,2.78-6.45,3.88ZM23.43,33.52c-.39.45-.98.61-1.51.82.79.54,1.62,1.02,2.43,1.52.98.64,1.74,1.58,2.79,2.13,1.17.59,2.62.76,3.81.14-1.27-.95-2.87-1.34-4.02-2.45h-.06c-1.09-.8-2.28-1.46-3.44-2.17ZM42.13,34.54c-.37.97-.31,2.02-.37,3.04.27-.2.54-.39.81-.59-.09-.76,0-1.53-.12-2.28-.08-.04-.24-.13-.32-.18ZM5.44,35.11c0,2.05,0,4.09.04,6.14.12.21.24.42.36.65,1.29.92,2.64,1.76,3.82,2.82.03-2.28.03-4.55.04-6.83-.69-.35-1.32-.8-1.93-1.27-.73-.58-1.57-.99-2.33-1.5ZM21.86,35.19c0,2.76.03,5.52.01,8.29.41-1.37.84-2.74,1.39-4.06.3-.58.59-1.24,1.18-1.57.53-.23.7.43.84.8.76,1.86,1.13,3.85,1.32,5.84.09.55-.18,1.05-.6,1.4-.1,1.44-.18,2.94-.93,4.22-.19.35-.49.65-.88.75-.75-.2-1.25-.92-1.42-1.64-.37-1.55-.8-3.1-.87-4.71-.09,1.17.08,2.35.06,3.52-.04,4.62.08,9.23.06,13.85.57.39,1.17.74,1.76,1.12,1.17.68,2.05,1.99,3.53,2.02.9-.04,1.85.06,2.69-.34.48-.24.95-.52,1.44-.74-.01-5.03.04-10.07.03-15.1.09-2.1.07-4.21.06-6.32-.03-1.24.08-2.49-.18-3.71-1.26.68-2.76.59-4.06.06v-.02c-.65-.32-1.2-.78-1.77-1.21-1.15-.92-2.39-1.7-3.64-2.44ZM30.46,35.39c-.07.54-.1,1.08-.14,1.62.14.04.29.09.44.14-.05-.59,0-1.24-.31-1.76ZM39.9,36.12c-.33.9-.26,1.9-.36,2.86.31-.2.61-.4.92-.59-.07-.79.1-1.67-.33-2.37-.06.03-.17.08-.23.11ZM56.32,37.02c.03,1.16-.02,2.33.04,3.5.38-.72.77-1.44,1.01-2.22-.37,0-.55-.18-.56-.53.14-.33.48-.17.71-.08.07-.27.14-.53.22-.79-.48.04-.96.08-1.43.1ZM10.31,37.11c-.02.81-.02,1.62,0,2.43.12,5.18.02,10.37.11,15.54.53.47,1.18.79,1.8,1.14,0,0,.03.02.04.02,1.27.74,2.58,1.39,3.78,2.25-.03-5.82.05-11.64-.03-17.45-.91-.73-1.92-1.3-2.95-1.84-1.04-.53-1.78-1.45-2.75-2.09ZM37.7,39.94c.19-.05.37-.11.54-.19.02-.94.13-1.92-.24-2.81-.49.92-.27,2-.3,2.99ZM37.06,41.25c-.04,3.64,0,7.29-.02,10.93-.02,3.05.07,6.11-.08,9.16.65-.45,1.28-.93,1.94-1.37.1-1.84-.3-3.77.37-5.53.2-.65.85-1.04,1.51-1.05.39.1.7.42,1.12.47.04,1.39,0,2.78,0,4.18.51-.35,1.03-.69,1.58-.97,0-.63,0-1.26.02-1.88l-.43.17c-.03-.39-.03-.79-.01-1.17l.41.15c.03-5.75,0-11.51.03-17.27-1.96,1.67-4.31,2.77-6.45,4.2ZM24.43,38.75c-1.06,1.62-1.4,3.59-2.11,5.38.66,1.07,2.08,1.41,3.24,1.13.53-.14.35-.78.34-1.17-.17-1.12-.34-2.23-.58-3.34-.13-.37-.18-.94-.69-.92.08-.05.25-.14.34-.18-.2-.28-.16-.8-.54-.89ZM22.66,45.5c.14.93.38,1.84.6,2.75.1.78.33,1.62,1.08,2.02.8-1.24.92-2.73.99-4.17-.92,0-1.82-.24-2.66-.61ZM39.66,55.54c0,1.31,0,2.63,0,3.94.53-.36,1.07-.71,1.6-1.06-.15-1.22.03-2.45-.11-3.67-.08-.28-.22-.8-.6-.69-.68.11-.85.9-.88,1.48Z"/>
          <path class="cls-1" d="M26.15,6.12c-.46.17-.38-.59.04-.33,0,.08-.03.25-.04.33Z"/>
          <path class="cls-1" d="M26.83,8.63c.37.14.42.97.03,1.02-.17-.3-.34-.76-.03-1.02Z"/>
          <path class="cls-1" d="M24.82,8.93c.47-.15.38.71-.04.65-.29-.1-.2-.55.04-.65Z"/>
          <path class="cls-1" d="M25.56,13.45c.19.08.38.17.58.26.73.23.53,1.23.16,1.71-.57-.33-.37-1.03-.39-1.57-.12-.14-.24-.27-.36-.39Z"/>
          <path class="cls-1" d="M3.67,13.79c.26.04.31.18.14.42-.27-.04-.32-.18-.14-.42Z"/>
          <path class="cls-1" d="M36.87,14.53c.15-.26.69-.06.45.23-.16.25-.69.05-.45-.23Z"/>
          <path class="cls-1" d="M24.98,14.84c.66.07.45.84.35,1.27-.38-.32-.33-.83-.35-1.27Z"/>
          <path class="cls-1" d="M35.71,15.13c.27-.25.69.23.42.49-.29.26-.68-.24-.42-.49Z"/>
          <path class="cls-1" d="M37.47,15.34c.13,0,.41,0,.54,0-.24.34-.47.7-.8.97.06-.12.17-.36.23-.48,0-.12.02-.37.03-.49Z"/>
          <path class="cls-1" d="M40.03,17.31c.15-.28.68-.07.42.22-.15.27-.69.07-.42-.22Z"/>
          <path class="cls-1" d="M24.83,17.63c.38.37.29.92.28,1.41-.58-.18-.43-.97-.28-1.41Z"/>
          <path class="cls-1" d="M40.91,18.42c.17-.31.4-.59.66-.83.1.44-.19.86-.66.83Z"/>
          <path class="cls-1" d="M2.54,17.89c.13-.29.65-.18.7.14.02.47.22,1.09-.19,1.45-.82.1-.72-1.11-.51-1.59Z"/>
          <path class="cls-1" d="M25.98,20.54c.11-.95-.26-2.04.34-2.86.61.56.45,1.54.26,2.26l-.17.25c-.03.39-.02.78-.01,1.18-.25-.17-.53-.28-.82-.34-.06-.21-.11-.4-.16-.6.19.03.37.07.56.12Z"/>
          <path class="cls-1" d="M5.34,18.92c.85-.38.71.8.7,1.29.1.41-.37.93-.72.52-.19-.57-.19-1.25.02-1.81Z"/>
          <path class="cls-1" d="M45.32,19.5c.24-.19.44.25.26.41-.25.2-.47-.26-.26-.41Z"/>
          <path class="cls-1" d="M36.48,19.88c.26-.14.67-.01.64.33,0,.68.2,1.49-.14,2.11-.77.33-.71-.64-.72-1.11-.15-.15-.3-.29-.44-.43.39-.16.49-.56.67-.9Z"/>
          <path class="cls-1" d="M42.42,21.22c.31-.28.53.31.26.49-.32.26-.53-.32-.26-.49Z"/>
          <path class="cls-1" d="M31.92,22.6c-.02-.43-.05-1,.52-1.01-.03.4-.22.75-.52,1.01Z"/>
          <path class="cls-1" d="M38.87,21.65l.1-.17c.8-.2.58.83.58,1.3-.11.46.17,1.18-.37,1.42-.27.02-.55-.18-.51-.46-.02-.7-.05-1.43.2-2.1Z"/>
          <path class="cls-1" d="M45.6,22.75c-.48-.12-.42-.7-.3-1.07.47.12.23.72.3,1.07Z"/>
          <path class="cls-1" d="M36.69,23.97c-.09-.38-.29-1.35.39-1.13.02.41-.14.8-.39,1.13Z"/>
          <path class="cls-1" d="M31.13,23.03c.35.07.24.69-.07.75-.35-.08-.22-.68.07-.75Z"/>
          <path class="cls-1" d="M2.34,23.42c.17-.27.64-.18.68.14.09.45.09.93,0,1.39-.06.37-.67.37-.72,0-.1-.5-.13-1.05.05-1.53Z"/>
          <path class="cls-1" d="M25.99,24.14c0-.35.13-.67.32-.96.52.45.38,1.16.43,1.77,0,.6.13,1.34-.48,1.7-.49-.75-.3-1.67-.27-2.51Z"/>
          <path class="cls-1" d="M33.7,23.6c.32.09.1.83-.23.7-.17-.23-.03-.61.23-.7Z"/>
          <path class="cls-1" d="M14.01,25.22c-.37-.36-.19-1.02.07-1.4.06.47,0,.94-.07,1.4Z"/>
          <path class="cls-1" d="M37.67,24.96c0-.37.02-.75.3-1.03.12.37.15.87-.3,1.03Z"/>
          <path class="cls-1" d="M15.3,24.22c.25-.18.45.25.25.41-.25.18-.47-.26-.25-.41Z"/>
          <path class="cls-1" d="M23.04,24.34c.48.07.34.61.36.96-.41-.17-.33-.61-.36-.96Z"/>
          <path class="cls-1" d="M9.93,25.83c-.43-.32-.32-.98-.04-1.36.05.45.06.9.04,1.36Z"/>
          <path class="cls-1" d="M31.31,24.87c.27-.03.53-.07.8-.09-.08.31-.16.64-.24.96-.07-.02-.22-.05-.29-.07.04-.26.08-.52.12-.77-.1,0-.29-.02-.38-.02Z"/>
          <path class="cls-1" d="M39.1,24.84c.46-.33.42.43.27.68-.33-.04-.27-.45-.27-.68Z"/>
          <path class="cls-1" d="M39.98,26.16c-.23-.33-.11-.75.13-1.03.11.31.39.98-.13,1.03Z"/>
          <path class="cls-1" d="M29.96,25.93c.09-.27.17-.62.54-.6.15.54-.22,1.03-.44,1.5-.39-.19-.18-.6-.1-.9Z"/>
          <path class="cls-1" d="M41.86,25.42c.26-.24.4.08.38.32-.04.25.13.73-.27.74-.12-.34-.16-.71-.11-1.06Z"/>
          <path class="cls-1" d="M12.43,26.81c.03-.38-.04-.95.42-1.09-.06.34.14,1.24-.42,1.09Z"/>
          <path class="cls-1" d="M33.7,25.89c.55.02.3.64.35.99-.34-.23-.3-.64-.35-.99Z"/>
          <path class="cls-1" d="M30.76,27.74c-.08-.47-.16-1.07.34-1.34.01.47.01.98-.34,1.34Z"/>
          <path class="cls-1" d="M32.52,27.67c-.22-.43.02-.9.31-1.22,0,.36.24,1.22-.31,1.22Z"/>
          <path class="cls-1" d="M20.89,26.9c.18.35.3.72.43,1.1-.05,0-.14.03-.19.03-.11-.37-.21-.75-.24-1.13Z"/>
          <path class="cls-1" d="M19.82,27.14c.29.16.3.48.31.77-.01.3.13.72-.26.85-.11-.53-.15-1.08-.05-1.61Z"/>
          <path class="cls-1" d="M24.99,27.3c.33.3.45.93-.05,1.14-.08-.38-.07-.77.05-1.14Z"/>
          <path class="cls-1" d="M39.77,28.43c0-.39-.33-1.08.22-1.2.07.4.23.96-.22,1.2Z"/>
          <path class="cls-1" d="M7.77,28.8c-.49-.33-.17-1.08.21-1.37.09.47-.04.94-.21,1.37Z"/>
          <path class="cls-1" d="M37.91,27.6c.4-.31.48.35.36.61-.17.68-.54-.33-.36-.61Z"/>
          <path class="cls-1" d="M1.72,28.15c.27.12.36.48.08.66-.35-.11-.27-.44-.08-.66Z"/>
          <path class="cls-1" d="M17.27,29.16c.12-.3-.02-1.38.55-1-.04.39-.13.84-.55,1Z"/>
          <path class="cls-1" d="M49.48,29.03c-.42-.18-.44-.78-.08-1.01.04.33.07.67.08,1.01Z"/>
          <path class="cls-1" d="M49.62,28.19c.26-.16.51.28.29.46-.28.19-.56-.29-.29-.46Z"/>
          <path class="cls-1" d="M39.02,28.55c.26.04.3.19.13.43-.26-.05-.31-.19-.13-.43Z"/>
          <path class="cls-1" d="M22.23,29.1c.37-.22.65.62.24.69-.26-.09-.4-.47-.24-.69Z"/>
          <path class="cls-1" d="M27.36,30.23c.08-.26-.16-.92.27-.84.06.27.05.55.07.84-.08,0-.25,0-.34,0Z"/>
          <path class="cls-1" d="M18.43,30.56c-.38-.24-.34-.79-.1-1.1.06.36.09.73.1,1.1Z"/>
          <path class="cls-1" d="M24.96,29.5c.11,0,.32,0,.43,0-.07.26-.14.54-.27.79-.06-.27-.12-.53-.16-.79Z"/>
          <path class="cls-1" d="M9.82,29.72c.37.03.29.7-.05.74-.33-.09-.25-.66.05-.74Z"/>
          <path class="cls-1" d="M26.15,32.04c-.21-.82-.39-1.78.12-2.52.8.51.36,1.61.4,2.39-.13.03-.39.1-.52.13Z"/>
          <path class="cls-1" d="M46.22,29.79c.17-.32.68-.27.76.08.06.63.07,1.27,0,1.91-.05.35-.71.35-.77,0-.08-.66-.09-1.33.01-1.99Z"/>
          <path class="cls-1" d="M48.41,30.49c.1-.31-.2-.91.27-.97.31.21.06.7.11,1.03-.1-.01-.29-.05-.39-.06Z"/>
          <path class="cls-1" d="M30.54,30.91c.24-.16.53-.07.61.23.13.68.22,1.4.09,2.09-.08.34-.63.36-.7.02-.11-.77-.15-1.57,0-2.33Z"/>
          <path class="cls-1" d="M33.96,31.15c.22-.39.73-.09.71.28.05.51.13,1.08-.12,1.54-.16.33-.58.16-.61-.13-.05-.56-.07-1.14.01-1.69Z"/>
          <path class="cls-1" d="M39.57,31.13c.26-.18.53.27.31.46-.27.18-.56-.28-.31-.46Z"/>
          <path class="cls-1" d="M45.45,31.98c-.45.02-.45-.7,0-.67.17.22.17.44,0,.67Z"/>
          <path class="cls-1" d="M2.29,31.66c.32-.1.43.02.34.34-.33.09-.44-.02-.34-.34Z"/>
          <path class="cls-1" d="M4.43,31.97c.19-.02.4-.1.55.07.05.5.08,1.05-.15,1.52-.64-.23-.3-1.08-.4-1.59Z"/>
          <path class="cls-1" d="M17.73,33.29c-.33-.44-.1-1.02.05-1.48.12.49.07.99-.05,1.48Z"/>
          <path class="cls-1" d="M25.41,32.27c.35.05.3.7-.03.76-.32-.1-.27-.67.03-.76Z"/>
          <path class="cls-1" d="M18.87,32.43c.57.03.32.67.26,1.03-.12-.34-.2-.69-.26-1.03Z"/>
          <path class="cls-1" d="M31.68,32.81c.53,0,.33.53.34.88-.38-.15-.31-.56-.34-.88Z"/>
          <path class="cls-1" d="M6.1,34.22c-.07-.37-.42-1.18.25-1.13.33.35.31,1.04-.25,1.13Z"/>
          <path class="cls-1" d="M38.43,33.06c.38.02.54.34.48.7-.37.02-.34-.47-.48-.7Z"/>
          <path class="cls-1" d="M26.38,34.17c.05-.3,0-.76.45-.7-.03.24-.06.49-.08.74-.09,0-.27-.03-.36-.04Z"/>
          <path class="cls-1" d="M37.42,33.41c.53.03.46.61.52.99-.56,0-.47-.6-.52-.99Z"/>
          <path class="cls-1" d="M53.5,33.51c.15-.36.76-.28.82.11.05.82.04,1.65-.05,2.47-.22.42-.84.19-.81-.24-.05-.77-.09-1.57.04-2.33Z"/>
          <path class="cls-1" d="M12.5,34.21c-.33-.02-.4-.63-.04-.66.27.06.35.6.04.66Z"/>
          <path class="cls-1" d="M33.02,33.65c.09.04.28.11.37.14-.03.35-.03.71,0,1.06-.13,0-.27.02-.4.03,0-.41,0-.83.02-1.24Z"/>
          <path class="cls-1" d="M46.34,33.72c.32-.06.26.64-.04.59-.15-.21-.13-.41.04-.59Z"/>
          <path class="cls-1" d="M15.36,33.92c.29.04.24.76-.03.82-.14-.24-.14-.6.03-.82Z"/>
          <path class="cls-1" d="M27.39,34.86c.01-.31-.28-1.14.28-.98.12.34.15.86-.28.98Z"/>
          <path class="cls-1" d="M51.4,34.67c-.31-.06-.36-.65-.03-.71.28.08.32.61.03.71Z"/>
          <path class="cls-1" d="M7.84,34.44c.72-.43.78,1.12.23,1.29-.45-.24-.28-.88-.23-1.29Z"/>
          <path class="cls-1" d="M1.66,34.68c.64-.32.28.92-.09.31.02-.08.07-.23.09-.31Z"/>
          <path class="cls-1" d="M34.9,35.64c-.19-.35-.13-.77.09-1.1,0,.37-.02.73-.09,1.1Z"/>
          <path class="cls-1" d="M50.11,34.64c.44-.25.47.62.09.69-.3-.06-.27-.53-.09-.69Z"/>
          <path class="cls-1" d="M18.87,35.06c.48-.38.85.29.73.72-.09.59.27,1.5-.37,1.84-.7.05-.56-.79-.58-1.24.06-.43-.13-1.01.21-1.33Z"/>
          <path class="cls-1" d="M50.14,35.86l.08-.12c.77-.23.63.76.65,1.23,0,.5.14,1.7-.72,1.29-.21-.76-.21-1.65,0-2.41Z"/>
          <path class="cls-1" d="M3.27,36.81c.16-.1.33-.16.52-.18.27.12.13.39.12.61-.25-.11-.71-.03-.63-.43Z"/>
          <path class="cls-1" d="M23.42,36.85c.25.05.3.2.13.45-.26-.06-.3-.21-.13-.45Z"/>
          <path class="cls-1" d="M33.48,38.39c-.13-.52-.2-1.05-.01-1.56.15.39.26.81.33,1.23-.08.08-.24.25-.32.33Z"/>
          <path class="cls-1" d="M34.33,37.24c.17-.27.63-.19.68.13.1.52.08,1.07.03,1.6.01.47-.8.47-.79,0-.04-.58-.11-1.18.08-1.74Z"/>
          <path class="cls-1" d="M46.02,37.7c.2-.41.84-.18.78.24.03.73.05,1.47-.02,2.21-.06.41-.74.41-.8,0-.05-.81-.09-1.65.03-2.45Z"/>
          <path class="cls-1" d="M3.74,38.27c.25-.27.78-.15.68.27-.23.28-.83.16-.68-.27Z"/>
          <path class="cls-1" d="M22.41,38.2c.08,0,.24.02.32.03-.03.24-.06.49-.08.74-.2-.21-.2-.51-.24-.77Z"/>
          <path class="cls-1" d="M1.76,38.46c.12-.03.37-.08.5-.1-.02.13-.07.38-.08.51-.08-.02-.24-.07-.33-.09-.02-.08-.07-.24-.09-.32Z"/>
          <path class="cls-1" d="M7.68,39.16c.19-.31.71.03.46.32-.2.29-.68-.04-.46-.32Z"/>
          <path class="cls-1" d="M18.25,39.34c.54.18.19.85.15,1.26-.25-.38-.29-.84-.15-1.26Z"/>
          <path class="cls-1" d="M50.86,39.43c.3-.17.21.36.26.51,0,.26,0,.53-.04.8-.34-.33-.5-.9-.23-1.31Z"/>
          <path class="cls-1" d="M33.47,40.74c-.32-.27-.35-.76,0-1.01.04.33.04.67,0,1.01Z"/>
          <path class="cls-1" d="M3.14,40.26c.24-.07.49.14.42.39-.05.29-.4.24-.62.21-.11-.23-.14-.59.2-.6Z"/>
          <path class="cls-1" d="M4.08,40.22c.13-.29.75-.05.49.25-.11.48-.96.06-.49-.25Z"/>
          <path class="cls-1" d="M53.4,40.17c.23-.28.61.1.59.37.05.73.05,1.47,0,2.2.02.47-.81.47-.79,0-.02-.83-.14-1.7.09-2.49l.1-.07Z"/>
          <path class="cls-1" d="M6.18,40.88c.26,0,.84.06.66.47-.34.31-.86-.02-.66-.47Z"/>
          <path class="cls-1" d="M8.26,41.26c.23-.13.58-.14.47.24-.03.35-.43.46-.72.39-.04-.25,0-.52.24-.63Z"/>
          <path class="cls-1" d="M28.67,44.1c.02-.76-.34-1.82.43-2.31.76.42.44,1.4.47,2.1.09.56-.77.76-.91.21Z"/>
          <path class="cls-1" d="M43.04,43.32c-.12-.3-.47-.97.07-1,.28.29.01.69-.07,1Z"/>
          <path class="cls-1" d="M12.55,42.5c.41-.35.79.2.71.6.04.45.05,1.41-.67,1.1-.29-.48-.28-1.21-.03-1.71Z"/>
          <path class="cls-1" d="M50.12,42.56c.15-.29.66-.19.7.15.07.79.06,1.6.01,2.4,0,.36-.44.43-.68.27-.24-.45-.11-.99-.15-1.47.03-.45-.08-.93.12-1.34Z"/>
          <path class="cls-1" d="M8.61,43.46c-.19-.47.42-.95.65-.36-.03.37-.38.33-.65.36Z"/>
          <path class="cls-1" d="M18.87,42.74c.19-.24.66-.09.69.23.07.64.1,1.32-.05,1.96-.25.33-.81.18-.8-.25,0-.63-.21-1.41.16-1.93Z"/>
          <path class="cls-1" d="M34.37,43.42c.16-.34.68-.27.76.08.05.59.09,1.21-.04,1.8-.16.29-.56.31-.69,0-.13-.62-.11-1.26-.02-1.88Z"/>
          <path class="cls-1" d="M46.09,43.32c.47.09.26.68.34,1.02-.37-.2-.4-.65-.34-1.02Z"/>
          <path class="cls-1" d="M49.09,43.56c.29-.23.61.27.3.46-.3.25-.61-.28-.3-.46Z"/>
          <path class="cls-1" d="M41.14,43.89c.31-.1.41.02.31.35-.32.09-.42-.02-.31-.35Z"/>
          <path class="cls-1" d="M13.78,44.12c.19-.33.66.04.45.33-.2.32-.67-.05-.45-.33Z"/>
          <path class="cls-1" d="M40.02,44.97c.26-.15.69-.03.67.32.04.68.04,1.38-.05,2.06-.17.29-.58.29-.75,0-.09-.55-.07-1.12-.07-1.67.03-.24-.05-.57.2-.7Z"/>
          <path class="cls-1" d="M45.03,45.5c.08-.08.23-.25.31-.34,0,.39-.03.79-.04,1.19-.1-.28-.2-.56-.27-.85Z"/>
          <path class="cls-1" d="M45.78,46.13c.23-.35.76-.07.72.31.03.8.05,1.6,0,2.4-.11.26-.31.35-.6.28-.36-.33-.19-.85-.23-1.27.05-.57-.1-1.18.12-1.71Z"/>
          <path class="cls-1" d="M50.34,46.2c.43-.13.39.85-.05.87,0-.3-.05-.6.05-.87Z"/>
          <path class="cls-1" d="M53.7,47.08c-.31-.17-.45-.92,0-.91.09.29.02.6,0,.91Z"/>
          <path class="cls-1" d="M23.89,46.59c.68-.07.7,1.26.09,1.39-.59-.09-.59-1.18-.09-1.39Z"/>
          <path class="cls-1" d="M37.84,46.82c.54.04.53,1.02,0,1.06-.01-.36-.01-.71,0-1.06Z"/>
          <path class="cls-1" d="M30.15,47.47c.38.01.34.73-.02.76-.29-.11-.24-.65.02-.76Z"/>
          <path class="cls-1" d="M12.77,47.67c.19-.26.64-.03.66.25.06.79.08,1.6-.02,2.4-.19.32-.72.26-.78-.1-.05-.81-.09-1.63.03-2.42l.12-.12Z"/>
          <path class="cls-1" d="M28.95,48.68c.25-.3.74.01.69.36.02.73.08,1.48-.07,2.21-.32.38-.9.04-.79-.42.06-.69-.22-1.56.17-2.14Z"/>
          <path class="cls-1" d="M39.49,49.69c-.28-.32-.23-.81.06-1.11.12.37.06.74-.06,1.11Z"/>
          <path class="cls-1" d="M18.71,49.12c.24-.17.67-.02.64.31.05.85.04,1.71,0,2.56.05.51-.88.5-.81-.02-.02-.93-.12-1.88.06-2.8l.11-.06Z"/>
          <path class="cls-1" d="M38.32,49.29c.59-.19.39.68.34,1-.38,0-.29-.72-.34-1Z"/>
          <path class="cls-1" d="M45.34,49.78c-.48-.05-.52-.77.02-.71.07.23.06.47-.02.71Z"/>
          <path class="cls-1" d="M52.76,50.46c-.47-.09-.47-.93-.03-1.06.02.35.03.7.03,1.06Z"/>
          <path class="cls-1" d="M20.06,49.7c.28-.23.64.24.33.45-.28.22-.64-.25-.33-.45Z"/>
          <path class="cls-1" d="M33.94,49.68c.12-.28.65-.2.68.12.09.53.07,1.08.02,1.62.02.47-.8.47-.79,0-.03-.58-.13-1.21.08-1.75Z"/>
          <path class="cls-1" d="M11.37,50.44c.36-.12.57.52.18.61-.35.08-.52-.49-.18-.61Z"/>
          <path class="cls-1" d="M41.23,50.56c.31.42.31.98.09,1.44-.14-.47-.21-.96-.09-1.44Z"/>
          <path class="cls-1" d="M33.47,51.8c-.57.27-.61-.62-.05-.6.01.15.04.45.05.6Z"/>
          <path class="cls-1" d="M48.65,52.42c.05-.36-.2-1.05.29-1.16.2.36.35,1.19-.29,1.16Z"/>
          <path class="cls-1" d="M49.89,51.17c.44.06.27.51.3.82-.42-.07-.26-.53-.3-.82Z"/>
          <path class="cls-1" d="M42.43,52.41c0-.31-.3-1.1.25-.96.05.33.12.78-.25.96Z"/>
          <path class="cls-1" d="M23.81,51.81c.28-.28.76.02.75.38.07.79.05,1.59-.04,2.38,0,.27-.29.48-.55.43-.55-.23-.34-.95-.41-1.41.06-.57-.19-1.33.25-1.78Z"/>
          <path class="cls-1" d="M14.15,52.39c.22.06.6.01.49.37-.12.13-.26.26-.39.39-.04-.25-.08-.51-.11-.75Z"/>
          <path class="cls-1" d="M45.29,52.37c.38.07.4.5.15.73-.23-.2-.28-.44-.15-.73Z"/>
          <path class="cls-1" d="M39.2,52.57c.4-.21.47.63.16.75-.3-.08-.34-.54-.16-.75Z"/>
          <path class="cls-1" d="M11.59,52.86c.22-.13.46-.14.72-.04.07.43-.59.55-.91.47.01-.18.08-.32.2-.44Z"/>
          <path class="cls-1" d="M37.92,53.96c-.18-.24-.33-1.1.16-.68-.03.23-.1.45-.16.68Z"/>
          <path class="cls-1" d="M46.33,53.28c.29-.05.27.45.1.58-.28.04-.27-.46-.1-.58Z"/>
          <path class="cls-1" d="M35.04,54.99c-.02-.32-.09-.66.12-.92.14.32.1.65-.12.92Z"/>
          <path class="cls-1" d="M12.14,54.97c.18-.18.36-.35.55-.51.14.21.28.42.43.63l.18-.34c.08.37-.05.72-.28,1,.01-.14.03-.41.04-.55-.31-.07-.63-.14-.92-.24Z"/>
          <path class="cls-1" d="M19.5,54.62c.55-.08.42.8.41,1.17-.59.4-.42-.83-.41-1.17Z"/>
          <path class="cls-1" d="M28.6,55.17c.09-.19.17-.38.25-.56.13.17.31.29.52.37.12.7.1,1.42.05,2.13.05.45-.71.6-.8.14-.1-.69-.05-1.39-.02-2.08Z"/>
          <path class="cls-1" d="M17.93,55.04c.28.16.21.74.07,1.02-.29-.17-.21-.75-.07-1.02Z"/>
          <path class="cls-1" d="M44.54,55.18c.63-.21.54,1.11-.05.95-.1-.32-.08-.65.05-.95Z"/>
          <path class="cls-1" d="M45.69,55.05c.36.14.3.51.34.82-.07.05-.22.15-.29.2-.14-.33-.18-.69-.05-1.02Z"/>
          <path class="cls-1" d="M42.19,55.59c.6-.17.28.68.32,1.01-.48-.13-.46-.63-.32-1.01Z"/>
          <path class="cls-1" d="M37.39,57.67c0-.39-.21-1.09.37-1.16-.05.4.11.96-.37,1.16Z"/>
          <path class="cls-1" d="M26.38,56.81c.26.04.31.18.13.43-.27-.05-.31-.19-.13-.43Z"/>
          <path class="cls-1" d="M32.99,59.12c0-.46-.26-1.11.29-1.35.03.47.06.99-.29,1.35Z"/>
          <path class="cls-1" d="M38.06,58.22c.43.03.41,1.32-.15,1.19.01-.37-.18-.97.15-1.19Z"/>
          <path class="cls-1" d="M34.79,58.9c.01-.25.04-.5.07-.75.35.21.23.58-.07.75Z"/>
          <path class="cls-1" d="M27.79,58.76c.42-.23.36.57.06.65-.3-.04-.23-.51-.06-.65Z"/>
          <path class="cls-1" d="M19.95,59.39c.31-.1.21.33.24.51-.05.23.03.81-.36.74-.16-.4-.14-.89.11-1.25Z"/>
          <path class="cls-1" d="M18.51,60.52c-.02-.37-.29-1.08.31-1.04-.05.36-.07.75-.31,1.04Z"/>
          <path class="cls-1" d="M33.73,61.04c-.13-.34-.03-.71.34-.83-.04.26.09.84-.34.83Z"/>
          <path class="cls-1" d="M35.49,61.11c.31.02.26.57-.03.61-.29-.06-.24-.56.03-.61Z"/>
          <path class="cls-1" d="M24.58,62.73c-.4-.32-.43-1.16-.03-1.43.12.47.1.96.03,1.43Z"/>
          <path class="cls-1" d="M25.7,62.51c-.6-.15-.47-.84-.35-1.29.51.14.23.89.35,1.29Z"/>
          <path class="cls-1" d="M27.34,62.48c-.35-.18-.3-.62,0-.81.05.26.05.54,0,.81Z"/>
          <path class="cls-1" d="M29.77,62.29c.61-.08.25.81.18,1.15-.22-.34-.37-.77-.18-1.15Z"/>
          <path class="cls-1" d="M32.46,62.71c.31-.23.51.32.28.51-.31.27-.56-.34-.28-.51Z"/>
          <path class="cls-1" d="M33.78,62.76c.2-.45.62.34.24.44-.32.07-.34-.23-.24-.44Z"/>
          <path class="cls-1" d="M28.19,64.03c.01-.29.07-.57.27-.78.17.32.16.72-.27.78Z"/>
        </g>
        <g>
          <path class="cls-7" d="M25.23,2.36c-.2-.32-.11-1.13.35-1.1-.04.39-.16.76-.35,1.1Z"/>
          <path class="cls-7" d="M3.31,5.84l.18-.04c-.04.1-.11.29-.15.39l-.1-.15.08-.2Z"/>
          <path class="cls-7" d="M25.94,9.37c.55-.25.62.8.04.57,0-.14-.03-.42-.04-.57Z"/>
          <path class="cls-7" d="M3.89,11.17c.38.06.14.82-.2.65-.17-.21-.05-.58.2-.65Z"/>
          <path class="cls-7" d="M1.15,12.61s.01-.03.02-.04c0,0-.01.03-.02.04Z"/>
          <path class="cls-7" d="M4.73,13.24s0-.07,0-.09v.09Z"/>
          <path class="cls-7" d="M36.22,13.71c-.12-.31.41-.53.62-.34-.12.23-.38.31-.62.34Z"/>
          <path class="cls-7" d="M2.7,13.49c.32.02.24.56-.04.59-.32-.04-.23-.56.04-.59Z"/>
          <path class="cls-7" d="M35.23,15.27c.57-.82,1.63-1.13,2.4-1.74.83.42,1.46,1.14,2.25,1.61.87.52,1.62,1.22,2.5,1.74-.38.97-.83,1.92-1.07,2.94-1.26-1.19-2.76-2.11-4.17-3.11-.62-.5-1.56-.67-1.91-1.44ZM36.87,14.53c-.24.29.29.48.45.23.24-.29-.29-.49-.45-.23ZM35.71,15.13c-.25.25.14.75.42.49.26-.25-.15-.74-.42-.49ZM37.47,15.34c0,.12-.02.37-.03.49-.06.12-.17.36-.23.48.33-.26.55-.63.8-.97-.13,0-.41,0-.54,0ZM40.03,17.31c-.27.29.27.49.42.22.26-.29-.28-.5-.42-.22ZM40.91,18.42c.47.03.76-.39.66-.83-.26.24-.48.52-.66.83Z"/>
          <path class="cls-7" d="M45.84,13.93c.32.08.38.27.15.56-.13-.17-.18-.36-.15-.56Z"/>
          <path class="cls-7" d="M34.49,15.83l.14.05c0,.08.01.23.01.3-.06-.05-.19-.15-.25-.2l.09-.15Z"/>
          <path class="cls-7" d="M36.25,17.91c.27-.19.5.31.29.49-.28.19-.51-.32-.29-.49Z"/>
          <path class="cls-7" d="M17.56,19.9c.78.39,1.38,1.03,1.97,1.66-.18.2-.35.4-.52.6-.53-.33-1.07-.63-1.61-.93.19-.42.16-.89.16-1.33Z"/>
          <path class="cls-7" d="M4.26,20.4c.51-.28.5.65,0,.37v-.37Z"/>
          <path class="cls-7" d="M43.75,21.62c.6-.16.28.67.37,1.01-.54-.06-.41-.64-.37-1.01Z"/>
          <path class="cls-7" d="M5.71,22.83c.05,0,.15,0,.2,0,.19.42.26.88.36,1.34-.1.1-.29.31-.39.41.22.02.45.04.67.07-.24.02-.49.06-.73.1-.11-.09-.33-.26-.43-.35h.02c.15-.52.03-1.09.3-1.56Z"/>
          <path class="cls-7" d="M17.7,22.79c.32-.1.43.02.32.34-.33.09-.43-.02-.32-.34Z"/>
          <path class="cls-7" d="M12.57,23.02c.29-.04.28.67,0,.66-.15-.22-.15-.44,0-.66Z"/>
          <path class="cls-7" d="M21.59,22.98c.29-.19.44.18.25.39-.07-.05-.21-.16-.27-.21l.02-.17Z"/>
          <path class="cls-7" d="M10.45,24.12c.26.63.28,1.31.31,1.99h-.41c.01-.67.04-1.33.11-1.99Z"/>
          <path class="cls-7" d="M45.43,25.56c-.29.03-.32-.07-.1-.31l.13.13-.03.18Z"/>
          <path class="cls-7" d="M43.38,25.57c.31-.25.51.34.28.53-.31.24-.52-.35-.28-.53Z"/>
          <path class="cls-7" d="M26.5,28.28c-.44.05-.49-.81,0-.58,0,.14,0,.43,0,.58Z"/>
          <path class="cls-7" d="M4.7,28.54c1.05.08,1.8.86,2.66,1.39.87.74,1.78,1.43,2.75,2.05-.09.68-.18,1.36-.25,2.04-1.41-1.22-3.26-1.73-4.66-2.94-.53-.4-1.16-.69-1.59-1.21.09-.56.74-.9,1.09-1.33Z"/>
          <path class="cls-7" d="M40.47,29.61c.45-.26.92-.5,1.39-.72.45,1.04.74,2.13,1.16,3.18-.36.27-.72.54-1.1.8-.63-1.02-.69-2.33-1.45-3.26Z"/>
          <path class="cls-7" d="M14.14,29.54c.29-.23.6.28.32.47-.29.22-.61-.29-.32-.47Z"/>
          <path class="cls-7" d="M44.12,29.64c.54,0,.36.57.42.93-.61.07-.39-.55-.42-.93Z"/>
          <path class="cls-7" d="M13.57,32.29c.84-.3,1.64-.69,2.49-.96-.01.37-.38.49-.63.68-.42.24-.78.57-1.08.95-.26,0-.52-.01-.78-.01,0-.22,0-.44,0-.65Z"/>
          <path class="cls-7" d="M42.13,34.54c.08.04.24.13.32.18.13.75.03,1.52.12,2.28-.27.19-.54.39-.81.59.06-1.02,0-2.07.37-3.04Z"/>
          <path class="cls-7" d="M45.33,36.17c-.59.23-.59-.78,0-.55,0,.14,0,.41,0,.55Z"/>
          <path class="cls-7" d="M39.9,36.12c.06-.03.17-.08.23-.11.44.7.26,1.58.33,2.37-.31.2-.61.39-.92.59.1-.95.03-1.95.36-2.86Z"/>
          <path class="cls-7" d="M17.47,38.45c.09-.55-.36-1.53.37-1.72.03.53.08,1.06,0,1.59-.09.03-.28.09-.37.12Z"/>
          <path class="cls-7" d="M37.7,39.94c.03-1-.19-2.07.3-2.99.37.88.26,1.87.24,2.81-.17.08-.35.14-.54.19Z"/>
          <path class="cls-7" d="M6.24,37.58c.32-.1.43,0,.33.33-.32.09-.43-.02-.33-.33Z"/>
          <path class="cls-7" d="M52.46,37.64c.3-.23.56.31.32.51-.3.22-.57-.32-.32-.51Z"/>
          <path class="cls-7" d="M49.31,38.82c.31-.23.52.33.29.52-.31.24-.54-.34-.29-.52Z"/>
          <path class="cls-7" d="M19.2,39.45c.59-.07.47.44.39.84-.51.17-.28-.57-.39-.84Z"/>
          <path class="cls-7" d="M26.77,39.81c.26.03.31.18.14.42-.27-.04-.32-.18-.14-.42Z"/>
          <path class="cls-7" d="M30.13,41.11c.32-.11.43,0,.34.32-.32.1-.44,0-.34-.32Z"/>
          <path class="cls-7" d="M18.07,43.58c.26.04.31.18.13.42-.27-.05-.31-.19-.13-.42Z"/>
          <path class="cls-7" d="M52.26,44.53c.3-.24.57.3.3.49-.3.22-.58-.31-.3-.49Z"/>
          <path class="cls-7" d="M33.47,47.59c-.46.19-.46-.57,0-.32,0,.08,0,.24,0,.32Z"/>
          <path class="cls-7" d="M51.1,49.08c.54-.04.23.77.3,1.09-.39-.23-.47-.7-.3-1.09Z"/>
          <path class="cls-7" d="M46.36,49.85c.43,0,.34.38.24.7-.39.06-.31-.46-.24-.7Z"/>
          <path class="cls-7" d="M14.57,55.39c.43-.24.45.64.09.71-.31-.06-.27-.54-.09-.71Z"/>
          <path class="cls-7" d="M23.58,56.32c0-.23.12-.37.37-.41.03.5.03,1,.03,1.5-.61,0-.38-.7-.4-1.09Z"/>
          <path class="cls-7" d="M12.22,56.22s.03.02.04.02c0,0-.03-.02-.04-.02Z"/>
          <path class="cls-7" d="M38.33,56.67c.25.36.49,1.17-.1,1.3,0-.44.03-.87.1-1.3Z"/>
          <path class="cls-7" d="M24.24,57.75c.32-.24.5.36.27.55-.32.24-.51-.37-.27-.55Z"/>
          <path class="cls-7" d="M23.17,60.36c.54.26.43.86.41,1.36-.67-.06-.34-.92-.41-1.36Z"/>
          <path class="cls-7" d="M28.37,61.13c.29-.22.6.29.3.48-.3.21-.61-.3-.3-.48Z"/>
        </g>
        <g>
          <path class="cls-3" d="M13.72,20.59c1.29-.17,2.53-.68,3.84-.69,0,.44.03.91-.16,1.33-.82-.33-1.69-.05-2.52.05-1.11.16-2.23.32-3.35.38-1.48.1-2.36,1.47-3.49,2.25,0-.31,0-.62,0-.93.71-.55,1.46-1.04,2.22-1.53,1.02-.7,2.31-.61,3.48-.87Z"/>
          <path class="cls-3" d="M37.07,31.69c.96-.96,2.3-1.32,3.4-2.09.76.94.82,2.24,1.45,3.26-1.58,1.07-3.26,1.98-4.89,2.97.02-1.38,0-2.77.04-4.15ZM39.57,31.13c-.25.18.05.64.31.46.22-.19-.05-.64-.31-.46ZM38.43,33.06c.14.23.11.72.48.7.06-.36-.1-.67-.48-.7ZM37.42,33.41c.05.39-.04.98.52.99-.06-.38,0-.96-.52-.99Z"/>
          <path class="cls-3" d="M13.56,32.94c.26,0,.52,0,.78.01-.03,1.18-.4,2.32-.47,3.51-.29-.17-.58-.34-.87-.5.34-.97.37-2.02.56-3.02Z"/>
          <path class="cls-3" d="M39.66,55.54c.03-.58.2-1.37.88-1.48.38-.12.52.4.6.69.14,1.22-.04,2.45.11,3.67-.54.35-1.07.71-1.6,1.06,0-1.32,0-2.63,0-3.94Z"/>
        </g>
        <g>
          <path class="cls-2" d="M26.25,1.22c.06.19.12.38.18.57v.07c-.27,1.29-.05,2.62-.24,3.92-.42-.27-.5.5-.04.33-.21,1.07-.31,2.16-.22,3.25,0,.14.03.42.04.57.02.36.01.71.02,1.07-.85-.09-1.74-.15-2.49-.6.94-3.05,1.82-6.12,2.75-9.18ZM24.82,8.93c-.24.1-.33.55-.04.65.42.07.51-.8.04-.65Z"/>
          <path class="cls-2" d="M4.16,5.68c.24.44.53.89.6,1.4-.11,2.02-.05,4.04-.03,6.07,0,.02,0,.07,0,.09-.04.68-.02,1.36-.01,2.04-1.54.15-3.06-.43-4.25-1.38.23-.43.46-.86.69-1.29,0,0,.01-.03.02-.04,1.19-2.21,2.01-4.58,2.99-6.89ZM3.89,11.17c-.26.06-.37.44-.2.65.34.17.58-.59.2-.65ZM2.7,13.49c-.27.03-.36.55-.04.59.28-.03.36-.57.04-.59ZM3.67,13.79c-.18.23-.13.38.14.42.17-.24.12-.38-.14-.42Z"/>
          <path class="cls-2" d="M41.2,22.37c1.35-3.23,2.34-6.6,3.59-9.87.07.34.2.68.21,1.04-.19,1.09-.43,2.19-.35,3.31.23,2.25-.12,4.51-.11,6.77-.69-.06-1.38-.13-2.02-.4-.44-.28-.81-.67-1.32-.84ZM42.42,21.22c-.27.17-.06.76.26.49.27-.18.05-.77-.26-.49ZM43.75,21.62c-.04.37-.17.96.37,1.01-.09-.34.24-1.17-.37-1.01Z"/>
          <path class="cls-2" d="M33.01,17.06c.11.31.24.62.29.95.23,3.47.03,6.95-.12,10.42.41-.03.83-.06,1.24-.11-1.79.3-3.87.23-5.33-.98-.15-.16-.51-.37-.31-.62,1.81-3.03,3.04-6.36,4.24-9.67ZM31.92,22.6c.3-.27.49-.61.52-1.01-.57.02-.54.59-.52,1.01ZM31.13,23.03c-.3.08-.43.67-.07.75.32-.06.42-.68.07-.75ZM31.31,24.87c.1,0,.29.02.38.02-.05.25-.08.51-.12.77.07.02.22.05.29.07.08-.32.16-.64.24-.96-.27.02-.53.06-.8.09ZM29.96,25.93c-.08.3-.3.71.1.9.22-.46.59-.96.44-1.5-.36-.03-.44.33-.54.6ZM30.76,27.74c.35-.36.35-.87.34-1.34-.49.27-.42.87-.34,1.34ZM32.52,27.67c.56,0,.3-.86.31-1.22-.29.32-.53.79-.31,1.22Z"/>
          <path class="cls-2" d="M19.87,21.83c.13.01.4.04.54.05l-.03.22c-.53,2.9-.5,5.89-1.35,8.72-.54-.07-1.07-.14-1.59-.25-.33-.55-.96-.78-1.33-1.27.82-1.4,1.42-2.92,2.18-4.36.52-1.04,1.09-2.06,1.59-3.11ZM17.27,29.16c.41-.16.51-.61.55-1-.56-.38-.43.7-.55,1ZM18.43,30.56c0-.38-.04-.74-.1-1.1-.24.32-.28.86.1,1.1Z"/>
          <path class="cls-2" d="M50.98,21.75c.15.36.34.73.36,1.13-.05.98-.03,1.97-.15,2.94-.49-.27-.97-.54-1.45-.82.43-1.08.87-2.16,1.23-3.26Z"/>
          <path class="cls-2" d="M56.38,30.88c.31.59.54,1.22.71,1.87,0,1.2-.19,2.39-.31,3.58-.11-.03-.32-.09-.43-.12-.04-1.77-.08-3.55.03-5.33Z"/>
          <path class="cls-2" d="M24.43,38.75c.38.09.34.62.54.89-.09.05-.26.14-.34.18.5-.02.56.55.69.92.24,1.1.41,2.22.58,3.34,0,.39.19,1.04-.34,1.17-1.16.28-2.58-.06-3.24-1.13.72-1.78,1.05-3.75,2.11-5.38Z"/>
        </g>
        <g>
          <path class="cls-6" d="M26.42,1.87c.8,2.7,1.48,5.43,2.26,8.14-.65.81-1.7,1.02-2.68,1.01,0-.36,0-.72-.02-1.07.58.23.52-.81-.04-.57-.09-1.09,0-2.18.22-3.25,0-.08.03-.24.04-.33.2-1.3-.03-2.63.23-3.92ZM26.83,8.63c-.31.26-.14.72.03,1.02.4-.05.34-.88-.03-1.02Z"/>
          <path class="cls-6" d="M4.73,13.15c-.01-2.02-.08-4.05.03-6.07.68,1.78,1.32,3.57,2.16,5.28.22.54.51,1.06.61,1.64-.69.85-1.79,1.14-2.82,1.28,0-.68-.03-1.36.01-2.04v-.04s0-.05,0-.05Z"/>
          <path class="cls-6" d="M44.65,16.84c-.08-1.12.16-2.22.35-3.31.18,1.07.58,2.08.89,3.11.45,1.7.88,3.42,1.48,5.08.12.39.39.7.66,1-.95.86-2.28.95-3.5.9,0-2.26.34-4.51.11-6.77ZM45.32,19.5c-.21.15,0,.61.26.41.19-.16-.02-.6-.26-.41ZM45.6,22.75c-.08-.35.17-.95-.3-1.07-.12.37-.18.94.3,1.07Z"/>
          <path class="cls-6" d="M33.3,18.01c.24,1.06.56,2.1.74,3.17.32,1.49.94,2.89,1.39,4.34.23.68.42,1.41.94,1.94-.59.4-1.24.74-1.95.86-.41.05-.83.08-1.24.11.15-3.47.35-6.95.12-10.42ZM33.7,23.6c-.25.09-.39.47-.23.7.33.13.54-.61.23-.7ZM33.7,25.89c.05.34.01.76.35.99-.06-.35.19-.97-.35-.99Z"/>
          <path class="cls-6" d="M19.02,30.82c.85-2.84.82-5.82,1.35-8.72,1.24,2.38,2.02,5,3.5,7.24-1.12,1.41-3.17,1.71-4.85,1.48ZM20.89,26.9c.03.39.13.76.24,1.13.05,0,.14-.03.19-.03-.13-.38-.25-.75-.43-1.1ZM19.82,27.14c-.1.53-.06,1.08.05,1.61.39-.12.25-.55.26-.85,0-.29-.02-.61-.31-.77ZM22.23,29.1c-.17.22-.02.6.24.69.41-.07.14-.91-.24-.69Z"/>
          <path class="cls-6" d="M51.19,25.82c.12-.98.1-1.96.15-2.94.4,1.2.68,2.44.95,3.68-.37-.23-.73-.46-1.1-.69v-.04Z"/>
          <path class="cls-6" d="M56.78,36.33c.12-1.19.32-2.38.31-3.58.38,1.09,1.08,2.08,1.26,3.24-.52.14-1.04.24-1.57.33Z"/>
        </g>
        <g>
          <path class="cls-5" d="M26.1,11.85c.65-.02,1.29-.11,1.92-.27-.01,4.72-.03,9.43-.03,14.14-.05.41.24.79.11,1.19-.27.53.46.84.33,1.38-.02,2.56.09,5.11.02,7.67-.72-.46-1.43-.94-2.22-1.29,0-.88.12-1.78-.1-2.64.13-.03.39-.1.52-.13-.04-.78.4-1.88-.4-2.39.06-.42.12-.84.23-1.25,0-.14,0-.43,0-.58-.09-.35-.17-.7-.24-1.05.61-.37.49-1.1.48-1.7-.06-.61.08-1.32-.43-1.77-.08-1.09.17-2.17.26-3.25.19-.72.36-1.69-.26-2.26-.13-.75-.15-1.52-.01-2.26.37-.47.57-1.48-.16-1.71,0-.62,0-1.24-.04-1.86ZM27.36,30.23c.08,0,.25,0,.34,0-.02-.28,0-.57-.07-.84-.43-.08-.19.58-.27.84ZM26.38,34.17c.09,0,.27.03.36.04.03-.25.06-.5.08-.74-.45-.06-.4.4-.45.7ZM27.39,34.86c.43-.12.4-.64.28-.98-.56-.15-.27.67-.28.98Z"/>
          <path class="cls-5" d="M4.27,16.22c1.05.01,2.1-.2,3.03-.7.05,1.1.02,2.2.06,3.3-.15,1.91.1,3.83-.02,5.75-.21-.14-.43-.29-.64-.43.08-.67-.09-1.46-.69-1.83-.6-.14-.9.53-.97,1.01-.06.37-.12.96.37,1.06h-.02c-.18.09-.36.17-.54.26-.21.09-.42.19-.63.29-.04-1.39.13-2.78.03-4.17.5.28.51-.65,0-.37.09-1.39.03-2.79.02-4.18ZM4.66,16.9c-.1.32,0,.43.33.33.1-.33,0-.44-.33-.33ZM5.34,18.92c-.21.56-.21,1.24-.02,1.81.36.41.82-.11.72-.52,0-.5.15-1.67-.7-1.29Z"/>
          <path class="cls-5" d="M12.94,18.18c1.92-.21,3.78-.84,5.72-.91,1.81.93,3.39,2.25,5.16,3.26-.31.28-.65.55-1,.78-.65-.72-1.46-1.26-2.17-1.92-.8-.72-1.74-1.36-2.79-1.64-1.08.01-2.06.62-3.14.68-1.32.25-2.71.09-3.98.56-.94.56-1.75,1.32-2.71,1.88,0-.29,0-.57-.01-.85.58-.42,1.2-.79,1.82-1.15.91-.62,2.07-.48,3.11-.69Z"/>
          <path class="cls-5" d="M30.98,17.53c.34-.27.72.05,1,.27-.06.14-.16.42-.22.56-.12-.02-.36-.05-.48-.07-.8.65-1.56,1.36-2.43,1.91,0-.29,0-.57,0-.86.7-.62,1.46-1.17,2.14-1.82Z"/>
          <path class="cls-5" d="M15.75,18.83c.52-.23,1.07-.41,1.62-.57.02.36.05.72.07,1.08-1.93.29-3.82.84-5.78,1.02,0-.38-.02-.76-.06-1.13,1.38-.11,2.77-.22,4.14-.4Z"/>
          <path class="cls-5" d="M8.07,21.46c1-.68,1.97-1.4,2.96-2.1-.02.38-.04.76-.07,1.15-1.08.43-1.99,1.17-2.95,1.81.01-.29,0-.58.06-.86Z"/>
          <path class="cls-5" d="M21.59,22.98c.47-.76,1.42-1.07,2.13-1.58,0,.27,0,.54,0,.81-.75.31-1.25,1-1.97,1.37l.09-.22c.19-.2.03-.57-.25-.39Z"/>
          <path class="cls-5" d="M11.67,22.22c1.59-.06,3.17-.34,4.74-.57-.03,1.02,0,2.04.02,3.06-.7.39-1.37.83-1.93,1.4-.86.37-1.6.94-2.38,1.45-.17-.09-.35-.19-.52-.27.19-1.68.04-3.38.07-5.07ZM12.57,23.02c-.14.22-.14.44,0,.66.28,0,.28-.7,0-.66ZM14.01,25.22c.08-.47.13-.94.07-1.4-.26.38-.45,1.04-.07,1.4ZM15.3,24.22c-.23.15,0,.59.25.41.2-.16,0-.59-.25-.41ZM12.43,26.81c.56.15.37-.76.42-1.09-.46.14-.39.71-.42,1.09Z"/>
          <path class="cls-5" d="M9.37,23.53c.51-.46,1.03-.9,1.64-1.23.01,1.58-.02,3.17,0,4.75-1.03-.73-2.1-1.38-3.15-2.08.34-.63,1-.97,1.51-1.44ZM9.25,23.97c-.09.27,0,.37.28.3.09-.28,0-.38-.28-.3ZM10.45,24.12c-.06.66-.09,1.32-.11,1.99h.41c-.02-.67-.05-1.36-.31-1.99ZM9.93,25.83c.02-.46,0-.91-.04-1.36-.28.38-.39,1.04.04,1.36Z"/>
          <path class="cls-5" d="M46.73,24.36c.34-.09.67-.23,1.01-.35,0,2.68.04,5.36.04,8.05-.11,2.95.02,5.9-.04,8.85-.14,4.49-.07,8.98-.1,13.47-.22,1.15-1.16,2.07-2.28,2.39.04-1.22-.07-2.45.08-3.67.25-.24.23-.67-.15-.73.12-.86.09-1.73.05-2.59.08-.24.08-.48.02-.71,0-.91.04-1.82-.05-2.72.02-.4.04-.79.04-1.19.05-3,0-6-.02-8.99,0-.14,0-.41,0-.55.07-1.21-.09-2.44.13-3.64.17-.23.17-.45,0-.67-.18-.8-.1-1.62-.11-2.42,0-1.11-.18-2.25.09-3.34l.03-.18-.13-.13c-.03-.22-.07-.44-.09-.66.5-.07.99-.13,1.48-.23ZM46.22,29.79c-.1.65-.09,1.33-.01,1.99.06.35.72.35.77,0,.08-.63.07-1.28,0-1.91-.09-.35-.59-.4-.76-.08ZM46.34,33.72c-.17.18-.18.38-.04.59.29.05.36-.65.04-.59ZM46.02,37.7c-.13.8-.08,1.64-.03,2.45.06.4.74.41.8,0,.07-.73.05-1.47.02-2.21.05-.42-.58-.66-.78-.24ZM45.95,41.97c-.26.15-.05.67.24.45.26-.16.04-.68-.24-.45ZM46.09,43.32c-.06.37-.04.82.34,1.02-.08-.34.13-.93-.34-1.02ZM45.78,46.13c-.23.53-.08,1.15-.12,1.71.05.42-.12.94.23,1.27.29.07.48-.02.6-.28.06-.8.04-1.6,0-2.4.04-.38-.48-.66-.72-.31ZM46.36,49.85c-.07.23-.15.75.24.7.09-.31.19-.69-.24-.7ZM46.33,53.28c-.17.12-.19.62.1.58.17-.13.19-.64-.1-.58ZM45.69,55.05c-.13.34-.09.69.05,1.02.07-.05.22-.15.29-.2-.04-.31.01-.68-.34-.82Z"/>
          <path class="cls-5" d="M5.82,24.75c.24-.04.48-.08.73-.1,1.55,1.24,3.27,2.28,4.97,3.3-.24.15-.49.31-.73.47-1.7-1.28-3.53-2.37-5.26-3.62l.3-.05Z"/>
          <path class="cls-5" d="M16.26,25.73c.38-.42.83-.76,1.34-1-.33.6-.64,1.22-.94,1.84-.75.06-1.3.62-1.9,1-.66.48-1.43.77-2.07,1.28-.5.38-.44,1.08-.57,1.63-.16,1.54-.73,3.01-.83,4.55.29.87,1.16,1.38,1.86,1.91.94.54,1.84,1.21,2.86,1.6v1.43c-.75-.51-1.52-.96-2.32-1.36-1.24-.62-2.14-1.7-3.3-2.44.17-2.39.46-4.77.87-7.13,1.64-1.14,3.48-2,5-3.31Z"/>
          <path class="cls-5" d="M48.39,25.29c1.41.5,2.63,1.37,3.87,2.19.76.5,1.63.8,2.45,1.18.07.21-.22.27-.32.41-1.05.79-1.89,1.82-2.97,2.58-.97.67-1.97,1.31-3.05,1.78,0-.4,0-.79,0-1.18,1.31-.63,2.33-1.68,3.5-2.51.28-.24.8-.58.5-1.01-.45-.59-1.2-.83-1.82-1.16-.72-.34-1.38-.82-2.15-1.07,0-.41-.01-.81-.01-1.21Z"/>
          <path class="cls-5" d="M48.38,27.12c1.12.65,2.35,1.11,3.4,1.87-1.17.79-2.13,1.88-3.41,2.5-.05-1.46.02-2.91,0-4.37ZM49.48,29.03c-.01-.34-.04-.68-.08-1.01-.37.24-.34.84.08,1.01ZM49.62,28.19c-.28.17,0,.66.29.46.22-.18-.03-.63-.29-.46ZM48.41,30.49c.1.01.29.05.39.06-.06-.33.2-.82-.11-1.03-.47.06-.18.66-.27.97Z"/>
          <path class="cls-5" d="M16.25,27.36c-.32.94-1.08,1.69-1.21,2.7.21.09.39.24.47.46-.7.46-1.36.99-2.14,1.32,0-.87-.02-1.74-.06-2.61,1.01-.57,2-1.17,2.93-1.87ZM14.14,29.54c-.29.19.02.69.32.47.29-.2-.03-.7-.32-.47Z"/>
          <path class="cls-5" d="M33.54,29.31c1.03-.05,2.04-.36,2.96-.82-.12,1.91.28,3.84-.11,5.73-.02,7.57,0,15.13,0,22.7-.03,1.18-.06,2.37.07,3.56.08.82-.02,1.75-.66,2.35-.62.55-1.4.89-2.19,1.15l-.2-.15c-.02-1.32.13-2.63.05-3.95-.11-1.48.04-2.97.01-4.45.11.02.33.05.44.07-.14-.15-.29-.3-.42-.44,0-1.08-.02-2.17-.03-3.25-.01-.15-.04-.45-.05-.6.13-1.2.07-2.4.05-3.61,0-.08,0-.24,0-.32.02-2.18.07-4.36,0-6.53.05-.34.05-.68,0-1.01.03-.45.06-.9,0-1.34.08-.08.24-.25.32-.33-.07-.42-.18-.84-.33-1.23.14-.66.03-1.32-.07-1.97-.03-.36-.03-.71,0-1.06.23-1.48.04-2.99.14-4.48ZM33.96,31.15c-.08.56-.06,1.13-.01,1.69.03.29.45.46.61.13.25-.47.16-1.04.12-1.54.02-.37-.49-.67-.71-.28ZM34.9,35.64c.07-.37.1-.73.09-1.1-.21.33-.28.75-.09,1.1ZM34.33,37.24c-.19.55-.12,1.16-.08,1.74-.01.47.8.47.79,0,.05-.53.07-1.08-.03-1.6-.05-.32-.52-.4-.68-.13ZM34.37,43.42c-.09.61-.11,1.26.02,1.88.13.32.53.3.69,0,.13-.59.09-1.21.04-1.8-.08-.35-.6-.42-.76-.08ZM33.94,49.68c-.21.54-.12,1.17-.08,1.75,0,.46.81.46.79,0,.05-.54.07-1.09-.02-1.62-.04-.32-.56-.4-.68-.12ZM35.04,54.99c.22-.28.26-.6.12-.92-.21.27-.14.61-.12.92ZM34.79,58.9c.3-.17.42-.54.07-.75-.03.24-.06.49-.07.75ZM33.73,61.04c.43.01.3-.56.34-.83-.37.12-.47.49-.34.83ZM35.49,61.11c-.27.05-.32.55-.03.61.29-.04.34-.58.03-.61ZM33.78,62.76c-.09.22-.08.51.24.44.38-.1-.04-.89-.24-.44Z"/>
          <path class="cls-5" d="M51.91,32.1c1.27-.93,2.26-2.19,3.59-3.04.2,2.17.08,4.36.11,6.53.02,4.4-.14,8.79-.07,13.19-2.43,1.61-4.62,3.59-7.25,4.9.07-6.51-.13-13.02-.09-19.53,1.37-.41,2.55-1.24,3.71-2.05ZM53.5,33.51c-.13.76-.08,1.56-.04,2.33-.03.44.59.67.81.24.09-.82.1-1.65.05-2.47-.06-.39-.67-.46-.82-.11ZM51.4,34.67c.29-.1.25-.63-.03-.71-.33.06-.28.65.03.71ZM50.11,34.64c-.18.17-.21.63.09.69.37-.07.35-.94-.09-.69ZM50.14,35.86c-.2.76-.2,1.64,0,2.41.86.41.72-.79.72-1.29-.01-.47.12-1.47-.65-1.23l-.08.12ZM52.46,37.64c-.25.19.02.73.32.51.24-.21-.02-.74-.32-.51ZM49.31,38.82c-.25.18-.03.76.29.52.24-.19.02-.76-.29-.52ZM50.86,39.43c-.27.41-.11.99.23,1.31.03-.27.04-.54.04-.8-.06-.15.04-.68-.26-.51ZM53.4,40.17l-.1.07c-.23.8-.11,1.67-.09,2.49-.03.47.8.47.79,0,.05-.73.05-1.47,0-2.2.02-.27-.36-.66-.59-.37ZM50.12,42.56c-.2.41-.08.89-.12,1.34.04.48-.1,1.02.15,1.47.24.17.69.09.68-.27.05-.8.06-1.6-.01-2.4-.03-.34-.55-.44-.7-.15ZM49.09,43.56c-.31.18,0,.7.3.46.31-.19,0-.69-.3-.46ZM52.26,44.53c-.27.18,0,.72.3.49.27-.19,0-.73-.3-.49ZM50.34,46.2c-.1.28-.05.58-.05.87.44-.02.48-1.01.05-.87ZM53.7,47.08c.02-.3.09-.61,0-.91-.45-.01-.32.74,0,.91ZM51.1,49.08c-.17.39-.09.86.3,1.09-.07-.32.24-1.12-.3-1.09ZM52.76,50.46c0-.36,0-.71-.03-1.06-.44.12-.44.96.03,1.06ZM49.29,49.63c-.11.32,0,.43.32.33.1-.33,0-.44-.32-.33ZM48.65,52.42c.63.03.49-.79.29-1.16-.49.11-.23.8-.29,1.16ZM49.89,51.17c.04.29-.13.75.3.82-.03-.31.14-.76-.3-.82Z"/>
          <path class="cls-5" d="M12.18,33.02c.32-1.17.38-2.38.66-3.56.2,1.04-.29,2.21.32,3.16-.07,1.06-.42,2.07-.61,3.11-.23-.23-.49-.43-.66-.7-.04-.62.26-1.22.18-1.84.22,0,.44.02.66.04,0-.15.03-.44.04-.59-.2.13-.39.26-.59.39ZM12.5,34.21c.31-.06.23-.6-.04-.66-.36.02-.29.63.04.66Z"/>
          <path class="cls-5" d="M19.77,31.68c1.3.05,2.58-.3,3.75-.83,0,.66,0,1.33,0,2-.31-.02-.48.12-.52.43-.84.23-1.53.75-2.17,1.31-.33.14-.67.28-1,.42-.03-1.11-.04-2.21-.07-3.32Z"/>
          <path class="cls-5" d="M14.89,33.04c.3-.36.71-.58,1.1-.82.03,1.83-.01,3.67.03,5.5-.52-.37-1.07-.68-1.64-.96,0-1.26.34-2.48.51-3.72ZM15.36,33.92c-.17.22-.17.57-.03.82.27-.06.32-.78.03-.82ZM14.94,34.9c-.09.28,0,.37.28.29.08-.29-.01-.38-.28-.29Z"/>
          <path class="cls-5" d="M37.04,36.39c2.26-1.1,4.44-2.36,6.45-3.88.02,1.39,0,2.78.02,4.18-.26,0-.52,0-.77.02.11-.66.25-1.35.06-2.01-.19-.53-1.09-.63-1.18.02-.29,1.07-.19,2.22-.49,3.3-.07-.73-.06-1.52-.45-2.17-.29-.37-.98-.49-1.22,0-.39.76-.4,1.67-.43,2.51-.06.34.25.85-.16,1.05-.1-.74-.09-1.49-.22-2.23-.06-.39-.41-.8-.85-.69-.53.28-.57.95-.61,1.48-.02.79-.11,1.59.08,2.36-.05.05-.16.16-.21.21.03-1.39-.01-2.77-.02-4.15Z"/>
          <path class="cls-5" d="M23.43,33.52c1.16.71,2.35,1.36,3.44,2.18-.82.23-1.68.14-2.52.16-.82-.5-1.65-.98-2.43-1.52.53-.21,1.12-.37,1.51-.82Z"/>
          <path class="cls-5" d="M56.32,37.02c.48-.03.95-.07,1.43-.1-.08.26-.15.52-.22.79-.24-.09-.58-.25-.71.08,0,.35.19.52.56.53-.24.78-.63,1.5-1.01,2.22-.06-1.17,0-2.34-.04-3.5Z"/>
          <path class="cls-5" d="M37.06,41.25c2.13-1.42,4.49-2.52,6.45-4.2-.04,5.76,0,11.51-.03,17.27l-.41-.15c-.02.38-.02.78.01,1.17l.43-.17c-.01.62-.01,1.25-.02,1.88-.55.28-1.07.62-1.58.97-.01-1.39.04-2.78,0-4.18-.42-.05-.72-.37-1.12-.47-.66,0-1.31.4-1.51,1.05-.67,1.76-.27,3.69-.37,5.53-.66.44-1.29.92-1.94,1.37.15-3.05.06-6.1.08-9.16.01-3.64-.03-7.29.02-10.93ZM43.04,43.32c.08-.32.35-.71.07-1-.54.04-.2.7-.07,1ZM41.14,43.89c-.11.33,0,.44.31.35.1-.33,0-.45-.31-.35ZM40.02,44.97c-.25.13-.17.47-.2.7,0,.55-.02,1.12.07,1.67.16.29.57.3.75,0,.09-.68.09-1.38.05-2.06.02-.35-.41-.47-.67-.32ZM37.84,46.82c-.02.35-.02.7,0,1.06.53-.03.54-1.02,0-1.06ZM39.49,49.69c.11-.36.18-.74.06-1.11-.29.3-.34.79-.06,1.11ZM38.32,49.29c.04.29-.05,1.01.34,1,.05-.33.25-1.19-.34-1ZM41.23,50.56c-.12.48-.05.97.09,1.44.22-.46.22-1.02-.09-1.44ZM42.43,52.41c.38-.18.3-.63.25-.96-.55-.13-.25.65-.25.96ZM39.2,52.57c-.18.21-.14.67.16.75.31-.12.25-.96-.16-.75ZM37.92,53.96c.06-.23.13-.45.16-.68-.49-.42-.34.44-.16.68ZM42.19,55.59c-.15.38-.17.89.32,1.01-.04-.33.28-1.18-.32-1.01ZM37.39,57.67c.48-.2.32-.76.37-1.16-.58.07-.38.76-.37,1.16ZM38.33,56.67c-.07.42-.1.86-.1,1.3.59-.12.35-.93.1-1.3ZM38.06,58.22c-.33.22-.14.82-.15,1.19.56.13.58-1.16.15-1.19Z"/>
          <path class="cls-5" d="M27.28,38.87c1.3.52,2.8.62,4.06-.06.26,1.22.15,2.47.18,3.71,0,2.11.03,4.21-.06,6.32,0,5.03-.04,10.07-.03,15.1-.49.22-.96.5-1.44.74-.84.41-1.79.3-2.69.34.05-.85.08-1.69.04-2.54.05-.27.05-.55,0-.81.16-4.74.03-9.49-.06-14.23-.11-2.86,0-5.71,0-8.57ZM27.56,40.19c-.1.32,0,.43.33.33.1-.33-.01-.43-.33-.33ZM30.13,41.11c-.1.31.01.42.34.32.1-.32-.01-.43-.34-.32ZM28.67,44.1c.14.55,1,.35.91-.21-.04-.71.29-1.69-.47-2.1-.78.49-.42,1.55-.43,2.31ZM30.15,47.47c-.26.12-.3.65-.02.76.36-.04.39-.75.02-.76ZM28.95,48.68c-.39.59-.11,1.45-.17,2.14-.11.46.47.81.79.42.15-.72.08-1.48.07-2.21.05-.34-.44-.66-.69-.36ZM28.6,55.17c-.03.69-.08,1.39.02,2.08.09.46.85.31.8-.14.05-.71.07-1.43-.05-2.13-.21-.08-.38-.2-.52-.37-.08.19-.17.37-.25.56ZM27.79,58.76c-.17.14-.25.62.06.65.3-.08.37-.88-.06-.65ZM28.37,61.13c-.3.18,0,.69.3.48.3-.19,0-.7-.3-.48ZM29.77,62.29c-.18.39-.04.81.18,1.15.07-.34.43-1.23-.18-1.15ZM28.19,64.03c.43-.07.44-.46.27-.78-.2.22-.26.49-.27.78Z"/>
        </g>
        <g>
          <path class="cls-4" d="M24.51,20.79c-.12-3.04-.03-6.09-.05-9.13.54.09,1.09.15,1.65.2.04.62.05,1.24.04,1.86-.2-.09-.39-.18-.58-.26.12.13.23.26.36.39.01.54-.19,1.24.39,1.57-.14.74-.12,1.51.01,2.26-.6.82-.23,1.92-.34,2.86-.19-.04-.38-.08-.56-.12.05.2.1.39.16.6.29.06.57.17.82.34,0-.4-.02-.79.01-1.18l.17-.25c-.09,1.08-.34,2.16-.26,3.25-.19.29-.33.61-.32.96-.03.84-.21,1.76.27,2.51.07.35.15.7.24,1.05-.49-.24-.45.63,0,.58-.11.41-.18.82-.23,1.25-.51.74-.33,1.7-.12,2.52.22.86.11,1.76.1,2.64-.69-.41-1.35-.85-2.02-1.3.01-1.04,0-2.09.01-3.13.26-.32.51-.67.51-1.1-.19-.27-.37-.55-.54-.84.38-.75.18-1.61.22-2.4.04-1.71-.08-3.43.07-5.13ZM24.98,14.84c.01.44-.04.95.35,1.27.11-.43.31-1.2-.35-1.27ZM24.83,17.63c-.15.44-.3,1.23.28,1.41.02-.49.11-1.04-.28-1.41ZM24.99,27.3c-.11.37-.13.76-.05,1.14.5-.21.38-.84.05-1.14ZM24.96,29.5c.05.26.1.53.16.79.13-.25.19-.53.27-.79-.11,0-.32,0-.43,0ZM25.41,32.27c-.3.08-.35.66-.03.76.33-.05.38-.7.03-.76Z"/>
          <path class="cls-4" d="M1.33,15.46c.92.45,1.91.76,2.94.76.01,1.39.07,2.79-.02,4.18v.37c.1,1.39-.07,2.78-.03,4.17.21-.1.42-.2.63-.29.14.99-.02,1.99,0,3-.75.52-1.38,1.18-1.95,1.89-.68.32-.63,1.37-.1,1.8.11-.07.33-.21.44-.28.09.85-.31,1.9.4,2.58.34.38.75.7,1.15,1.02.01,2.16,0,4.31-.02,6.47-.34.39-.77.73-1.29.4-1.17-.03-2.19-.98-2.22-2.16.09-7.96.03-15.93.06-23.89ZM2.54,17.89c-.21.49-.3,1.69.51,1.59.41-.36.21-.98.19-1.45-.05-.32-.56-.43-.7-.14ZM2.34,23.42c-.18.48-.15,1.03-.05,1.53.06.37.67.37.72,0,.1-.46.1-.94,0-1.39-.04-.32-.51-.41-.68-.14ZM1.72,28.15c-.19.23-.27.55.08.66.28-.18.19-.54-.08-.66ZM2.29,31.66c-.1.31.01.42.34.34.1-.32-.02-.43-.34-.34ZM1.66,34.68c-.02.08-.07.23-.09.31.38.61.73-.63.09-.31ZM3.27,36.81c-.08.41.38.32.63.43.01-.22.15-.49-.12-.61-.19.01-.36.07-.52.18ZM3.74,38.27c-.16.44.44.55.68.27.11-.43-.43-.55-.68-.27ZM1.76,38.46c.02.08.07.24.09.32.08.02.24.07.33.09.02-.13.06-.38.08-.51-.12.03-.37.08-.5.1ZM3.14,40.26c-.34.01-.31.37-.2.6.21.03.56.08.62-.21.07-.25-.18-.47-.42-.39ZM4.08,40.22c-.47.31.38.73.49.25.26-.3-.36-.54-.49-.25Z"/>
          <path class="cls-4" d="M35.46,16.44c1.06.61,1.95,1.46,2.97,2.13.88.56,1.57,1.44,2.6,1.71-.21.61-.4,1.22-.5,1.86-.3-.36-.03-.99-.5-1.19-.03.36-.04.71-.04,1.08.28.49.58.98.81,1.51.06,1.72,0,3.45.03,5.17-1.23.72-2.5,1.37-3.72,2.11.02-.91-.04-1.82.05-2.72.13-.41.38-.79.32-1.23-.16,0-.48-.03-.63-.04-.68-1.46-1.08-3.03-1.74-4.51.08-.08.25-.25.33-.34.02-1.85,0-3.69,0-5.54ZM36.25,17.91c-.21.18,0,.69.29.49.2-.19-.02-.68-.29-.49ZM36.48,19.88c-.18.34-.27.74-.67.9.15.14.29.28.44.43,0,.47-.05,1.43.72,1.11.34-.61.13-1.43.14-2.11.04-.35-.38-.47-.64-.33ZM38.87,21.65c-.25.66-.22,1.4-.2,2.1-.04.28.24.48.51.46.54-.24.26-.96.37-1.42,0-.48.22-1.51-.58-1.3l-.1.17ZM36.69,23.97c.25-.33.41-.72.39-1.13-.68-.22-.48.75-.39,1.13ZM37.67,24.96c.45-.15.42-.66.3-1.03-.28.27-.29.66-.3,1.03ZM39.1,24.84c0,.23-.06.64.27.68.15-.24.19-1.01-.27-.68ZM39.98,26.16c.53-.05.24-.72.13-1.03-.24.28-.37.7-.13,1.03ZM39.77,28.43c.45-.24.29-.8.22-1.2-.54.12-.22.82-.22,1.2ZM37.91,27.6c-.18.28.19,1.29.36.61.12-.25.04-.92-.36-.61ZM39.02,28.55c-.18.24-.14.38.13.43.18-.24.13-.39-.13-.43Z"/>
          <path class="cls-4" d="M4.66,16.9c.32-.11.42,0,.33.33-.32.1-.43-.01-.33-.33Z"/>
          <path class="cls-4" d="M17.98,18.28c1.65.77,3.06,2,4.23,3.38-.32.2-.65.4-.97.6-.19-.44-.34-.9-.58-1.3-.25-.2-.57-.27-.86-.4-.02.1-.06.31-.07.42-.27-.24-.54-.5-.8-.74.16.02.49.05.65.07,0-.06.01-.19.02-.25-.12.04-.36.12-.47.16.05-.31,0-.56-.19-.8-.05.17-.13.52-.18.69-.07-.08-.2-.22-.27-.3.03-.32.18-.77-.24-.91-.02.18-.06.53-.07.7-.07,0-.2-.02-.27-.02.06-.08.17-.24.23-.32-.05-.33-.1-.66-.15-.98Z"/>
          <path class="cls-4" d="M30.02,20.22c.54-.34,1.05-.74,1.46-1.23-.79,1.95-1.51,3.96-2.59,5.78-.04-.58-.04-1.16-.05-1.75.11,0,.32.02.42.03,0-.34,0-.67.02-1-.11.01-.33.04-.44.05,0-.31.01-.62.02-.92.31-.27.62-.54.94-.8.01.33.03.69.11,1.02.5-.18.23-.81.11-1.16Z"/>
          <path class="cls-4" d="M34.56,20.39c0-.41-.42-.99.05-1.26,0,.42-.03.84-.05,1.26Z"/>
          <path class="cls-4" d="M17.15,21.77c.52.27,1.02.56,1.52.88-.18.38-.37.76-.58,1.13-.33.11-.65.24-.97.37.03-.79.03-1.59.03-2.38ZM17.7,22.79c-.11.31,0,.43.32.34.11-.32,0-.43-.32-.34Z"/>
          <path class="cls-4" d="M22.59,23.91c.38-.31.76-.61,1.14-.92-.01,1.45,0,2.9,0,4.35-.59-1.05-1.08-2.15-1.59-3.24.28-.08.58-.09.87-.07l-.41-.13ZM23.04,24.34c.03.35-.06.79.36.96-.02-.34.12-.88-.36-.96Z"/>
          <path class="cls-4" d="M9.25,23.97c.28-.07.37.03.28.3-.28.07-.37-.04-.28-.3Z"/>
          <path class="cls-4" d="M41.48,23.84c1.64.76,3.48.64,5.24.52-.49.1-.99.16-1.48.23.03.22.06.43.09.66-.22.24-.19.34.1.31-.28,1.1-.09,2.23-.09,3.34.01.81-.07,1.62.11,2.42-.45-.03-.45.69,0,.67-.22,1.2-.06,2.42-.13,3.64-.59-.24-.59.78,0,.55,0,3,.06,5.99.02,8.99-.08.08-.23.25-.31.34.07.29.17.57.27.85.09.9.05,1.81.05,2.72-.53-.05-.5.66-.02.71.04.86.07,1.73-.05,2.59-.13.29-.08.53.15.73-.15,1.22-.04,2.45-.08,3.67-.4.06-.8.13-1.2.2.05-7.92-.02-15.84,0-23.75-.06-.91-.65-1.67-.86-2.54-.22-.87-.76-1.64-.82-2.55-.33.08-.66.14-.99.22-.01-1.51,0-3.01,0-4.51ZM41.86,25.42c-.04.35,0,.72.11,1.06.4,0,.23-.48.27-.74.01-.24-.12-.55-.38-.32ZM43.38,25.57c-.24.18-.03.77.28.53.23-.19.03-.78-.28-.53ZM44.12,29.64c.03.38-.19,1,.42.93-.07-.36.11-.93-.42-.93ZM44.54,55.18c-.12.3-.15.63-.05.95.58.16.67-1.16.05-.95Z"/>
          <path class="cls-4" d="M5.38,25.51c.4.27.8.56,1.19.85,0,.16.02.48.03.64.1-.1.31-.29.41-.39.62.49,1.27.92,1.94,1.33-.17.44-.25.9-.1,1.36.33-.33.32-.79.26-1.22.47.34.95.68,1.42,1.04-.12.73-.24,1.46-.33,2.19-.89-.57-1.7-1.25-2.52-1.92-.78-.49-1.53-1.02-2.31-1.51,0-.79-.02-1.58.01-2.37ZM7.77,28.8c.17-.44.31-.9.21-1.37-.38.29-.7,1.04-.21,1.37ZM9.82,29.72c-.29.08-.37.65-.05.74.34-.05.41-.71.05-.74Z"/>
          <path class="cls-4" d="M29.19,28.48c1.34.7,2.86.9,4.35.83-.1,1.49.09,2.99-.14,4.48-.09-.04-.28-.11-.37-.14-.02.41-.02.82-.02,1.24.13-.01.26-.02.4-.03.1.65.21,1.31.07,1.97-.19.51-.12,1.05.01,1.56.05.44.03.89,0,1.34-.36.25-.32.74,0,1.01.07,2.18.03,4.36,0,6.53-.45-.26-.46.51,0,.32.01,1.2.08,2.4-.05,3.61-.56-.02-.52.87.05.6,0,1.08.02,2.17.03,3.25.14.14.28.29.42.44-.11-.02-.33-.05-.44-.07.02,1.48-.12,2.97-.01,4.45.08,1.32-.07,2.63-.05,3.95l.2.15c-.49.03-.99.01-1.48-.03,0-5.1-.05-10.2-.04-15.3-.14-3.36-.03-6.73-.05-10.09.07-.44-.39-.63-.64-.89-.03-.82.06-1.69-.29-2.45-.16-.4-.75-.59-1.03-.21-.37.5-.24,1.17-.27,1.76-.22-.12-.45-.24-.67-.36,0-2.64.05-5.28.04-7.92ZM30.54,30.91c-.15.76-.11,1.56,0,2.33.07.34.63.33.7-.02.13-.69.03-1.41-.09-2.09-.07-.29-.36-.39-.61-.23ZM31.68,32.81c.03.31-.03.73.34.88-.02-.35.19-.87-.34-.88ZM32.99,59.12c.35-.37.32-.89.29-1.35-.55.25-.29.89-.29,1.35ZM32.46,62.71c-.27.17-.03.78.28.51.22-.19.03-.74-.28-.51Z"/>
          <path class="cls-4" d="M3.83,30.94c.79.4,1.55.87,2.24,1.44.82.69,1.93.91,2.73,1.62.3.27.68.47.95.79.02.78-.04,1.57-.06,2.36-1.57-1.03-3.12-2.1-4.78-2.99-.3-.17-.5-.45-.71-.71-.62-.68-.32-1.67-.38-2.5ZM4.43,31.97c.1.51-.24,1.36.4,1.59.23-.47.21-1.02.15-1.52-.15-.17-.37-.09-.55-.07ZM6.1,34.22c.55-.1.58-.78.25-1.13-.67-.05-.32.76-.25,1.13ZM7.84,34.44c-.05.41-.23,1.05.23,1.29.55-.17.49-1.72-.23-1.29Z"/>
          <path class="cls-4" d="M16.75,31.07c.97.36,2,.44,3.02.61.02,1.1.03,2.21.07,3.32.33-.14.67-.28,1-.42.44.05.29.54.33.84-.03,3.15-.03,6.3-.03,9.46.01,1.39-.06,2.78.12,4.16.04,2.83,0,5.65-.07,8.48.03,1.37.06,2.75-.01,4.12-1.06.41-2.22.05-3.15-.53-.8-.53-1.16-1.5-1.3-2.4-.02-9.21.02-18.43.02-27.64ZM17.73,33.29c.12-.49.17-.99.05-1.48-.16.46-.39,1.03-.05,1.48ZM18.87,32.43c.06.35.14.69.26,1.03.07-.37.31-1-.26-1.03ZM18.87,35.06c-.34.31-.15.9-.21,1.33.02.45-.12,1.29.58,1.24.63-.35.28-1.25.37-1.84.11-.43-.26-1.1-.73-.72ZM17.47,38.45c.09-.03.28-.09.37-.12.08-.53.03-1.07,0-1.59-.73.18-.28,1.17-.37,1.72ZM18.25,39.34c-.14.42-.1.88.15,1.26.03-.41.39-1.08-.15-1.26ZM19.2,39.45c.11.27-.12,1.01.39.84.07-.4.2-.91-.39-.84ZM18.87,42.74c-.37.53-.15,1.31-.16,1.93-.02.43.54.58.8.25.15-.64.11-1.32.05-1.96-.02-.32-.49-.47-.69-.23ZM18.07,43.58c-.18.24-.13.38.13.42.17-.24.13-.39-.13-.42ZM18.71,49.12l-.11.06c-.18.91-.08,1.87-.06,2.8-.07.52.86.53.81.02.05-.85.06-1.71,0-2.56.03-.33-.4-.48-.64-.31ZM20.06,49.7c-.31.19.05.67.33.45.31-.21-.05-.68-.33-.45ZM19.5,54.62c0,.34-.18,1.56.41,1.17.01-.37.14-1.25-.41-1.17ZM17.93,55.04c-.14.27-.23.85.07,1.02.14-.28.21-.86-.07-1.02ZM19.95,59.39c-.25.36-.27.85-.11,1.25.39.07.31-.51.36-.74-.04-.18.06-.61-.24-.51ZM18.51,60.52c.25-.29.27-.68.31-1.04-.61-.04-.33.67-.31,1.04Z"/>
          <path class="cls-4" d="M14.94,34.9c.27-.09.37,0,.28.29-.28.08-.37-.01-.28-.29Z"/>
          <path class="cls-4" d="M5.44,35.11c.77.52,1.61.92,2.33,1.5.6.47,1.24.92,1.93,1.27-.01,2.28,0,4.55-.04,6.83-1.18-1.06-2.54-1.9-3.82-2.82-.12-.22-.24-.44-.36-.65-.03-2.05-.04-4.1-.04-6.14ZM6.24,37.58c-.11.32,0,.43.33.33.1-.33,0-.43-.33-.33ZM7.68,39.16c-.23.28.25.61.46.32.26-.29-.26-.63-.46-.32ZM6.18,40.88c-.2.45.33.78.66.47.18-.41-.41-.48-.66-.47ZM8.26,41.26c-.25.11-.29.38-.24.63.29.07.69-.05.72-.39.1-.37-.24-.36-.47-.24ZM8.61,43.46c.27-.03.62,0,.65-.36-.23-.59-.84-.11-.65.36Z"/>
          <path class="cls-4" d="M21.86,35.19c1.26.75,2.5,1.53,3.64,2.44.57.43,1.12.89,1.77,1.21v.02c.01,2.86-.1,5.71,0,8.57.09,4.74.22,9.49.06,14.23-.3.19-.35.63,0,.81.04.85.02,1.69-.04,2.54-1.48-.03-2.35-1.34-3.53-2.02-.59-.38-1.18-.73-1.76-1.12.02-4.62-.11-9.23-.06-13.85.02-1.18-.14-2.35-.06-3.52.06,1.61.5,3.16.87,4.71.17.72.67,1.44,1.42,1.64.39-.1.69-.4.88-.75.75-1.28.83-2.78.93-4.22.42-.35.69-.84.6-1.4-.19-1.99-.55-3.98-1.32-5.84-.14-.37-.3-1.03-.84-.8-.59.33-.89.99-1.18,1.57-.54,1.32-.98,2.69-1.39,4.06.02-2.76,0-5.52-.01-8.29ZM23.42,36.85c-.17.24-.13.39.13.45.17-.25.13-.4-.13-.45ZM22.41,38.2c.04.26.04.56.24.77.03-.25.06-.5.08-.74-.08,0-.24-.02-.32-.03ZM26.77,39.81c-.17.24-.13.38.14.42.17-.25.12-.39-.14-.42ZM23.81,51.81c-.43.45-.18,1.2-.25,1.78.08.46-.14,1.18.41,1.41.26.05.56-.16.55-.43.09-.79.11-1.59.04-2.38,0-.36-.48-.66-.75-.38ZM23.58,56.32c.02.39-.21,1.09.4,1.09,0-.5,0-1-.03-1.5-.25.04-.37.18-.37.41ZM26.38,56.81c-.18.23-.14.38.13.43.17-.24.13-.39-.13-.43ZM24.24,57.75c-.23.18-.05.78.27.55.22-.19.04-.79-.27-.55ZM23.17,60.36c.08.44-.26,1.3.41,1.36.01-.5.12-1.1-.41-1.36ZM24.58,62.73c.07-.48.09-.97-.03-1.43-.4.27-.37,1.12.03,1.43ZM25.7,62.51c-.12-.4.16-1.15-.35-1.29-.12.45-.26,1.13.35,1.29Z"/>
          <path class="cls-4" d="M30.46,35.39c.32.53.25,1.17.31,1.76-.15-.05-.3-.1-.44-.14.04-.54.07-1.08.14-1.62Z"/>
          <path class="cls-4" d="M26.87,35.7h.06c1.15,1.1,2.75,1.49,4.02,2.44-1.19.62-2.64.45-3.81-.14-1.05-.55-1.8-1.49-2.79-2.13.84-.02,1.7.07,2.52-.16Z"/>
          <path class="cls-4" d="M10.31,37.11c.96.64,1.71,1.56,2.75,2.09,1.03.54,2.04,1.11,2.95,1.84.08,5.82,0,11.64.03,17.45-1.19-.86-2.51-1.51-3.78-2.25,0,0-.03-.02-.04-.02-.62-.35-1.26-.67-1.8-1.14-.09-5.17.02-10.36-.11-15.54-.02-.81-.02-1.62,0-2.43ZM12.55,42.5c-.24.5-.26,1.23.03,1.71.72.3.71-.66.67-1.1.08-.41-.29-.96-.71-.6ZM13.78,44.12c-.22.28.25.64.45.33.22-.29-.26-.66-.45-.33ZM12.77,47.67l-.12.12c-.12.8-.08,1.62-.03,2.42.06.37.59.43.78.1.1-.8.08-1.61.02-2.4-.02-.28-.46-.51-.66-.25ZM11.37,50.44c-.33.12-.16.69.18.61.39-.09.18-.73-.18-.61ZM14.15,52.39c.03.25.07.5.11.75.13-.13.26-.25.39-.39.11-.36-.28-.31-.49-.37ZM11.59,52.86c-.12.11-.18.26-.2.44.32.08.98-.04.91-.47-.26-.11-.5-.1-.72.04ZM12.14,54.97c.3.09.61.17.92.24,0,.14-.03.41-.04.55.23-.28.36-.64.28-1l-.18.34c-.15-.21-.29-.43-.43-.63-.19.16-.37.33-.55.51ZM14.57,55.39c-.18.17-.22.65.09.71.36-.08.34-.95-.09-.71Z"/>
          <path class="cls-4" d="M27.56,40.19c.32-.11.43,0,.33.33-.32.1-.43,0-.33-.33Z"/>
          <path class="cls-4" d="M45.95,41.97c.28-.23.51.29.24.45-.29.22-.5-.3-.24-.45Z"/>
          <path class="cls-4" d="M22.66,45.5c.84.37,1.74.6,2.66.61-.07,1.43-.19,2.93-.99,4.17-.75-.4-.98-1.24-1.08-2.02-.21-.92-.45-1.83-.6-2.75ZM23.89,46.59c-.5.2-.5,1.29.09,1.39.61-.12.59-1.46-.09-1.39Z"/>
          <path class="cls-4" d="M49.29,49.63c.32-.1.43,0,.32.33-.32.09-.43-.02-.32-.33Z"/>
        </g>
      </g>
    </g>
  </g>
</svg>